<?xml version="1.0" encoding="UTF-8"?>
<svg width="24px" height="25px" viewBox="0 0 24 25" version="1.1" xmlns="http://www.w3.org/2000/svg" xmlns:xlink="http://www.w3.org/1999/xlink">
    <!-- Generator: Sketch 48.1 (47250) - http://www.bohemiancoding.com/sketch -->
    <title>plan</title>
    <desc>Created with Sketch.</desc>
    <defs></defs>
    <g id="Page-1" stroke="none" stroke-width="1" fill="none" fill-rule="evenodd">
        <path d="M19,13 L17,13 L17,15 L19,15 L19,13 Z M20,16 L16,16 L16,12 L20,12 L20,16 Z M13,18 L11,18 L11,20 L13,20 L13,18 Z M14,21 L10,21 L10,17 L14,17 L14,21 Z M13,13 L11,13 L11,15 L13,15 L13,13 Z M14,16 L10,16 L10,12 L14,12 L14,16 Z M7,18 L5,18 L5,20 L7,20 L7,18 Z M8,21 L4,21 L4,17 L8,17 L8,21 Z M7,13 L5,13 L5,15 L7,15 L7,13 Z M8,16 L4,16 L4,12 L8,12 L8,16 Z M23,9 L1,9 L1,24 L23,24 L23,9 Z M23,4 L20,4 L20,6 L19,6 L19,4 L5,4 L5,6 L4,6 L4,4 L1,4 L1,8 L23,8 L23,4 Z M0,25 L0,9 L0,8 L0,3 L4,3 L4,0 L5,0 L5,3 L19,3 L19,0 L20,0 L20,3 L24,3 L24,8 L24,9 L24,25 L0,25 Z" id="plan" fill="#FFFFFF" fill-rule="nonzero"></path>
    </g>
</svg>