<?xml version="1.0" standalone="no"?>
<!DOCTYPE svg PUBLIC "-//W3C//DTD SVG 1.1//EN" "http://www.w3.org/Graphics/SVG/1.1/DTD/svg11.dtd" >
<svg xmlns="http://www.w3.org/2000/svg" xmlns:xlink="http://www.w3.org/1999/xlink" version="1.1">
<metadata>
Created by FontForge 20170910 at Fri Aug 25 19:00:20 2017
 By Jimmy Wärting
Copyright 1997-2014 Monotype GmbH. All rights reserved.
</metadata>
<defs>
<font id="UniversNextforHSBC-Thin" horiz-adv-x="548" >
  <font-face 
    font-family="Univers Next for HSBC"
    font-weight="250"
    font-stretch="normal"
    units-per-em="1000"
    panose-1="2 11 3 3 3 2 2 2 2 3"
    ascent="800"
    descent="-200"
    x-height="506"
    cap-height="723"
    bbox="-150 -214 978 921"
    underline-thickness="50"
    underline-position="-75"
    unicode-range="U+000D-FB02"
  />
<missing-glyph horiz-adv-x="512" 
d="M222 117v67h56v-67h-56zM223 234v17c0 36 4 61 13 82c9 20 23 37 46 58c21 21 34 37 41 50s9 24 9 39c0 48 -34 79 -76 79s-74 -27 -82 -95l-50 8c9 96 63 137 135 137c36 0 66 -13 89 -34c22 -21 35 -53 35 -91c0 -23 -3 -43 -12 -63s-26 -39 -51 -63
c-21 -19 -33 -32 -40 -47c-8 -15 -9 -30 -9 -53v-24h-48zM462 50v617h-412v-617h412zM512 718v-718h-512v718h512z" />
    <glyph glyph-name=".notdef" horiz-adv-x="512" 
d="M222 117v67h56v-67h-56zM223 234v17c0 36 4 61 13 82c9 20 23 37 46 58c21 21 34 37 41 50s9 24 9 39c0 48 -34 79 -76 79s-74 -27 -82 -95l-50 8c9 96 63 137 135 137c36 0 66 -13 89 -34c22 -21 35 -53 35 -91c0 -23 -3 -43 -12 -63s-26 -39 -51 -63
c-21 -19 -33 -32 -40 -47c-8 -15 -9 -30 -9 -53v-24h-48zM462 50v617h-412v-617h412zM512 718v-718h-512v718h512z" />
    <glyph glyph-name="Eth" unicode="&#xd0;" horiz-adv-x="711" 
d="M655 366c0 -216 -103 -335 -277 -359c-39 -5 -78 -7 -117 -7h-153v387h-72v34h72v302h180c56 0 98 -3 149 -16c141 -36 218 -156 218 -341zM612 366c0 122 -34 216 -114 272c-56 39 -133 48 -209 48h-139v-265h216v-34h-216v-350h137c118 0 199 31 251 88
c52 56 74 138 74 241z" />
    <glyph glyph-name="eth" unicode="&#xf0;" horiz-adv-x="545" 
d="M498 279c0 -40 -4 -79 -15 -118c-13 -47 -36 -89 -70 -120c-35 -32 -80 -52 -142 -52c-76 0 -133 28 -169 74c-37 46 -55 108 -55 179c0 68 19 131 56 178c36 47 90 76 164 76c96 0 161 -49 190 -136c-19 150 -74 243 -164 303l-98 -57l-21 21l91 53
c-36 20 -72 32 -104 40l13 29c47 -11 87 -26 126 -49l100 58l22 -19l-95 -55c68 -46 110 -111 137 -183c26 -72 34 -150 34 -222zM452 247c0 58 -14 111 -44 151c-31 39 -75 63 -137 63c-64 0 -108 -25 -137 -67s-42 -96 -42 -154c0 -56 14 -110 43 -149
c28 -40 73 -65 136 -65s107 27 138 68c30 40 43 95 43 153z" />
    <glyph glyph-name="Lslash" unicode="&#x141;" horiz-adv-x="556" 
d="M108 0v338l-67 -40v38l67 40v347h42v-322l208 127v-38l-208 -127v-326h369v-37h-411z" />
    <glyph glyph-name="lslash" unicode="&#x142;" horiz-adv-x="216" 
d="M128 372v-372h-40v347l-92 -58v47l92 59v328h40v-303l93 59v-47z" />
    <glyph glyph-name="Scaron" unicode="&#x160;" horiz-adv-x="578" 
d="M523 190c0 -71 -30 -120 -74 -152c-45 -32 -106 -46 -168 -46c-130 0 -215 61 -226 191h44c3 -91 67 -154 184 -154c44 0 93 10 132 35c39 24 66 62 66 120c0 43 -17 73 -45 97s-68 41 -115 57l-63 21c-48 16 -96 34 -131 63c-36 28 -59 66 -59 122c0 66 27 111 70 142
c43 30 98 44 157 44c54 0 107 -10 147 -34c40 -25 67 -65 70 -124h-44c-4 47 -26 77 -57 96c-32 19 -72 26 -114 26c-44 0 -91 -10 -127 -34s-60 -61 -60 -113c0 -72 49 -114 163 -150l68 -22c58 -19 103 -39 134 -68s48 -66 48 -117zM322 778h-53l-98 143h31l94 -115
l94 115h31z" />
    <glyph glyph-name="scaron" unicode="&#x161;" horiz-adv-x="448" 
d="M399 140c0 -52 -22 -89 -54 -113c-33 -24 -78 -36 -125 -36s-89 12 -120 37s-51 63 -52 117h40c4 -80 49 -122 133 -122c32 0 66 7 93 26c27 18 46 45 46 87c0 29 -13 49 -35 65c-23 15 -53 25 -89 36l-27 8c-38 11 -74 23 -102 44c-28 20 -47 48 -47 92
c0 47 21 80 52 103s72 33 115 33c95 0 159 -43 162 -144h-40c-3 75 -45 110 -121 110c-29 0 -61 -7 -85 -23c-25 -16 -42 -40 -42 -76c0 -31 13 -51 34 -66c21 -16 49 -26 81 -35l21 -6c40 -11 80 -23 111 -43s51 -48 51 -94zM254 593h-53l-98 143h31l94 -115l94 115h31z
" />
    <glyph glyph-name="Yacute" unicode="&#xdd;" horiz-adv-x="595" 
d="M313 319v-319h-42v320l-281 403h51l253 -366l251 366h48zM271 778h-30l90 143h54z" />
    <glyph glyph-name="yacute" unicode="&#xfd;" horiz-adv-x="481" 
d="M189 -190h-42l80 195l-209 501h47l181 -445l176 445h41zM225 593h-30l90 143h54z" />
    <glyph glyph-name="Thorn" unicode="&#xde;" horiz-adv-x="576" 
d="M541 382c0 -86 -47 -154 -126 -181c-47 -16 -113 -17 -169 -17c-8 -1 -29 -1 -49 -1s-40 1 -47 1v-184h-42v723h42v-148h149c75 0 135 -11 178 -40c42 -29 64 -78 64 -153zM497 384c0 64 -23 102 -59 126c-36 23 -86 29 -138 29h-150v-318h112c42 0 97 2 137 15
c31 9 56 31 73 59c16 27 25 58 25 89z" />
    <glyph glyph-name="thorn" unicode="&#xfe;" horiz-adv-x="561" 
d="M514 255c0 -66 -16 -130 -51 -180s-88 -82 -160 -82c-83 0 -140 39 -175 125v-308h-40v913h40v-338c15 36 35 68 63 91s65 37 113 37c74 0 126 -32 161 -80c34 -48 49 -112 49 -178zM472 251c0 54 -12 111 -39 155c-28 44 -70 74 -133 74s-104 -29 -131 -72
c-28 -43 -39 -99 -39 -154s10 -111 37 -154c27 -44 68 -73 132 -73c63 0 106 29 134 72c27 42 39 97 39 152z" />
    <glyph glyph-name="Zcaron" unicode="&#x17d;" horiz-adv-x="538" 
d="M18 0v42l442 642h-412v39h461v-39l-445 -645h456v-39h-502zM305 778h-53l-98 143h31l94 -115l94 115h31z" />
    <glyph glyph-name="zcaron" unicode="&#x17e;" horiz-adv-x="424" 
d="M38 0v39l304 431h-296v36h334v-44l-297 -426h303v-36h-348zM244 593h-53l-98 143h31l94 -115l94 115h31z" />
    <glyph glyph-name="onehalf" unicode="&#xbd;" horiz-adv-x="859" 
d="M533 0v33c16 15 38 35 62 59c23 23 47 47 66 67c50 52 94 107 94 155c0 50 -37 80 -89 80c-56 0 -96 -34 -95 -90h-36c1 75 53 120 131 120c71 0 125 -38 125 -108c0 -51 -36 -104 -82 -154c-19 -20 -43 -44 -66 -67c-24 -24 -48 -46 -65 -63h218v-32h-263zM212 -24h-41
l451 772h38zM162 303v384c-31 -28 -58 -43 -97 -62v33c40 19 66 36 98 65h33v-420h-34z" />
    <glyph glyph-name="onequarter" unicode="&#xbc;" horiz-adv-x="870" 
d="M753 98v-98h-33v98h-206v29l203 292h36v-292h67v-29h-67zM217 -24h-41l450 773h38zM167 303v384c-31 -28 -58 -43 -97 -62v33c40 19 66 36 98 65h32v-420h-33zM720 376l-171 -249h171v249z" />
    <glyph glyph-name="threequarters" unicode="&#xbe;" horiz-adv-x="870" 
d="M772 98v-98h-34v98h-206v29l203 292h37v-292h66v-29h-66zM242 -24h-40l450 773h38zM325 414c0 -42 -18 -70 -45 -89c-28 -20 -65 -29 -101 -29c-80 0 -135 44 -139 116h34c3 -32 16 -55 36 -68c19 -13 43 -19 70 -19c29 0 57 7 78 22c20 15 33 37 33 68
c0 60 -43 88 -103 88c-9 0 -17 1 -26 0v31c9 -1 18 -1 27 -1c51 0 94 30 94 81c0 29 -12 50 -31 63c-20 13 -46 20 -73 20c-60 0 -94 -29 -101 -84h-33c1 36 18 64 42 84c24 19 57 29 93 29s71 -9 96 -28c25 -20 41 -47 41 -85c0 -51 -36 -79 -83 -94c48 -12 91 -41 91 -105
zM739 376l-172 -249h172v249z" />
    <glyph glyph-name="brokenbar" unicode="&#xa6;" horiz-adv-x="230" 
d="M94 411v250h42v-250h-42zM94 -89v250h42v-250h-42z" />
    <glyph glyph-name="minus" unicode="&#x2212;" horiz-adv-x="633" 
d="M71 223v38h492v-38h-492z" />
    <glyph glyph-name="multiply" unicode="&#xd7;" horiz-adv-x="633" 
d="M345 242l201 -201l-28 -29l-201 201l-202 -200l-29 27l202 202l-202 201l29 29l202 -201l200 200l30 -28z" />
    <glyph glyph-name="space" unicode=" " horiz-adv-x="274" 
 />
    <glyph glyph-name="exclam" unicode="!" horiz-adv-x="332" 
d="M184 161h-36l-7 562h50zM140 0v65h52v-65h-52z" />
    <glyph glyph-name="quotedbl" unicode="&#x22;" horiz-adv-x="370" 
d="M274 493h-36l-5 230h47zM132 493h-35l-7 230h48z" />
    <glyph glyph-name="numbersign" unicode="#" 
d="M424 455l-35 -189h120v-33h-126l-42 -233h-37l42 233h-162l-42 -233h-37l42 233h-121v33h127l35 189h-121v33h127l42 235h37l-42 -235h162l42 235h37l-43 -235h122v-33h-127zM225 455l-35 -189h162l35 189h-162z" />
    <glyph glyph-name="dollar" unicode="$" 
d="M501 185c0 -63 -24 -109 -63 -140s-91 -47 -147 -51v-79h-32v78c-60 1 -112 16 -150 48c-38 31 -61 77 -62 141h44c3 -102 68 -151 168 -154v322c-55 17 -106 37 -142 66c-37 28 -60 67 -60 127c0 59 24 103 62 134s88 47 140 50v78h32v-79c52 -3 100 -14 136 -39
c35 -25 58 -63 62 -118h-44c-3 42 -20 71 -47 90c-28 19 -65 28 -107 31v-308c58 -19 110 -37 149 -66c38 -29 61 -68 61 -131zM259 690c-42 -3 -81 -15 -110 -39s-48 -60 -48 -107c0 -46 18 -76 47 -99c28 -23 68 -39 111 -52v297zM457 184c0 48 -18 78 -48 101
c-31 23 -72 38 -118 54v-310c44 3 85 17 116 42c31 24 50 62 50 113z" />
    <glyph glyph-name="percent" unicode="%" horiz-adv-x="914" 
d="M874 180c0 -48 -13 -95 -38 -129c-25 -35 -63 -57 -117 -57c-52 0 -91 22 -117 57c-27 35 -39 81 -39 129c0 46 13 93 40 129c26 36 64 60 116 60c55 0 94 -23 119 -58c24 -35 36 -83 36 -131zM248 -24h-41l450 773h38zM351 546c0 -48 -13 -95 -38 -130s-63 -57 -117 -57
c-52 0 -91 22 -117 57c-27 35 -39 81 -39 129c0 46 13 93 40 129c26 36 64 60 116 60c55 0 94 -22 119 -57c24 -36 36 -83 36 -131zM836 181c0 36 -6 75 -24 106c-19 30 -47 50 -91 50s-73 -21 -92 -51c-20 -31 -28 -71 -28 -107s9 -73 28 -103c19 -31 48 -51 91 -51
c44 0 72 21 91 52c18 30 25 68 25 104zM313 546c0 36 -6 75 -24 106c-19 30 -47 50 -91 50s-73 -21 -92 -51c-20 -31 -28 -70 -28 -106s9 -74 28 -104c19 -31 48 -51 91 -51c44 0 72 21 91 52c18 30 25 68 25 104z" />
    <glyph glyph-name="ampersand" unicode="&#x26;" horiz-adv-x="704" 
d="M660 5h-54l-110 116c-60 -88 -128 -132 -224 -132c-58 0 -108 18 -146 53c-38 34 -60 82 -60 145c0 52 17 93 48 126c30 34 70 61 120 86c-63 68 -90 115 -90 174c0 48 18 87 47 115s69 43 115 43c44 0 83 -15 111 -42s45 -63 45 -105c0 -47 -18 -82 -49 -113
s-72 -56 -119 -81l194 -207c55 99 81 148 96 173l14 24h46c-1 -3 -7 -12 -16 -29c-16 -28 -48 -84 -111 -195zM422 581c0 71 -50 115 -117 115c-33 0 -63 -13 -85 -34c-23 -21 -36 -52 -36 -88c0 -60 39 -111 86 -159c42 21 79 43 107 70s45 57 45 96zM259 372
c-40 -21 -78 -45 -106 -75c-28 -31 -46 -67 -46 -111c0 -50 19 -89 50 -117s72 -44 119 -44c82 0 145 50 192 126z" />
    <glyph glyph-name="quotesingle" unicode="'" horiz-adv-x="227" 
d="M131 493h-35l-6 230h47z" />
    <glyph glyph-name="parenleft" unicode="(" horiz-adv-x="279" 
d="M192 -146c-25 70 -54 139 -75 211s-36 145 -36 220c0 78 15 150 36 224c20 73 48 143 75 214h29c-23 -74 -47 -144 -66 -217c-19 -74 -32 -146 -32 -224c0 -63 14 -139 34 -216c20 -78 45 -153 66 -212h-31z" />
    <glyph glyph-name="parenright" unicode=")" horiz-adv-x="279" 
d="M198 285c0 -75 -15 -148 -35 -220c-21 -72 -50 -143 -75 -211h-32c21 64 46 137 66 212c20 74 34 149 34 216c0 78 -12 150 -31 224c-19 73 -43 143 -66 217h28c27 -70 55 -140 76 -214c20 -74 35 -148 35 -224z" />
    <glyph glyph-name="asterisk" unicode="*" horiz-adv-x="483" 
d="M264 547l85 -136l-34 -18l-73 140l-74 -141l-34 19l86 135l-160 -7v40l160 -7l-88 135l35 20l75 -143l75 143l33 -19l-87 -136l160 7v-39z" />
    <glyph glyph-name="plus" unicode="+" horiz-adv-x="633" 
d="M337 223v-223h-41v223h-225v38h225v223h41v-223h226v-38h-226z" />
    <glyph glyph-name="comma" unicode="," horiz-adv-x="274" 
d="M103 -120h-34l45 186h58z" />
    <glyph glyph-name="hyphen" unicode="-" horiz-adv-x="304" 
d="M28 250v36h248v-36h-248z" />
    <glyph glyph-name="period" unicode="." horiz-adv-x="274" 
d="M111 0v65h51v-65h-51z" />
    <glyph glyph-name="slash" unicode="/" horiz-adv-x="296" 
d="M50 -10h-43l240 744h41z" />
    <glyph glyph-name="zero" unicode="0" 
d="M492 369c0 -76 -10 -170 -42 -246c-33 -76 -88 -132 -178 -132c-63 0 -107 25 -139 65c-32 39 -51 93 -62 150c-12 56 -15 115 -15 166c0 74 10 164 42 236s86 126 177 126c88 0 142 -53 175 -126c32 -74 42 -164 42 -239zM449 364c0 38 -4 87 -13 137s-27 98 -52 135
c-25 36 -61 61 -109 61c-51 0 -88 -24 -114 -60c-27 -37 -42 -84 -50 -134c-9 -50 -12 -99 -12 -138c0 -38 3 -88 12 -138c8 -51 24 -100 49 -138s60 -62 111 -62c74 0 118 54 145 125c26 70 33 153 33 212z" />
    <glyph glyph-name="one" unicode="1" 
d="M282 0v687c-48 -51 -95 -79 -155 -111v42c60 28 107 67 154 114h42v-732h-41z" />
    <glyph glyph-name="two" unicode="2" 
d="M59 0v47c36 38 87 94 136 151c48 56 96 114 131 157c24 29 47 60 64 91c16 31 28 64 28 97c0 47 -16 84 -43 111s-64 42 -108 42c-47 0 -86 -17 -114 -47c-28 -31 -45 -71 -45 -121h-43c1 63 22 114 58 150c35 36 84 56 144 56c55 0 103 -17 138 -49s56 -79 56 -139
c0 -51 -17 -95 -44 -138s-61 -83 -95 -123c-29 -35 -67 -79 -106 -123c-39 -45 -78 -89 -110 -124h363v-38h-410z" />
    <glyph glyph-name="three" unicode="3" 
d="M490 194c0 -67 -29 -118 -72 -152c-43 -35 -101 -52 -159 -52c-127 0 -206 75 -214 198h43c4 -56 26 -97 58 -123c32 -27 73 -39 115 -39c48 0 93 16 128 45c34 28 56 70 56 125c0 54 -18 93 -49 121c-31 27 -73 41 -121 41c-13 0 -27 0 -40 -1v36c13 -1 25 -1 40 -1
c42 0 80 15 108 42c28 26 46 63 46 107c0 52 -20 90 -51 117s-73 40 -119 40c-96 0 -152 -53 -164 -154h-43c3 60 26 108 64 141c38 32 88 49 143 49c58 0 110 -16 149 -48c39 -33 63 -81 63 -145c0 -43 -14 -79 -38 -107s-56 -49 -94 -58c40 -7 78 -24 106 -54
c28 -31 45 -72 45 -128z" />
    <glyph glyph-name="four" unicode="4" horiz-adv-x="555" 
d="M406 175v-175h-42v175h-327v45l320 511h49v-521h111v-35h-111zM365 680l-287 -470h287v470z" />
    <glyph glyph-name="five" unicode="5" 
d="M492 231c0 -70 -21 -129 -59 -172c-39 -44 -94 -69 -162 -69c-56 0 -105 14 -141 45s-58 75 -61 138h45c1 -48 20 -85 48 -110s66 -38 110 -38c60 0 104 23 133 61s44 90 44 146s-13 106 -40 142c-28 36 -69 59 -127 59c-76 0 -139 -49 -158 -129h-43l17 419h361v-36
h-320l-15 -309c36 64 100 91 160 91c68 0 120 -25 156 -67c35 -43 52 -103 52 -171z" />
    <glyph glyph-name="six" unicode="6" 
d="M492 228c0 -63 -20 -122 -56 -165c-36 -44 -88 -72 -152 -72c-59 0 -102 15 -134 42c-33 27 -55 63 -70 106c-11 31 -17 68 -20 103s-3 68 -3 89c0 55 4 118 17 178c12 60 33 115 69 157c35 42 85 68 153 68c54 0 101 -15 136 -45c35 -31 57 -77 58 -137h-45
c-7 91 -60 143 -151 143c-80 0 -128 -47 -156 -111c-28 -65 -38 -149 -39 -225c-1 -17 0 -27 0 -42c28 96 105 142 191 142c68 0 119 -25 152 -67c34 -42 50 -98 50 -164zM449 227c0 52 -12 100 -39 136s-67 59 -125 59c-55 0 -98 -22 -128 -58c-31 -36 -48 -85 -48 -139
c0 -50 14 -98 43 -136s71 -62 130 -62c55 0 96 24 124 61c28 36 43 85 43 139z" />
    <glyph glyph-name="seven" unicode="7" 
d="M202 0h-48l281 685h-382v38h423v-43z" />
    <glyph glyph-name="eight" unicode="8" 
d="M498 195c0 -68 -26 -118 -68 -153s-97 -52 -157 -52c-59 0 -114 16 -156 49c-42 32 -67 82 -67 150c0 98 55 160 151 183c-82 17 -141 75 -141 165c0 64 25 114 65 147c39 34 92 50 150 50c56 0 109 -17 149 -49c39 -33 64 -81 64 -145c0 -92 -57 -148 -140 -167
c94 -20 150 -83 150 -178zM446 539c0 54 -20 92 -51 119c-32 27 -74 40 -120 40s-89 -13 -121 -40c-32 -28 -52 -67 -52 -121c0 -52 21 -89 53 -112c32 -24 75 -35 119 -35c43 0 86 12 118 37c32 24 54 61 54 112zM454 194c0 54 -21 94 -55 121c-35 27 -80 40 -127 40
s-91 -14 -125 -41c-33 -28 -54 -67 -54 -121c0 -55 21 -97 54 -125c34 -28 78 -43 125 -43s92 15 127 44c34 28 55 70 55 125z" />
    <glyph glyph-name="nine" unicode="9" 
d="M488 401c0 -55 -3 -120 -14 -180c-12 -61 -32 -119 -67 -162c-36 -44 -85 -71 -155 -71c-111 0 -190 63 -197 188h44c7 -92 60 -150 152 -150c83 0 131 48 159 116c28 67 36 153 39 231c1 17 1 26 1 41c-29 -95 -107 -141 -191 -141c-67 0 -117 25 -152 66
c-35 40 -52 97 -52 161s20 123 56 166c36 42 89 68 153 68c60 0 105 -16 140 -42c34 -27 55 -61 67 -100c17 -56 17 -120 17 -191zM439 503c0 48 -15 97 -44 133s-71 60 -129 60c-54 0 -96 -23 -124 -59c-29 -36 -45 -85 -45 -137c0 -51 13 -98 41 -133
c27 -35 67 -56 123 -56c54 0 98 21 129 56c31 34 49 81 49 136z" />
    <glyph glyph-name="colon" unicode=":" horiz-adv-x="274" 
d="M111 440v66h51v-66h-51zM111 0v65h51v-65h-51z" />
    <glyph glyph-name="semicolon" unicode=";" horiz-adv-x="274" 
d="M110 440v66h51v-66h-51zM103 -120h-34l45 186h58z" />
    <glyph glyph-name="less" unicode="&#x3c;" horiz-adv-x="633" 
d="M71 221v41l491 203v-42l-443 -182l443 -180v-42z" />
    <glyph glyph-name="equal" unicode="=" horiz-adv-x="633" 
d="M71 315v38h492v-38h-492zM71 130v38h492v-38h-492z" />
    <glyph glyph-name="greater" unicode="&#x3e;" horiz-adv-x="633" 
d="M71 19v42l443 180l-443 182v42l491 -203v-41z" />
    <glyph glyph-name="question" unicode="?" horiz-adv-x="508" 
d="M405 559c0 -52 -24 -96 -58 -136c-33 -40 -74 -75 -108 -109c-20 -20 -26 -42 -26 -71v-82h-37v74c0 27 -4 50 15 81c17 29 60 61 99 101c38 39 72 83 72 141c0 48 -17 82 -45 106c-28 23 -67 34 -111 34c-36 0 -65 -5 -100 -14v40c31 5 61 9 93 9c58 0 108 -12 146 -40
s60 -71 60 -134zM169 0v65h51v-65h-51z" />
    <glyph glyph-name="at" unicode="@" horiz-adv-x="977" 
d="M918 371c0 -86 -27 -153 -66 -199c-40 -47 -92 -72 -143 -72c-67 0 -103 36 -102 99c-27 -54 -76 -101 -154 -101c-51 0 -88 19 -112 48c-25 29 -37 69 -37 113c0 59 16 122 51 172c34 50 84 84 151 84c74 0 118 -40 130 -104l16 94h38l-47 -267c-3 -11 -3 -26 -3 -33
c0 -42 19 -67 70 -67c13 0 26 2 39 7c32 9 66 32 91 71c25 38 42 89 42 155c0 98 -29 180 -91 239c-62 58 -152 92 -275 92c-122 0 -226 -47 -301 -124c-76 -78 -120 -184 -120 -303c0 -114 38 -206 105 -272c67 -67 161 -104 275 -104c88 0 180 23 244 63l16 -27
c-70 -46 -166 -68 -260 -68c-123 0 -226 39 -300 110c-74 72 -116 173 -116 298c0 129 48 242 131 325c82 83 194 133 327 133c131 0 231 -37 299 -100c67 -64 102 -153 102 -262zM622 352c0 35 -8 67 -26 91c-19 24 -46 40 -88 40c-52 0 -94 -30 -122 -73
c-28 -44 -43 -99 -43 -150c0 -35 9 -67 28 -90c19 -24 49 -39 89 -39c54 0 93 31 121 74c27 43 41 99 41 147z" />
    <glyph glyph-name="A" unicode="A" horiz-adv-x="659" 
d="M604 0l-90 215h-377l-85 -215h-46l295 723h42l310 -723h-49zM321 676l-170 -424h346z" />
    <glyph glyph-name="B" unicode="B" horiz-adv-x="635" 
d="M573 201c0 -84 -34 -135 -85 -164c-52 -29 -121 -37 -189 -37h-191v723h186c40 0 85 0 124 -12c76 -23 125 -86 125 -166c0 -90 -54 -147 -136 -166c114 -15 166 -79 166 -178zM498 543c0 94 -69 142 -167 142h-181v-291h167c50 0 94 10 127 34c34 23 54 60 54 115z
M529 201c0 63 -23 102 -59 126s-86 32 -140 32h-180v-320h144c56 0 115 3 160 24c44 21 75 62 75 138z" />
    <glyph glyph-name="C" unicode="C" horiz-adv-x="640" 
d="M585 161c-12 -55 -43 -98 -83 -127c-41 -29 -93 -44 -148 -44c-109 0 -182 43 -229 111c-48 68 -69 159 -69 255c0 92 22 187 72 258s125 119 231 119c54 0 106 -15 149 -43c42 -29 72 -72 76 -130h-45c-8 48 -33 81 -67 104c-35 22 -75 31 -113 31
c-91 0 -155 -45 -197 -111c-43 -66 -61 -148 -61 -224c0 -82 16 -164 56 -227c40 -64 103 -106 199 -106c42 0 82 11 115 34c32 22 57 54 68 100h46z" />
    <glyph glyph-name="D" unicode="D" horiz-adv-x="711" 
d="M655 365c0 -216 -103 -335 -277 -359c-39 -5 -78 -6 -117 -6h-153v723h180c56 0 98 -3 149 -16c141 -36 218 -157 218 -342zM612 365c0 122 -35 217 -115 273c-56 39 -132 48 -208 48h-139v-649h137c118 0 198 31 250 87s75 138 75 241z" />
    <glyph glyph-name="E" unicode="E" horiz-adv-x="586" 
d="M108 0v723h415v-37h-373v-289h360v-37h-360v-323h389v-37h-431z" />
    <glyph glyph-name="F" unicode="F" horiz-adv-x="536" 
d="M150 686v-288h340v-37h-340v-361h-42v723h395v-37h-353z" />
    <glyph glyph-name="G" unicode="G" horiz-adv-x="680" 
d="M603 35c-63 -20 -145 -40 -225 -40c-110 0 -189 42 -243 110s-79 160 -79 262c0 95 23 187 74 255c50 68 126 113 232 113c80 0 149 -26 191 -80c20 -27 35 -61 40 -104h-45c-15 98 -85 148 -188 148c-91 0 -155 -42 -197 -104c-43 -63 -61 -144 -61 -226
c0 -87 20 -171 65 -234c44 -63 112 -103 210 -103c63 0 125 10 184 30v258h-191v37h233v-322z" />
    <glyph glyph-name="H" unicode="H" horiz-adv-x="725" 
d="M575 0v356h-425v-356h-42v723h42v-331h425v331h42v-723h-42z" />
    <glyph glyph-name="I" unicode="I" horiz-adv-x="258" 
d="M108 0v723h42v-723h-42z" />
    <glyph glyph-name="J" unicode="J" horiz-adv-x="470" 
d="M379 204c0 -48 -7 -95 -32 -134c-35 -51 -91 -76 -162 -76c-52 0 -95 15 -126 46c-31 30 -49 71 -49 126h43c0 -86 51 -136 134 -136c55 0 92 20 116 52s34 77 34 128v513h42v-519z" />
    <glyph glyph-name="K" unicode="K" horiz-adv-x="590" 
d="M530 0l-376 391l342 332h56l-347 -330l382 -393h-57zM108 0v723h42v-723h-42z" />
    <glyph glyph-name="L" unicode="L" horiz-adv-x="534" 
d="M108 0v723h42v-686h370v-37h-412z" />
    <glyph glyph-name="M" unicode="M" horiz-adv-x="921" 
d="M771 0v686l-287 -686h-46l-290 686v-686h-40v723h71l284 -674l279 674h71v-723h-42z" />
    <glyph glyph-name="N" unicode="N" horiz-adv-x="734" 
d="M571 0l-423 668v-668h-40v723h55l423 -669v669h40v-723h-55z" />
    <glyph glyph-name="O" unicode="O" horiz-adv-x="733" 
d="M677 367c0 -99 -22 -192 -72 -262c-51 -71 -127 -116 -237 -116c-109 0 -186 44 -237 114c-52 70 -75 162 -75 261s24 191 75 259s129 111 238 111c113 0 188 -40 238 -107s70 -158 70 -260zM632 364c0 88 -17 172 -57 233c-41 60 -107 100 -206 100
c-96 0 -162 -40 -205 -102c-44 -63 -62 -145 -62 -231c0 -83 18 -167 62 -231c43 -64 109 -107 205 -107c95 0 160 43 203 107c42 64 60 148 60 231z" />
    <glyph glyph-name="P" unicode="P" horiz-adv-x="579" 
d="M544 529c0 -86 -46 -153 -126 -180c-46 -16 -111 -17 -167 -17h-101v-332h-42v723h187c60 0 118 -1 169 -33c56 -35 80 -97 80 -161zM500 532c0 64 -23 102 -59 125s-86 29 -138 29h-153v-317h116c42 0 96 1 136 14c32 11 56 32 73 60c16 27 25 58 25 89z" />
    <glyph glyph-name="Q" unicode="Q" horiz-adv-x="733" 
d="M693 0c-52 0 -105 3 -164 0c-35 -1 -67 -2 -96 -5c-23 -3 -46 -4 -71 -4c-106 0 -182 46 -232 116c-51 70 -74 162 -74 257c0 101 24 192 76 260c51 67 129 110 239 110s187 -41 236 -107c48 -67 70 -157 70 -258c0 -68 -12 -137 -39 -197c-28 -60 -71 -111 -133 -142
c58 8 132 6 188 7v-37zM632 364c0 88 -17 170 -57 232c-41 62 -107 101 -206 101c-96 0 -163 -41 -206 -103c-43 -63 -61 -146 -61 -230c0 -82 19 -165 62 -229s109 -107 205 -107c95 0 160 43 203 107c42 63 60 146 60 229z" />
    <glyph glyph-name="R" unicode="R" horiz-adv-x="637" 
d="M524 0c-27 51 -26 108 -33 172c-7 72 -13 120 -33 149c-21 29 -58 41 -126 41h-182v-362h-42v723h232c64 0 118 -11 160 -46c32 -27 56 -66 56 -125c0 -92 -54 -149 -138 -170c78 -12 105 -74 112 -175c3 -35 6 -78 13 -117s15 -74 30 -90h-49zM512 548
c0 56 -22 91 -56 111c-35 20 -80 27 -127 27h-179v-288h149c50 0 102 6 144 27s69 59 69 123z" />
    <glyph glyph-name="S" unicode="S" horiz-adv-x="578" 
d="M523 190c0 -71 -30 -120 -74 -152c-45 -32 -106 -46 -168 -46c-130 0 -215 61 -226 191h44c3 -91 67 -154 184 -154c44 0 93 10 132 35c39 24 66 62 66 120c0 43 -17 73 -45 97s-68 41 -115 57l-63 21c-48 16 -96 34 -131 63c-36 28 -59 66 -59 122c0 66 27 111 70 142
c43 30 98 44 157 44c54 0 107 -10 147 -34c40 -25 67 -65 70 -124h-44c-4 47 -26 77 -57 96c-32 19 -72 26 -114 26c-44 0 -91 -10 -127 -34s-60 -61 -60 -113c0 -72 49 -114 163 -150l68 -22c58 -19 103 -39 134 -68s48 -66 48 -117z" />
    <glyph glyph-name="T" unicode="T" horiz-adv-x="516" 
d="M278 686v-686h-42v686h-232v37h508v-37h-234z" />
    <glyph glyph-name="U" unicode="U" horiz-adv-x="722" 
d="M628 267c0 -176 -87 -276 -267 -276c-176 0 -267 92 -267 276v456h44v-442c0 -64 6 -123 37 -170c38 -56 102 -83 186 -83c96 0 168 35 201 110c19 42 22 91 22 143v442h44v-456z" />
    <glyph glyph-name="V" unicode="V" horiz-adv-x="621" 
d="M338 0h-49l-282 723h45l261 -679l258 679h43z" />
    <glyph glyph-name="W" unicode="W" horiz-adv-x="988" 
d="M777 0h-57l-229 669h-4l-220 -669h-60l-189 723h45l175 -683h4l222 683h51l233 -683h4l175 683h43z" />
    <glyph glyph-name="X" unicode="X" horiz-adv-x="607" 
d="M541 0l-242 341l-235 -341h-49l261 376l-254 347h52l227 -318l221 318h48l-245 -349l267 -374h-51z" />
    <glyph glyph-name="Y" unicode="Y" horiz-adv-x="595" 
d="M313 319v-319h-42v320l-281 403h51l253 -366l251 366h48z" />
    <glyph glyph-name="Z" unicode="Z" horiz-adv-x="538" 
d="M18 0v42l442 642h-412v39h461v-39l-445 -645h456v-39h-502z" />
    <glyph glyph-name="bracketleft" unicode="[" horiz-adv-x="286" 
d="M88 -145v868h124v-31h-86v-807h86v-30h-124z" />
    <glyph glyph-name="backslash" unicode="\" horiz-adv-x="296" 
d="M247 -10l-240 744h43l238 -744h-41z" />
    <glyph glyph-name="bracketright" unicode="]" horiz-adv-x="286" 
d="M74 -145v30h87v807h-87v31h124v-868h-124z" />
    <glyph glyph-name="asciicircum" unicode="^" horiz-adv-x="633" 
d="M489 311l-174 368l-173 -368h-41l197 412h35l197 -412h-41z" />
    <glyph glyph-name="underscore" unicode="_" horiz-adv-x="507" 
d="M3 -125v50h500v-50h-500z" />
    <glyph glyph-name="grave" unicode="`" horiz-adv-x="250" 
d="M146 593l-113 143h53l90 -143h-30z" />
    <glyph glyph-name="a" unicode="a" horiz-adv-x="518" 
d="M404 0l-5 104c-29 -82 -99 -115 -175 -115c-42 0 -85 9 -117 32c-33 23 -56 59 -56 114c0 71 37 112 89 136c51 24 117 30 177 30c27 0 56 0 77 -1v38c0 91 -37 142 -136 142c-68 0 -119 -23 -128 -101h-39c1 48 22 80 53 103c31 22 71 31 114 31c48 0 86 -9 113 -26
c50 -31 63 -85 63 -153v-62c-1 -28 -1 -55 -1 -64c0 -25 0 -50 1 -74c1 -46 3 -90 6 -134h-36zM394 269c-13 0 -41 1 -56 1c-46 0 -107 -2 -157 -19c-51 -17 -90 -51 -90 -115c0 -40 17 -69 42 -88s60 -27 96 -27c78 0 120 36 141 80s24 96 24 131v37z" />
    <glyph glyph-name="b" unicode="b" horiz-adv-x="560" 
d="M513 258c0 -67 -17 -133 -52 -183c-36 -50 -90 -82 -164 -82c-46 0 -81 14 -108 38c-28 23 -49 54 -62 89c0 -15 -1 -42 -1 -66c0 -25 -1 -47 -1 -54h-40c3 52 3 95 3 147v576h40v-342c31 92 97 132 181 132c72 0 123 -31 156 -79c34 -48 48 -112 48 -176zM471 255
c0 52 -10 108 -36 152c-27 43 -68 73 -130 73c-64 0 -109 -31 -137 -75s-41 -101 -41 -155c0 -51 10 -107 37 -150c26 -43 67 -73 130 -73c64 0 108 29 137 72c28 43 40 100 40 156z" />
    <glyph glyph-name="c" unicode="c" horiz-adv-x="502" 
d="M468 157c-4 -48 -24 -89 -56 -119c-33 -31 -80 -49 -136 -49c-76 0 -133 28 -171 75c-39 46 -58 111 -58 183c0 74 18 140 57 190s97 80 177 80c107 0 178 -60 186 -165h-39c-8 84 -63 131 -147 131c-70 0 -117 -27 -148 -70c-31 -44 -44 -102 -44 -164
c0 -59 15 -115 46 -157c31 -43 78 -70 142 -70c51 0 88 19 113 46c24 27 37 60 40 89h38z" />
    <glyph glyph-name="d" unicode="d" horiz-adv-x="560" 
d="M435 0c0 7 -1 29 -1 54c0 24 -1 51 -1 66c-15 -35 -34 -67 -62 -90s-63 -37 -110 -37c-75 0 -128 33 -163 82c-35 48 -51 114 -51 182c0 64 16 128 51 176c34 48 85 80 157 80c84 0 146 -37 177 -129v339h40v-576c0 -52 0 -95 3 -147h-40zM433 250c0 54 -12 111 -40 155
c-29 44 -73 75 -137 75c-63 0 -103 -30 -130 -73s-37 -100 -37 -152c0 -56 12 -113 41 -156c28 -43 72 -72 136 -72c63 0 104 30 131 73c26 43 36 99 36 150z" />
    <glyph glyph-name="e" unicode="e" horiz-adv-x="509" 
d="M88 250v-15c0 -56 15 -109 44 -148c29 -40 75 -66 135 -66c88 0 134 47 154 137h39c-23 -110 -83 -169 -197 -169c-76 0 -130 29 -165 76c-36 47 -51 111 -51 179c0 70 16 137 52 187s91 82 169 82s126 -34 155 -82s40 -109 40 -167v-14h-375zM422 294
c-1 48 -13 94 -38 129s-63 57 -118 57c-59 0 -100 -23 -128 -61c-29 -38 -45 -86 -49 -137h333v12z" />
    <glyph glyph-name="f" unicode="f" horiz-adv-x="292" 
d="M278 694c-11 3 -29 3 -40 3c-35 0 -55 -8 -66 -24c-12 -16 -15 -40 -15 -74v-93h111v-33h-111v-473h-40v473h-103v33h103v110c0 34 6 62 22 83c16 20 43 32 83 32c19 0 38 -1 56 -3v-34z" />
    <glyph glyph-name="g" unicode="g" horiz-adv-x="563" 
d="M479 506c-1 -28 -3 -50 -3 -74c-1 -25 -1 -51 -1 -86v-289c0 -52 -7 -116 -36 -168s-81 -91 -173 -91c-43 0 -90 8 -126 29s-61 56 -61 114h40c0 -42 17 -69 45 -86c27 -17 64 -24 100 -24c72 0 114 28 139 70c25 43 32 100 32 156v66c-32 -86 -94 -122 -173 -122
c-71 0 -125 27 -161 74c-36 46 -54 107 -54 178c0 68 16 133 51 181s87 79 159 79c84 0 155 -48 180 -134v127h42zM437 260c0 54 -15 107 -43 150c-29 42 -72 70 -130 70c-63 0 -106 -29 -134 -72s-40 -100 -40 -156c0 -55 14 -110 43 -150c28 -41 73 -69 133 -69
c64 0 106 29 133 72s38 99 38 155z" />
    <glyph glyph-name="h" unicode="h" horiz-adv-x="552" 
d="M428 0v291c0 50 -3 96 -22 129c-20 34 -53 55 -113 55c-46 0 -81 -15 -108 -40s-44 -60 -52 -102c-5 -23 -5 -46 -5 -70v-263h-40v723h40v-329c29 76 90 117 168 117c119 0 172 -61 172 -196v-315h-40z" />
    <glyph glyph-name="i" unicode="i" horiz-adv-x="216" 
d="M85 657v66h46v-66h-46zM88 0v506h40v-506h-40z" />
    <glyph glyph-name="j" unicode="j" horiz-adv-x="216" 
d="M85 657v66h46v-66h-46zM128 -77c0 -83 -30 -104 -101 -104c-12 0 -32 1 -44 4v34c13 -3 26 -4 41 -4c29 0 46 7 55 21c8 15 9 35 9 60v572h40v-583z" />
    <glyph glyph-name="k" unicode="k" horiz-adv-x="478" 
d="M413 0l-280 287l258 219h55l-262 -218l281 -288h-52zM88 0v723h40v-723h-40z" />
    <glyph glyph-name="l" unicode="l" horiz-adv-x="216" 
d="M88 0v723h40v-723h-40z" />
    <glyph glyph-name="m" unicode="m" horiz-adv-x="867" 
d="M743 0v311c0 46 -8 86 -28 117c-20 30 -54 47 -106 47c-43 0 -75 -14 -99 -36c-24 -23 -39 -53 -47 -84c-7 -24 -7 -46 -7 -73v-282h-40v303c0 44 -6 87 -26 119s-53 53 -107 53c-38 0 -70 -15 -95 -39s-44 -56 -52 -88c-7 -24 -8 -48 -8 -73v-275h-40v372
c0 43 -2 92 -2 134h39c0 -11 1 -33 1 -56c0 -24 1 -48 1 -57c12 29 29 58 56 81c27 22 60 36 106 36c91 0 138 -47 155 -125c9 29 26 60 54 84c27 24 65 41 119 41c78 0 119 -30 142 -72c22 -43 24 -97 24 -147v-291h-40z" />
    <glyph glyph-name="n" unicode="n" horiz-adv-x="553" 
d="M429 0v291c0 50 -3 95 -22 130c-20 34 -53 54 -113 54c-46 0 -81 -15 -108 -40s-44 -60 -52 -102c-5 -23 -6 -46 -6 -70v-263h-40v361c0 48 1 97 -2 145h39c0 -9 1 -33 1 -57s1 -48 1 -57c31 76 92 119 170 119c118 0 172 -61 172 -196v-315h-40z" />
    <glyph glyph-name="o" unicode="o" 
d="M501 257c0 -68 -19 -135 -57 -185c-39 -51 -94 -83 -169 -83c-79 0 -134 31 -172 81c-39 50 -56 116 -56 187s19 134 58 181c38 47 94 76 170 76c78 0 133 -28 171 -74c38 -47 55 -111 55 -183zM459 256c0 59 -14 114 -44 156c-31 42 -76 68 -140 68s-110 -26 -141 -68
s-45 -97 -45 -156s14 -117 45 -161c30 -44 77 -73 141 -73c63 0 109 30 140 74c30 44 44 102 44 160z" />
    <glyph glyph-name="p" unicode="p" horiz-adv-x="560" 
d="M513 255c0 -66 -16 -130 -51 -180s-88 -82 -160 -82c-82 0 -139 38 -174 124v-307h-40v540c0 52 -1 104 -3 156h40c0 -7 1 -29 1 -53c0 -25 1 -52 1 -67c31 76 81 127 176 127c74 0 126 -32 161 -80c34 -48 49 -112 49 -178zM471 251c0 54 -12 111 -39 155
c-28 44 -70 74 -133 74s-104 -29 -131 -72c-28 -43 -39 -99 -39 -154s10 -111 37 -154c27 -44 68 -73 132 -73c63 0 106 29 134 72c27 42 39 97 39 152z" />
    <glyph glyph-name="q" unicode="q" horiz-adv-x="560" 
d="M475 506c-2 -52 -3 -104 -3 -156v-540h-40v307c-35 -86 -93 -124 -175 -124c-75 0 -126 32 -160 81c-35 48 -50 113 -50 180c0 66 16 130 52 179c35 48 87 80 161 80c94 0 142 -47 173 -123c0 15 0 41 1 65v51h41zM431 254c0 55 -12 111 -39 154s-70 72 -132 72
c-63 0 -106 -30 -133 -73c-27 -44 -38 -101 -38 -156s12 -110 40 -152c27 -43 69 -72 132 -72c64 0 106 29 133 73c27 43 37 99 37 154z" />
    <glyph glyph-name="r" unicode="r" horiz-adv-x="322" 
d="M312 466c-13 3 -26 4 -41 4c-42 0 -72 -13 -95 -33s-36 -48 -43 -79c-5 -23 -6 -47 -6 -71v-287h-40v357c0 56 -1 98 -2 149h39l2 -99c11 20 26 45 50 66c24 20 59 36 107 36c11 0 18 1 29 -2v-41z" />
    <glyph glyph-name="s" unicode="s" horiz-adv-x="448" 
d="M399 140c0 -52 -22 -89 -54 -113c-33 -24 -78 -36 -125 -36s-89 12 -120 37s-51 63 -52 117h40c4 -80 49 -122 133 -122c32 0 66 7 93 26c27 18 46 45 46 87c0 29 -13 49 -35 65c-23 15 -53 25 -89 36l-27 8c-38 11 -74 23 -102 44c-28 20 -47 48 -47 92
c0 47 21 80 52 103s72 33 115 33c95 0 159 -43 162 -144h-40c-3 75 -45 110 -121 110c-29 0 -61 -7 -85 -23c-25 -16 -42 -40 -42 -76c0 -31 13 -51 34 -66c21 -16 49 -26 81 -35l21 -6c40 -11 80 -23 111 -43s51 -48 51 -94z" />
    <glyph glyph-name="t" unicode="t" horiz-adv-x="298" 
d="M272 2c-25 -4 -42 -5 -63 -5c-68 0 -93 37 -93 101v375h-102v33h102v108l40 19v-127h111v-33h-111v-354c0 -28 2 -49 13 -64c10 -16 26 -23 57 -23c16 0 29 2 46 5v-35z" />
    <glyph glyph-name="u" unicode="u" horiz-adv-x="552" 
d="M427 0c0 9 -1 33 -1 57s-1 48 -1 57c-31 -76 -92 -120 -170 -120c-111 0 -171 62 -171 196v316h40v-291c0 -47 5 -93 24 -128s52 -57 110 -57c91 0 143 59 160 142c5 23 6 46 6 70v264h40v-361c0 -43 0 -94 3 -145h-40z" />
    <glyph glyph-name="v" unicode="v" horiz-adv-x="489" 
d="M263 0h-36l-209 506h43l186 -459l183 459h41z" />
    <glyph glyph-name="w" unicode="w" horiz-adv-x="784" 
d="M580 0h-29l-158 455l-163 -455h-30l-181 506h45l152 -448l158 448h41l153 -445l156 445h41z" />
    <glyph glyph-name="x" unicode="x" horiz-adv-x="470" 
d="M408 0l-174 232l-177 -232h-45l198 257l-187 249h48l166 -223l170 223h45l-191 -249l197 -257h-50z" />
    <glyph glyph-name="y" unicode="y" horiz-adv-x="481" 
d="M189 -190h-42l80 195l-209 501h47l181 -445l176 445h41z" />
    <glyph glyph-name="z" unicode="z" horiz-adv-x="424" 
d="M38 0v39l304 431h-296v36h334v-44l-297 -426h303v-36h-348z" />
    <glyph glyph-name="braceleft" unicode="{" horiz-adv-x="372" 
d="M342 -164c-25 1 -46 4 -64 9c-27 7 -49 20 -67 37c-19 19 -30 41 -37 68c-5 23 -8 51 -8 84c-3 28 3 57 0 85c0 27 -3 49 -8 67c-5 17 -14 31 -25 40c-10 9 -24 18 -42 25c-20 7 -42 12 -66 14v29c44 2 79 14 106 35c14 11 24 27 29 47c4 17 6 39 6 66v40
c-1 16 -1 33 0 40c0 44 3 80 14 107c9 25 25 45 48 61c20 15 45 25 77 30c12 2 24 3 37 3v-29c-23 -1 -43 -5 -60 -12c-19 -7 -34 -17 -45 -30c-8 -11 -15 -21 -19 -32c-5 -11 -8 -24 -10 -41c-3 -19 -2 -38 -3 -59s0 -43 0 -64s-1 -37 -2 -52c-1 -11 -2 -22 -5 -33
c-5 -21 -15 -40 -30 -55c-10 -10 -23 -18 -38 -24c-15 -7 -30 -10 -50 -13c43 -6 73 -20 92 -41c16 -17 25 -39 29 -66c3 -19 4 -42 4 -77v-58c0 -19 1 -37 3 -54c1 -13 3 -23 6 -32c3 -8 5 -17 9 -24c13 -25 34 -43 67 -54c15 -4 32 -8 52 -9v-28z" />
    <glyph glyph-name="bar" unicode="|" horiz-adv-x="230" 
d="M94 -214v1000h42v-1000h-42z" />
    <glyph glyph-name="braceright" unicode="}" horiz-adv-x="372" 
d="M347 265c-31 -3 -61 -11 -85 -24c-17 -9 -29 -21 -37 -34c-7 -12 -12 -26 -15 -42c-3 -17 -2 -39 -3 -64c-1 -23 2 -62 -1 -82c0 -34 -4 -59 -11 -79c-8 -25 -21 -45 -40 -62c-17 -15 -37 -27 -64 -34c-17 -5 -37 -7 -61 -8v28c21 1 37 5 52 9c34 11 54 29 67 54
c4 8 7 16 10 24c3 9 4 20 5 32c2 17 3 35 3 55v57c0 35 1 59 4 78c4 27 14 48 30 65c19 21 49 35 91 41c-17 3 -32 6 -44 10c-13 5 -24 11 -35 19c-11 7 -16 16 -23 25c-6 11 -11 22 -15 34c-3 11 -5 22 -6 33c-3 15 -2 32 -2 55c0 21 1 43 0 64s-1 41 -4 60
c-2 17 -5 30 -10 41s-11 21 -19 32c-11 13 -26 23 -44 30c-17 7 -37 11 -60 12v29c27 -1 50 -5 71 -12c23 -7 40 -17 55 -30c17 -15 28 -34 36 -55c9 -27 13 -60 14 -100c1 -7 1 -23 1 -39v-39c0 -33 1 -61 8 -81c6 -17 17 -32 33 -43c13 -9 26 -15 41 -20
c16 -5 35 -9 58 -10v-29z" />
    <glyph glyph-name="asciitilde" unicode="~" horiz-adv-x="633" 
d="M569 305c-4 -31 -15 -61 -33 -83c-19 -23 -46 -37 -82 -37c-39 0 -83 17 -138 38c-51 19 -100 40 -135 40c-52 0 -77 -38 -85 -85h-31c5 32 15 61 34 84c18 23 44 37 82 37s82 -17 137 -38c51 -20 102 -40 135 -40c54 0 75 36 86 84h30z" />
    <glyph glyph-name="Adieresis" unicode="&#xc4;" horiz-adv-x="659" 
d="M604 0l-90 215h-377l-85 -215h-46l295 723h42l310 -723h-49zM321 676l-170 -424h346zM375 822v65h46v-65h-46zM221 822v65h46v-65h-46z" />
    <glyph glyph-name="Aring" unicode="&#xc5;" horiz-adv-x="659" 
d="M604 0l-90 215h-377l-85 -215h-46l295 723h42l310 -723h-49zM321 676l-170 -424h346zM237 823c0 48 37 85 85 85s86 -37 86 -85s-38 -85 -86 -85s-85 37 -85 85zM264 823c0 -35 23 -61 58 -61s58 26 58 61c0 36 -23 62 -58 62s-58 -26 -58 -62z" />
    <glyph glyph-name="Ccedilla" unicode="&#xc7;" horiz-adv-x="640" 
d="M585 161c-12 -55 -43 -98 -83 -127c-41 -29 -93 -44 -149 -44l-12 -42c11 0 18 0 27 -1c34 -3 66 -15 66 -59c0 -27 -12 -43 -29 -54c-17 -10 -41 -13 -62 -13c-35 0 -63 8 -97 23l7 22c31 -15 53 -24 92 -24c40 0 52 23 52 43c0 32 -27 40 -56 40c-11 0 -20 -1 -29 -2
l21 68c-100 5 -169 50 -213 117c-45 67 -64 154 -64 248c0 92 22 187 72 258s125 119 231 119c54 0 106 -15 149 -43c42 -29 72 -72 76 -130h-45c-8 48 -33 81 -67 104c-35 22 -75 31 -113 31c-91 0 -155 -45 -197 -111c-43 -66 -61 -148 -61 -224c0 -82 16 -164 56 -227
c40 -64 103 -106 199 -106c42 0 82 11 115 34c32 22 57 54 68 100h46z" />
    <glyph glyph-name="Eacute" unicode="&#xc9;" horiz-adv-x="586" 
d="M108 0v723h415v-37h-373v-289h360v-37h-360v-323h389v-37h-431zM304 778h-30l90 143h54z" />
    <glyph glyph-name="Ntilde" unicode="&#xd1;" horiz-adv-x="734" 
d="M571 0l-423 668v-668h-40v723h55l423 -669v669h40v-723h-55zM498 890c-11 -36 -33 -68 -75 -68c-32 0 -66 21 -95 21c-25 0 -36 -6 -47 -29h-29c9 39 37 64 79 64c31 0 60 -20 91 -20c24 0 36 9 47 32h29z" />
    <glyph glyph-name="Odieresis" unicode="&#xd6;" horiz-adv-x="733" 
d="M677 367c0 -99 -22 -192 -72 -262c-51 -71 -127 -116 -237 -116c-109 0 -186 44 -237 114c-52 70 -75 162 -75 261s24 191 75 259s129 111 238 111c113 0 188 -40 238 -107s70 -158 70 -260zM632 364c0 88 -17 172 -57 233c-41 60 -107 100 -206 100
c-96 0 -162 -40 -205 -102c-44 -63 -62 -145 -62 -231c0 -83 18 -167 62 -231c43 -64 109 -107 205 -107c95 0 160 43 203 107c42 64 60 148 60 231zM423 822v65h46v-65h-46zM269 822v65h46v-65h-46z" />
    <glyph glyph-name="Udieresis" unicode="&#xdc;" horiz-adv-x="722" 
d="M628 267c0 -176 -87 -276 -267 -276c-176 0 -267 92 -267 276v456h44v-442c0 -64 6 -123 37 -170c38 -56 102 -83 186 -83c96 0 168 35 201 110c19 42 22 91 22 143v442h44v-456zM416 822v65h46v-65h-46zM262 822v65h46v-65h-46z" />
    <glyph glyph-name="aacute" unicode="&#xe1;" horiz-adv-x="518" 
d="M404 0l-5 104c-29 -82 -99 -115 -175 -115c-42 0 -85 9 -117 32c-33 23 -56 59 -56 114c0 71 37 112 89 136c51 24 117 30 177 30c27 0 56 0 77 -1v38c0 91 -37 142 -136 142c-68 0 -119 -23 -128 -101h-39c1 48 22 80 53 103c31 22 71 31 114 31c48 0 86 -9 113 -26
c50 -31 63 -85 63 -153v-62c-1 -28 -1 -55 -1 -64c0 -25 0 -50 1 -74c1 -46 3 -90 6 -134h-36zM394 269c-13 0 -41 1 -56 1c-46 0 -107 -2 -157 -19c-51 -17 -90 -51 -90 -115c0 -40 17 -69 42 -88s60 -27 96 -27c78 0 120 36 141 80s24 96 24 131v37zM242 593h-30l90 143
h54z" />
    <glyph glyph-name="agrave" unicode="&#xe0;" horiz-adv-x="518" 
d="M404 0l-5 104c-29 -82 -99 -115 -175 -115c-42 0 -85 9 -117 32c-33 23 -56 59 -56 114c0 71 37 112 89 136c51 24 117 30 177 30c27 0 56 0 77 -1v38c0 91 -37 142 -136 142c-68 0 -119 -23 -128 -101h-39c1 48 22 80 53 103c31 22 71 31 114 31c48 0 86 -9 113 -26
c50 -31 63 -85 63 -153v-62c-1 -28 -1 -55 -1 -64c0 -25 0 -50 1 -74c1 -46 3 -90 6 -134h-36zM394 269c-13 0 -41 1 -56 1c-46 0 -107 -2 -157 -19c-51 -17 -90 -51 -90 -115c0 -40 17 -69 42 -88s60 -27 96 -27c78 0 120 36 141 80s24 96 24 131v37zM285 593l-113 143h53
l90 -143h-30z" />
    <glyph glyph-name="acircumflex" unicode="&#xe2;" horiz-adv-x="518" 
d="M404 0l-5 104c-29 -82 -99 -115 -175 -115c-42 0 -85 9 -117 32c-33 23 -56 59 -56 114c0 71 37 112 89 136c51 24 117 30 177 30c27 0 56 0 77 -1v38c0 91 -37 142 -136 142c-68 0 -119 -23 -128 -101h-39c1 48 22 80 53 103c31 22 71 31 114 31c48 0 86 -9 113 -26
c50 -31 63 -85 63 -153v-62c-1 -28 -1 -55 -1 -64c0 -25 0 -50 1 -74c1 -46 3 -90 6 -134h-36zM394 269c-13 0 -41 1 -56 1c-46 0 -107 -2 -157 -19c-51 -17 -90 -51 -90 -115c0 -40 17 -69 42 -88s60 -27 96 -27c78 0 120 36 141 80s24 96 24 131v37zM357 593l-92 114
l-96 -114h-31l102 144h50l98 -144h-31z" />
    <glyph glyph-name="adieresis" unicode="&#xe4;" horiz-adv-x="518" 
d="M404 0l-5 104c-29 -82 -99 -115 -175 -115c-42 0 -85 9 -117 32c-33 23 -56 59 -56 114c0 71 37 112 89 136c51 24 117 30 177 30c27 0 56 0 77 -1v38c0 91 -37 142 -136 142c-68 0 -119 -23 -128 -101h-39c1 48 22 80 53 103c31 22 71 31 114 31c48 0 86 -9 113 -26
c50 -31 63 -85 63 -153v-62c-1 -28 -1 -55 -1 -64c0 -25 0 -50 1 -74c1 -46 3 -90 6 -134h-36zM394 269c-13 0 -41 1 -56 1c-46 0 -107 -2 -157 -19c-51 -17 -90 -51 -90 -115c0 -40 17 -69 42 -88s60 -27 96 -27c78 0 120 36 141 80s24 96 24 131v37zM317 657v65h46v-65
h-46zM163 657v65h46v-65h-46z" />
    <glyph glyph-name="atilde" unicode="&#xe3;" horiz-adv-x="518" 
d="M404 0l-5 104c-29 -82 -99 -115 -175 -115c-42 0 -85 9 -117 32c-33 23 -56 59 -56 114c0 71 37 112 89 136c51 24 117 30 177 30c27 0 56 0 77 -1v38c0 91 -37 142 -136 142c-68 0 -119 -23 -128 -101h-39c1 48 22 80 53 103c31 22 71 31 114 31c48 0 86 -9 113 -26
c50 -31 63 -85 63 -153v-62c-1 -28 -1 -55 -1 -64c0 -25 0 -50 1 -74c1 -46 3 -90 6 -134h-36zM394 269c-13 0 -41 1 -56 1c-46 0 -107 -2 -157 -19c-51 -17 -90 -51 -90 -115c0 -40 17 -69 42 -88s60 -27 96 -27c78 0 120 36 141 80s24 96 24 131v37zM386 705
c-11 -36 -33 -68 -75 -68c-32 0 -66 21 -95 21c-25 0 -36 -6 -47 -29h-29c9 39 37 64 79 64c31 0 60 -20 91 -20c24 0 36 9 47 32h29z" />
    <glyph glyph-name="aring" unicode="&#xe5;" horiz-adv-x="518" 
d="M404 0l-5 104c-29 -82 -99 -115 -175 -115c-42 0 -85 9 -117 32c-33 23 -56 59 -56 114c0 71 37 112 89 136c51 24 117 30 177 30c27 0 56 0 77 -1v38c0 91 -37 142 -136 142c-68 0 -119 -23 -128 -101h-39c1 48 22 80 53 103c31 22 71 31 114 31c48 0 86 -9 113 -26
c50 -31 63 -85 63 -153v-62c-1 -28 -1 -55 -1 -64c0 -25 0 -50 1 -74c1 -46 3 -90 6 -134h-36zM394 269c-13 0 -41 1 -56 1c-46 0 -107 -2 -157 -19c-51 -17 -90 -51 -90 -115c0 -40 17 -69 42 -88s60 -27 96 -27c78 0 120 36 141 80s24 96 24 131v37zM178 658
c0 48 37 85 85 85s86 -37 86 -85s-38 -85 -86 -85s-85 37 -85 85zM205 658c0 -35 23 -61 58 -61s58 26 58 61c0 36 -23 62 -58 62s-58 -26 -58 -62z" />
    <glyph glyph-name="ccedilla" unicode="&#xe7;" horiz-adv-x="502" 
d="M468 157c-4 -48 -24 -89 -56 -119c-33 -31 -80 -49 -136 -49h-4l-11 -41c11 0 18 0 27 -1c34 -3 66 -15 66 -59c0 -27 -12 -43 -29 -54c-17 -10 -41 -13 -62 -13c-35 0 -63 8 -97 23l7 22c31 -15 53 -24 92 -24c40 0 52 23 52 43c0 32 -27 40 -56 40c-11 0 -20 -1 -29 -2
l20 67c-68 5 -119 35 -153 81c-35 46 -52 106 -52 176c0 74 18 140 57 190s97 80 177 80c107 0 178 -60 186 -165h-39c-8 84 -63 131 -147 131c-70 0 -117 -27 -148 -70c-31 -44 -44 -102 -44 -164c0 -59 15 -115 46 -157c31 -43 78 -70 142 -70c51 0 88 19 113 46
c24 27 37 60 40 89h38z" />
    <glyph glyph-name="eacute" unicode="&#xe9;" horiz-adv-x="509" 
d="M88 250v-15c0 -56 15 -109 44 -148c29 -40 75 -66 135 -66c88 0 134 47 154 137h39c-23 -110 -83 -169 -197 -169c-76 0 -130 29 -165 76c-36 47 -51 111 -51 179c0 70 16 137 52 187s91 82 169 82s126 -34 155 -82s40 -109 40 -167v-14h-375zM422 294
c-1 48 -13 94 -38 129s-63 57 -118 57c-59 0 -100 -23 -128 -61c-29 -38 -45 -86 -49 -137h333v12zM245 593h-30l90 143h54z" />
    <glyph glyph-name="egrave" unicode="&#xe8;" horiz-adv-x="509" 
d="M88 250v-15c0 -56 15 -109 44 -148c29 -40 75 -66 135 -66c88 0 134 47 154 137h39c-23 -110 -83 -169 -197 -169c-76 0 -130 29 -165 76c-36 47 -51 111 -51 179c0 70 16 137 52 187s91 82 169 82s126 -34 155 -82s40 -109 40 -167v-14h-375zM422 294
c-1 48 -13 94 -38 129s-63 57 -118 57c-59 0 -100 -23 -128 -61c-29 -38 -45 -86 -49 -137h333v12zM288 593l-113 143h53l90 -143h-30z" />
    <glyph glyph-name="ecircumflex" unicode="&#xea;" horiz-adv-x="509" 
d="M88 250v-15c0 -56 15 -109 44 -148c29 -40 75 -66 135 -66c88 0 134 47 154 137h39c-23 -110 -83 -169 -197 -169c-76 0 -130 29 -165 76c-36 47 -51 111 -51 179c0 70 16 137 52 187s91 82 169 82s126 -34 155 -82s40 -109 40 -167v-14h-375zM422 294
c-1 48 -13 94 -38 129s-63 57 -118 57c-59 0 -100 -23 -128 -61c-29 -38 -45 -86 -49 -137h333v12zM360 593l-92 114l-96 -114h-31l102 144h50l98 -144h-31z" />
    <glyph glyph-name="edieresis" unicode="&#xeb;" horiz-adv-x="509" 
d="M88 250v-15c0 -56 15 -109 44 -148c29 -40 75 -66 135 -66c88 0 134 47 154 137h39c-23 -110 -83 -169 -197 -169c-76 0 -130 29 -165 76c-36 47 -51 111 -51 179c0 70 16 137 52 187s91 82 169 82s126 -34 155 -82s40 -109 40 -167v-14h-375zM422 294
c-1 48 -13 94 -38 129s-63 57 -118 57c-59 0 -100 -23 -128 -61c-29 -38 -45 -86 -49 -137h333v12zM320 657v65h46v-65h-46zM166 657v65h46v-65h-46z" />
    <glyph glyph-name="iacute" unicode="&#xed;" horiz-adv-x="216" 
d="M88 0v506h40v-506h-40zM88 593h-30l90 143h54z" />
    <glyph glyph-name="igrave" unicode="&#xec;" horiz-adv-x="216" 
d="M88 0v506h40v-506h-40zM131 593l-113 143h53l90 -143h-30z" />
    <glyph glyph-name="icircumflex" unicode="&#xee;" horiz-adv-x="216" 
d="M88 0v506h40v-506h-40zM202 593l-92 114l-96 -114h-31l102 144h50l98 -144h-31z" />
    <glyph glyph-name="idieresis" unicode="&#xef;" horiz-adv-x="216" 
d="M88 0v506h40v-506h-40zM162 657v65h46v-65h-46zM8 657v65h46v-65h-46z" />
    <glyph glyph-name="ntilde" unicode="&#xf1;" horiz-adv-x="553" 
d="M429 0v291c0 50 -3 95 -22 130c-20 34 -53 54 -113 54c-46 0 -81 -15 -108 -40s-44 -60 -52 -102c-5 -23 -6 -46 -6 -70v-263h-40v361c0 48 1 97 -2 145h39c0 -9 1 -33 1 -57s1 -48 1 -57c31 76 92 119 170 119c118 0 172 -61 172 -196v-315h-40zM402 705
c-11 -36 -33 -68 -75 -68c-32 0 -66 21 -95 21c-25 0 -36 -6 -47 -29h-29c9 39 37 64 79 64c31 0 60 -20 91 -20c24 0 36 9 47 32h29z" />
    <glyph glyph-name="oacute" unicode="&#xf3;" 
d="M501 257c0 -68 -19 -135 -57 -185c-39 -51 -94 -83 -169 -83c-79 0 -134 31 -172 81c-39 50 -56 116 -56 187s19 134 58 181c38 47 94 76 170 76c78 0 133 -28 171 -74c38 -47 55 -111 55 -183zM459 256c0 59 -14 114 -44 156c-31 42 -76 68 -140 68s-110 -26 -141 -68
s-45 -97 -45 -156s14 -117 45 -161c30 -44 77 -73 141 -73c63 0 109 30 140 74c30 44 44 102 44 160zM255 593h-30l90 143h54z" />
    <glyph glyph-name="ograve" unicode="&#xf2;" 
d="M501 257c0 -68 -19 -135 -57 -185c-39 -51 -94 -83 -169 -83c-79 0 -134 31 -172 81c-39 50 -56 116 -56 187s19 134 58 181c38 47 94 76 170 76c78 0 133 -28 171 -74c38 -47 55 -111 55 -183zM459 256c0 59 -14 114 -44 156c-31 42 -76 68 -140 68s-110 -26 -141 -68
s-45 -97 -45 -156s14 -117 45 -161c30 -44 77 -73 141 -73c63 0 109 30 140 74c30 44 44 102 44 160zM298 593l-113 143h53l90 -143h-30z" />
    <glyph glyph-name="ocircumflex" unicode="&#xf4;" 
d="M501 257c0 -68 -19 -135 -57 -185c-39 -51 -94 -83 -169 -83c-79 0 -134 31 -172 81c-39 50 -56 116 -56 187s19 134 58 181c38 47 94 76 170 76c78 0 133 -28 171 -74c38 -47 55 -111 55 -183zM459 256c0 59 -14 114 -44 156c-31 42 -76 68 -140 68s-110 -26 -141 -68
s-45 -97 -45 -156s14 -117 45 -161c30 -44 77 -73 141 -73c63 0 109 30 140 74c30 44 44 102 44 160zM370 593l-92 114l-96 -114h-31l102 144h50l98 -144h-31z" />
    <glyph glyph-name="odieresis" unicode="&#xf6;" 
d="M501 257c0 -68 -19 -135 -57 -185c-39 -51 -94 -83 -169 -83c-79 0 -134 31 -172 81c-39 50 -56 116 -56 187s19 134 58 181c38 47 94 76 170 76c78 0 133 -28 171 -74c38 -47 55 -111 55 -183zM459 256c0 59 -14 114 -44 156c-31 42 -76 68 -140 68s-110 -26 -141 -68
s-45 -97 -45 -156s14 -117 45 -161c30 -44 77 -73 141 -73c63 0 109 30 140 74c30 44 44 102 44 160zM330 657v65h46v-65h-46zM176 657v65h46v-65h-46z" />
    <glyph glyph-name="otilde" unicode="&#xf5;" 
d="M501 257c0 -68 -19 -135 -57 -185c-39 -51 -94 -83 -169 -83c-79 0 -134 31 -172 81c-39 50 -56 116 -56 187s19 134 58 181c38 47 94 76 170 76c78 0 133 -28 171 -74c38 -47 55 -111 55 -183zM459 256c0 59 -14 114 -44 156c-31 42 -76 68 -140 68s-110 -26 -141 -68
s-45 -97 -45 -156s14 -117 45 -161c30 -44 77 -73 141 -73c63 0 109 30 140 74c30 44 44 102 44 160zM399 705c-11 -36 -33 -68 -75 -68c-32 0 -66 21 -95 21c-25 0 -36 -6 -47 -29h-29c9 39 37 64 79 64c31 0 60 -20 91 -20c24 0 36 9 47 32h29z" />
    <glyph glyph-name="uacute" unicode="&#xfa;" horiz-adv-x="552" 
d="M427 0c0 9 -1 33 -1 57s-1 48 -1 57c-31 -76 -92 -120 -170 -120c-111 0 -171 62 -171 196v316h40v-291c0 -47 5 -93 24 -128s52 -57 110 -57c91 0 143 59 160 142c5 23 6 46 6 70v264h40v-361c0 -43 0 -94 3 -145h-40zM255 593h-30l90 143h54z" />
    <glyph glyph-name="ugrave" unicode="&#xf9;" horiz-adv-x="552" 
d="M427 0c0 9 -1 33 -1 57s-1 48 -1 57c-31 -76 -92 -120 -170 -120c-111 0 -171 62 -171 196v316h40v-291c0 -47 5 -93 24 -128s52 -57 110 -57c91 0 143 59 160 142c5 23 6 46 6 70v264h40v-361c0 -43 0 -94 3 -145h-40zM298 593l-113 143h53l90 -143h-30z" />
    <glyph glyph-name="ucircumflex" unicode="&#xfb;" horiz-adv-x="552" 
d="M427 0c0 9 -1 33 -1 57s-1 48 -1 57c-31 -76 -92 -120 -170 -120c-111 0 -171 62 -171 196v316h40v-291c0 -47 5 -93 24 -128s52 -57 110 -57c91 0 143 59 160 142c5 23 6 46 6 70v264h40v-361c0 -43 0 -94 3 -145h-40zM370 593l-92 114l-96 -114h-31l102 144h50l98 -144
h-31z" />
    <glyph glyph-name="udieresis" unicode="&#xfc;" horiz-adv-x="552" 
d="M427 0c0 9 -1 33 -1 57s-1 48 -1 57c-31 -76 -92 -120 -170 -120c-111 0 -171 62 -171 196v316h40v-291c0 -47 5 -93 24 -128s52 -57 110 -57c91 0 143 59 160 142c5 23 6 46 6 70v264h40v-361c0 -43 0 -94 3 -145h-40zM330 657v65h46v-65h-46zM176 657v65h46v-65h-46z
" />
    <glyph glyph-name="dagger" unicode="&#x2020;" horiz-adv-x="555" 
d="M297 499v-499h-37v499h-178v33h178v190h37v-190h175v-33h-175z" />
    <glyph glyph-name="degree" unicode="&#xb0;" horiz-adv-x="360" 
d="M327 591c0 -40 -15 -74 -41 -100c-27 -27 -62 -42 -102 -42s-75 15 -101 42c-27 26 -42 60 -42 100s15 75 42 102c26 26 61 41 101 41s75 -15 102 -41c26 -27 41 -62 41 -102zM292 591c0 32 -12 59 -31 79c-20 20 -46 32 -77 32s-57 -12 -76 -32c-20 -20 -32 -47 -32 -79
s12 -59 32 -79c19 -20 45 -32 76 -32s57 12 77 32c19 20 31 47 31 79z" />
    <glyph glyph-name="cent" unicode="&#xa2;" 
d="M478 157c-4 -48 -24 -89 -56 -119c-33 -31 -80 -49 -136 -49c-21 0 -40 3 -59 7l-26 -93l-30 6l27 95c-48 17 -84 52 -107 95s-34 94 -34 148c0 74 18 140 57 190s97 80 177 80c17 0 34 -2 50 -5l27 94l30 -5l-28 -97c66 -25 99 -80 106 -152h-39c-6 60 -32 99 -78 118
l-122 -441c16 -4 31 -7 50 -7c51 0 88 19 113 46c24 27 37 60 40 89h38zM333 479c-11 3 -25 4 -42 4c-70 0 -117 -27 -148 -70c-31 -44 -44 -102 -44 -164c0 -46 9 -89 26 -125c17 -37 44 -68 82 -85z" />
    <glyph glyph-name="sterling" unicode="&#xa3;" 
d="M489 587c-3 38 -18 65 -42 84c-24 18 -56 27 -91 27c-75 0 -115 -27 -138 -70c-24 -43 -28 -100 -28 -160v-32h169v-36h-169v-361h323v-39h-421v39h55v361h-68v36h68v66c0 149 63 232 209 232c48 0 91 -11 123 -35s51 -61 54 -112h-44z" />
    <glyph glyph-name="section" unicode="&#xa7;" horiz-adv-x="554" 
d="M432 142c0 -51 -22 -87 -56 -111c-35 -24 -79 -36 -125 -36c-47 0 -76 7 -119 24v36c43 -19 67 -24 114 -24c32 0 67 8 95 25s47 44 47 83c0 44 -29 68 -68 87c-40 18 -89 29 -128 48c-40 18 -69 41 -69 85c0 34 14 57 34 76s46 33 73 45c-54 24 -96 61 -96 124
c0 46 20 79 49 100s70 31 110 31c35 0 69 -7 104 -16v-37c-35 11 -67 17 -102 17c-28 0 -57 -7 -80 -22s-38 -37 -38 -71c0 -40 27 -64 64 -83c36 -20 81 -35 118 -54c36 -19 63 -42 63 -81c0 -31 -15 -54 -37 -73c-23 -20 -50 -34 -73 -42c32 -12 61 -26 84 -46
c22 -21 36 -47 36 -85zM379 381c0 24 -20 43 -44 56s-52 22 -71 30c-20 -8 -45 -20 -65 -36c-20 -17 -34 -39 -34 -64s16 -42 39 -54c22 -13 47 -21 67 -29c20 7 46 19 69 35c22 16 39 37 39 62z" />
    <glyph glyph-name="bullet" unicode="&#x2022;" horiz-adv-x="517" 
d="M439 362c0 -50 -20 -95 -52 -127c-33 -33 -78 -54 -128 -54c-51 0 -94 20 -128 53c-33 34 -53 77 -53 128c0 50 21 95 54 128c32 32 77 52 127 52s95 -20 128 -52c32 -33 52 -78 52 -128z" />
    <glyph glyph-name="paragraph" unicode="&#xb6;" horiz-adv-x="592" 
d="M442 0v688h-133v-688h-41v319c-133 4 -210 66 -210 193c0 74 26 126 72 161c46 34 106 50 177 50h177v-723h-42z" />
    <glyph glyph-name="germandbls" unicode="&#xdf;" horiz-adv-x="577" 
d="M544 149c0 -48 -18 -87 -48 -114c-31 -27 -72 -41 -119 -41c-88 0 -145 59 -146 146h40c0 -68 41 -112 109 -112c32 0 62 10 85 30s38 49 38 87c0 44 -25 72 -57 95c-33 23 -74 39 -106 62c-33 23 -58 49 -58 93c0 38 30 69 61 100c30 31 60 59 60 94c0 36 -16 63 -39 80
s-54 26 -83 26c-68 0 -124 -36 -143 -102c-5 -20 -8 -44 -8 -68c-1 -24 -1 -48 -1 -65v-460h-40v455c0 46 -2 98 10 146c9 42 34 72 66 95c32 22 73 33 116 33s82 -12 113 -35c30 -24 48 -58 48 -105c0 -44 -30 -76 -60 -105c-31 -29 -60 -55 -60 -89c0 -32 25 -53 58 -72
c32 -20 74 -37 107 -63c32 -27 57 -60 57 -111z" />
    <glyph glyph-name="registered" unicode="&#xae;" horiz-adv-x="389" 
d="M378 540c0 -51 -21 -95 -53 -129c-33 -35 -79 -55 -130 -55c-52 0 -98 22 -130 55c-33 34 -53 79 -53 130s21 97 54 130c34 32 78 52 129 52c50 0 96 -19 129 -53c34 -33 54 -78 54 -130zM355 540c0 44 -18 85 -46 114c-29 28 -70 47 -114 47c-43 0 -83 -18 -112 -47
s-48 -68 -48 -114c0 -44 18 -85 47 -114c28 -29 67 -48 113 -48c44 0 85 19 114 48c28 29 46 70 46 114zM253 444c-5 11 -6 22 -6 34c0 35 -13 47 -52 47h-44v-81h-25v194h71c50 0 80 -14 80 -56c0 -23 -12 -38 -35 -47c27 -11 31 -29 31 -58c0 -13 0 -24 7 -33h-27z
M251 582c0 21 -12 33 -47 33h-53v-69h46c31 0 54 8 54 36z" />
    <glyph glyph-name="copyright" unicode="&#xa9;" horiz-adv-x="844" 
d="M795 362c0 -107 -40 -199 -107 -266s-159 -107 -266 -107s-199 40 -265 107c-67 67 -107 159 -107 266c0 106 40 198 107 265c66 67 158 106 265 106s199 -39 266 -106s107 -159 107 -265zM762 362c0 98 -37 184 -97 245c-61 60 -145 97 -243 97s-182 -37 -242 -97
c-61 -61 -97 -147 -97 -245c0 -99 36 -183 97 -245c60 -62 144 -98 242 -98s182 36 243 98c60 62 97 146 97 245zM579 259c-16 -68 -76 -107 -148 -107c-62 0 -105 21 -133 59s-41 88 -41 148c0 58 13 110 44 150c30 39 73 63 136 63c32 0 65 -9 90 -26s44 -43 49 -78h-40
c-15 51 -49 71 -99 71s-83 -22 -106 -54c-23 -33 -33 -79 -33 -127c0 -51 9 -93 32 -124c22 -32 55 -50 103 -50c47 0 89 21 105 75h41z" />
    <glyph glyph-name="trademark" unicode="&#x2122;" horiz-adv-x="948" 
d="M766 358v324l-128 -324h-28l-129 324v-324h-35v359h53l125 -311l126 311h51v-359h-35zM255 687v-329h-35v329h-132v30h297v-30h-130z" />
    <glyph glyph-name="acute" unicode="&#xb4;" horiz-adv-x="250" 
d="M104 593h-30l90 143h54z" />
    <glyph glyph-name="dieresis" unicode="&#xa8;" horiz-adv-x="250" 
d="M179 657v65h46v-65h-46zM25 657v65h46v-65h-46z" />
    <glyph glyph-name="notequal" unicode="&#x2260;" horiz-adv-x="633" 
d="M276 130l-76 -141l-32 18l66 123h-163v38h183l78 147h-261v38h282l76 144l34 -18l-68 -126h168v-38h-188l-78 -147h266v-38h-287z" />
    <glyph glyph-name="AE" unicode="&#xc6;" horiz-adv-x="969" 
d="M577 0l-38 209h-374l-125 -209h-47l434 723h479v-39h-407l52 -289h340v-38h-334l57 -318h307v-39h-344zM533 245c-4 20 -12 69 -23 128s-22 126 -33 185s-19 106 -23 126c-12 -17 -42 -67 -78 -127s-78 -130 -114 -189c-36 -60 -65 -108 -74 -123h345z" />
    <glyph glyph-name="Oslash" unicode="&#xd8;" horiz-adv-x="733" 
d="M565 609c-42 55 -104 88 -196 88c-96 0 -162 -40 -205 -102c-44 -63 -62 -145 -62 -231c0 -79 17 -158 56 -222zM177 115c43 -55 104 -89 192 -89c95 0 160 43 203 107c42 64 60 148 60 231c0 82 -13 158 -48 218zM614 617c44 -66 63 -152 63 -250
c0 -99 -22 -192 -72 -262c-51 -71 -127 -116 -237 -116c-98 0 -169 35 -220 93l-78 -89l-24 21l81 93c-50 70 -71 161 -71 257c0 99 24 191 75 259s129 111 238 111c105 0 175 -33 225 -91l79 90l24 -21z" />
    <glyph glyph-name="infinity" unicode="&#x221e;" horiz-adv-x="726" 
d="M693 245c0 -38 -15 -72 -40 -96c-25 -25 -60 -41 -102 -41c-29 0 -55 9 -83 28s-57 45 -95 83c-28 -28 -56 -56 -87 -76c-31 -21 -63 -35 -98 -35c-39 0 -72 14 -96 38s-38 59 -38 99c0 38 15 71 40 96s61 41 101 41c62 0 110 -39 178 -111c28 28 56 56 88 77
c31 20 63 34 98 34c39 0 72 -14 96 -38c24 -25 38 -59 38 -99zM654 245c0 60 -39 101 -98 101c-29 0 -57 -13 -84 -32c-27 -20 -51 -45 -74 -69c68 -70 105 -102 153 -102c29 0 55 11 74 30s29 44 29 72zM192 143c55 0 104 46 156 102c-36 36 -62 61 -85 78
c-23 16 -44 23 -68 23c-60 0 -101 -45 -101 -101c0 -60 39 -102 98 -102z" />
    <glyph glyph-name="plusminus" unicode="&#xb1;" horiz-adv-x="633" 
d="M337 270v-186h-41v186h-225v38h225v186h41v-186h226v-38h-226zM71 0v38h492v-38h-492z" />
    <glyph glyph-name="lessequal" unicode="&#x2264;" horiz-adv-x="633" 
d="M71 277v41l492 198v-41l-441 -177l441 -176v-42zM71 0v38h492v-38h-492z" />
    <glyph glyph-name="greaterequal" unicode="&#x2265;" horiz-adv-x="633" 
d="M71 80v42l440 176l-440 177v41l492 -198v-41zM71 0v38h492v-38h-492z" />
    <glyph glyph-name="yen" unicode="&#xa5;" 
d="M309 336h174v-32h-189v-90h189v-32h-189v-182h-40v182h-188v32h188v90h-188v32h174l-232 387h49l219 -372l219 372h44z" />
    <glyph glyph-name="mu" unicode="&#xb5;" horiz-adv-x="549" 
d="M433 0v101c-21 -62 -78 -107 -156 -107c-64 0 -115 25 -146 85v-269h-40v695h40v-290c0 -55 10 -101 34 -133c23 -33 59 -52 110 -52c54 0 93 20 118 55s38 84 38 143v277h41v-354c0 -40 1 -97 2 -151h-41z" />
    <glyph glyph-name="partialdiff" unicode="&#x2202;" horiz-adv-x="532" 
d="M473 362c0 -125 -27 -217 -70 -279c-44 -63 -104 -94 -171 -94c-63 0 -108 24 -139 62s-46 88 -46 140c0 70 23 126 62 168c38 42 90 65 149 65c78 0 135 -38 173 -96c1 12 1 24 1 36c0 78 -17 161 -49 225c-33 64 -83 108 -150 108c-51 0 -90 -16 -134 -44l-16 33
c46 29 94 47 153 47c82 0 140 -50 180 -121c39 -72 57 -164 57 -250zM234 25c46 0 89 19 124 62c35 42 59 106 70 194c-33 60 -92 107 -164 107c-47 0 -90 -19 -122 -54s-52 -83 -52 -143c0 -47 14 -87 39 -117c24 -31 59 -49 105 -49z" />
    <glyph glyph-name="summation" unicode="&#x2211;" horiz-adv-x="593" 
d="M41 -203v35l330 458l-316 459v36h500v-38h-449l316 -457l-330 -456h473v-37h-524z" />
    <glyph glyph-name="product" unicode="&#x220f;" horiz-adv-x="709" 
d="M586 -203v950h-455v-950h-41v988h537v-988h-41z" />
    <glyph glyph-name="pi" unicode="&#x3c0;" horiz-adv-x="561" 
d="M549 10c-19 -9 -37 -15 -56 -15c-51 0 -71 28 -71 92v382h-272v-469h-41v469h-75v36h509v-36h-80v-383c0 -42 12 -56 40 -56c16 0 33 6 46 13v-33z" />
    <glyph glyph-name="integral" unicode="&#x222b;" horiz-adv-x="420" 
d="M242 -7c0 -138 -37 -195 -117 -195c-18 0 -33 2 -44 7l7 32c10 -3 21 -5 32 -5c60 0 79 47 79 161v595c0 138 35 195 117 195c16 0 34 -3 43 -7l-7 -32c-8 3 -22 5 -31 5c-60 0 -79 -47 -79 -161v-595z" />
    <glyph glyph-name="ordfeminine" unicode="&#xaa;" horiz-adv-x="303" 
d="M227 432c0 15 -1 31 -2 46c-25 -35 -55 -52 -99 -52c-27 0 -51 7 -70 23c-19 15 -31 36 -31 64c0 44 24 70 62 83s85 16 133 15v16c0 58 -20 80 -76 80c-40 0 -67 -13 -74 -56h-33c11 59 48 83 107 83c72 0 111 -27 110 -107c-1 -33 -2 -66 -2 -98c0 -33 3 -65 6 -97h-31
zM220 585c-27 0 -66 -1 -101 -10s-62 -27 -62 -62c0 -39 36 -59 71 -59s57 12 72 32s20 47 20 75v24z" />
    <glyph glyph-name="ordmasculine" unicode="&#xba;" horiz-adv-x="336" 
d="M306 580c0 -44 -10 -83 -33 -111c-23 -29 -57 -46 -105 -46c-46 0 -80 17 -103 45s-35 66 -35 109c0 44 11 83 34 112c23 28 57 45 104 45c46 0 80 -17 103 -45s35 -66 35 -109zM273 581c0 34 -9 64 -26 87s-44 37 -80 37s-62 -14 -79 -37s-25 -53 -25 -87
c0 -32 9 -65 26 -89c16 -24 43 -40 79 -40s63 16 80 40c16 24 25 57 25 89z" />
    <glyph glyph-name="Omega" unicode="&#x2126;" horiz-adv-x="735" 
d="M631 376c0 95 -23 176 -67 233c-45 56 -111 89 -197 89c-83 0 -148 -32 -192 -90c-45 -58 -70 -137 -70 -232c0 -150 65 -256 174 -339v-37h-226v37h179c-105 71 -173 179 -173 341c0 106 30 194 84 257s130 99 224 99c96 0 172 -34 227 -94c54 -61 83 -149 83 -262
c0 -162 -68 -270 -173 -341h179v-37h-226v37c109 83 174 189 174 339z" />
    <glyph glyph-name="ae" unicode="&#xe6;" horiz-adv-x="818" 
d="M420 249v-17c1 -51 11 -102 35 -141s61 -65 120 -65c38 0 71 13 98 36c26 23 42 54 46 93h43c-7 -48 -25 -90 -56 -119c-32 -29 -75 -47 -129 -47c-40 0 -78 11 -109 35c-32 23 -56 60 -65 112c-9 -54 -33 -90 -65 -113c-32 -24 -72 -34 -112 -34c-43 0 -86 11 -120 35
c-33 24 -55 60 -55 108c0 44 14 82 49 110c34 27 88 42 171 42h108v14c0 47 -4 93 -23 126c-19 34 -52 55 -110 55c-70 0 -115 -29 -132 -100h-40c5 46 25 78 56 101c30 22 69 33 113 33c39 0 76 -7 105 -27c29 -21 50 -54 57 -106c21 91 93 134 173 134
c72 0 120 -30 151 -74c31 -45 43 -107 43 -171v-20h-352zM379 220c0 8 1 21 0 29h-115c-48 0 -91 -6 -122 -24c-31 -19 -49 -47 -49 -91c0 -38 17 -65 42 -83c24 -19 57 -28 89 -28c60 0 99 22 123 58c23 35 32 84 32 139zM731 284c-1 50 -10 98 -34 134s-61 60 -119 60
c-64 0 -102 -29 -125 -68s-30 -87 -33 -126h311z" />
    <glyph glyph-name="oslash" unicode="&#xf8;" 
d="M411 417c-31 39 -74 63 -136 63c-64 0 -110 -26 -141 -68s-45 -97 -45 -156c0 -51 10 -99 33 -141zM138 90c31 -42 75 -68 137 -68c63 0 109 30 140 74c30 44 44 102 44 160c0 51 -9 98 -32 137zM457 424c31 -46 44 -103 44 -167c0 -68 -19 -135 -57 -185
c-39 -51 -94 -83 -169 -83c-74 0 -127 27 -165 71l-63 -66l-21 20l67 70c-31 48 -46 107 -46 173c0 71 19 134 58 181c38 47 94 76 170 76c74 0 126 -24 164 -67l65 68l20 -20z" />
    <glyph glyph-name="questiondown" unicode="&#xbf;" horiz-adv-x="508" 
d="M282 454v65h51v-65h-51zM396 -204c-31 -7 -61 -10 -93 -10c-58 0 -109 12 -145 40c-37 28 -60 71 -60 134c0 52 25 96 58 136c32 40 74 76 107 109c20 20 26 42 26 71v82h38v-74c0 -27 3 -50 -16 -81c-17 -29 -60 -61 -98 -100c-39 -40 -73 -84 -73 -142
c0 -48 17 -82 46 -106c28 -23 67 -34 111 -34c36 0 64 5 99 14v-39z" />
    <glyph glyph-name="exclamdown" unicode="&#xa1;" horiz-adv-x="332" 
d="M141 -205l7 562h36l7 -562h-50zM140 453v65h52v-65h-52z" />
    <glyph glyph-name="logicalnot" unicode="&#xac;" horiz-adv-x="633" 
d="M523 130v185h-452v38h492v-223h-40z" />
    <glyph glyph-name="radical" unicode="&#x221a;" horiz-adv-x="522" 
d="M291 -203h-43l-148 377l-49 -19l-12 28l86 35l141 -364l230 931h43z" />
    <glyph glyph-name="florin" unicode="&#x192;" 
d="M453 690c-15 3 -31 7 -47 7c-35 0 -54 -23 -66 -53c-12 -31 -17 -67 -22 -94c0 -1 -5 -24 -9 -47c-4 -24 -8 -45 -8 -44h108l-6 -36h-108c-1 -8 -7 -37 -15 -79s-18 -93 -27 -144c-11 -60 -24 -127 -38 -201c-8 -42 -16 -86 -34 -119c-19 -34 -45 -56 -91 -56
c-11 0 -24 2 -39 5l8 37c8 -2 17 -3 27 -3c32 0 50 18 62 42c11 24 16 53 20 77l83 441h-94l7 36h93c-1 -4 1 6 4 22s7 37 10 54s6 31 6 31c7 39 15 81 34 113c18 32 44 55 88 55c21 0 39 -3 60 -7z" />
    <glyph glyph-name="approxequal" unicode="&#x2248;" horiz-adv-x="633" 
d="M569 387c-4 -31 -15 -61 -33 -83c-19 -23 -46 -37 -82 -37c-39 0 -83 17 -138 38c-51 20 -100 40 -135 40c-52 0 -77 -37 -85 -84h-31c5 31 15 61 34 84c18 22 44 36 82 36s82 -17 137 -38c51 -20 102 -39 135 -39c54 0 75 36 86 83h30zM569 222c-4 -31 -15 -61 -33 -83
c-19 -23 -46 -37 -82 -37c-39 0 -83 17 -138 38c-51 20 -100 40 -135 40c-52 0 -77 -37 -85 -84h-31c5 31 15 61 34 84c18 22 44 36 82 36s82 -17 137 -38c51 -20 102 -39 135 -39c54 0 75 36 86 83h30z" />
    <glyph glyph-name="Delta" unicode="&#x2206;" horiz-adv-x="621" 
d="M4 0l294 723h41l299 -723h-634zM319 674l-254 -637h511z" />
    <glyph glyph-name="guillemotleft" unicode="&#xab;" horiz-adv-x="448" 
d="M337 66l-98 196l98 193h35l-91 -196l91 -193h-35zM173 66l-97 196l97 193h35l-90 -196l91 -193h-36z" />
    <glyph glyph-name="guillemotright" unicode="&#xbb;" horiz-adv-x="448" 
d="M276 66h-36l91 195l-92 194h37l96 -196zM111 66h-35l91 195l-91 194h35l98 -196z" />
    <glyph glyph-name="ellipsis" unicode="&#x2026;" horiz-adv-x="1007" 
d="M811 0v65h51v-65h-51zM478 0v65h51v-65h-51zM145 0v65h51v-65h-51z" />
    <glyph glyph-name="Agrave" unicode="&#xc0;" horiz-adv-x="659" 
d="M604 0l-90 215h-377l-85 -215h-46l295 723h42l310 -723h-49zM321 676l-170 -424h346zM342 778l-113 143h53l90 -143h-30z" />
    <glyph glyph-name="Atilde" unicode="&#xc3;" horiz-adv-x="659" 
d="M604 0l-90 215h-377l-85 -215h-46l295 723h42l310 -723h-49zM321 676l-170 -424h346zM445 890c-11 -36 -33 -68 -75 -68c-32 0 -66 21 -95 21c-25 0 -36 -6 -47 -29h-29c9 39 37 64 79 64c31 0 60 -20 91 -20c24 0 36 9 47 32h29z" />
    <glyph glyph-name="Otilde" unicode="&#xd5;" horiz-adv-x="733" 
d="M677 367c0 -99 -22 -192 -72 -262c-51 -71 -127 -116 -237 -116c-109 0 -186 44 -237 114c-52 70 -75 162 -75 261s24 191 75 259s129 111 238 111c113 0 188 -40 238 -107s70 -158 70 -260zM632 364c0 88 -17 172 -57 233c-41 60 -107 100 -206 100
c-96 0 -162 -40 -205 -102c-44 -63 -62 -145 -62 -231c0 -83 18 -167 62 -231c43 -64 109 -107 205 -107c95 0 160 43 203 107c42 64 60 148 60 231zM493 890c-11 -36 -33 -68 -75 -68c-32 0 -66 21 -95 21c-25 0 -36 -6 -47 -29h-29c9 39 37 64 79 64c31 0 60 -20 91 -20
c24 0 36 9 47 32h29z" />
    <glyph glyph-name="OE" unicode="&#x152;" horiz-adv-x="972" 
d="M657 0c-43 0 -84 -1 -125 -3c-35 -3 -70 -5 -105 -5c-118 0 -203 26 -263 77c-70 59 -107 151 -107 288c0 153 50 257 142 317c51 32 124 56 216 56c36 0 69 -1 105 -4c34 -2 68 -3 102 -3h287v-39h-341v-289h327v-38h-327v-318h356v-39h-267zM526 684
c-35 4 -68 7 -103 7c-209 0 -322 -109 -322 -333c0 -220 100 -328 320 -328c35 0 72 1 105 8v646z" />
    <glyph glyph-name="oe" unicode="&#x153;" horiz-adv-x="865" 
d="M467 249c0 -7 0 -22 1 -38c4 -50 16 -95 41 -129c25 -33 64 -54 123 -54c64 0 108 44 127 104c5 15 1 9 4 20h43c-5 -44 -23 -84 -53 -113c-31 -29 -72 -48 -120 -48c-71 0 -116 25 -144 57c-29 31 -41 68 -44 95c-7 -28 -19 -65 -46 -96c-28 -31 -71 -54 -139 -54
c-75 0 -128 29 -163 76s-50 110 -50 181c0 87 22 153 61 198c38 44 90 67 150 67c75 0 119 -29 147 -60c27 -32 36 -67 41 -76c5 12 14 45 41 76c26 30 67 56 139 56c70 0 113 -23 142 -57c28 -33 41 -77 46 -116s4 -73 4 -89h-351zM425 246c0 54 -9 112 -35 156
c-27 44 -68 75 -132 75c-63 0 -105 -30 -131 -74c-27 -44 -37 -101 -37 -156c0 -56 11 -110 39 -150c27 -40 68 -67 131 -67c60 0 101 29 128 70c26 40 37 94 37 146zM777 284c0 8 -1 11 -1 19c-7 115 -58 175 -154 175c-54 0 -89 -23 -113 -55s-36 -73 -40 -109
c-1 -9 -2 -21 -2 -30h310z" />
    <glyph glyph-name="endash" unicode="&#x2013;" horiz-adv-x="517" 
d="M8 245v30h500v-30h-500z" />
    <glyph glyph-name="emdash" unicode="&#x2014;" horiz-adv-x="1018" 
d="M138 245v30h741v-30h-741z" />
    <glyph glyph-name="quotedblleft" unicode="&#x201c;" horiz-adv-x="453" 
d="M319 536h-58l72 187h34zM145 536h-59l72 187h35z" />
    <glyph glyph-name="quotedblright" unicode="&#x201d;" horiz-adv-x="453" 
d="M295 536h-34l48 187h58zM121 536h-35l48 187h59z" />
    <glyph glyph-name="quoteleft" unicode="&#x2018;" horiz-adv-x="273" 
d="M144 536h-58l66 187h35z" />
    <glyph glyph-name="quoteright" unicode="&#x2019;" horiz-adv-x="273" 
d="M121 536h-35l44 187h57z" />
    <glyph glyph-name="divide" unicode="&#xf7;" horiz-adv-x="633" 
d="M292 380v73h49v-73h-49zM71 223v38h492v-38h-492zM292 30v73h50v-73h-50z" />
    <glyph glyph-name="lozenge" unicode="&#x25ca;" horiz-adv-x="516" 
d="M284 -30h-38l-193 392l193 391h39l193 -391zM265 706l-166 -344l167 -346l166 346z" />
    <glyph glyph-name="ydieresis" unicode="&#xff;" horiz-adv-x="481" 
d="M189 -190h-42l80 195l-209 501h47l181 -445l176 445h41zM300 657v65h46v-65h-46zM146 657v65h46v-65h-46z" />
    <glyph glyph-name="Ydieresis" unicode="&#x178;" horiz-adv-x="595" 
d="M313 319v-319h-42v320l-281 403h51l253 -366l251 366h48zM345 822v65h46v-65h-46zM191 822v65h46v-65h-46z" />
    <glyph glyph-name="fraction" unicode="&#x2044;" horiz-adv-x="185" 
d="M-110 -24h-40l450 773h38z" />
    <glyph glyph-name="currency" unicode="&#xa4;" 
d="M503 559l-66 -66c29 -36 47 -82 47 -133c0 -52 -18 -98 -47 -134l66 -65l-28 -28l-66 65c-36 -31 -83 -47 -134 -47c-52 0 -96 16 -134 47l-65 -65l-29 28l66 66c-29 36 -46 82 -46 133s17 97 46 132l-66 67l29 28l65 -67c36 31 82 48 134 48c51 0 98 -18 134 -47l66 66z
M442 360c0 48 -18 91 -48 122c-31 31 -72 49 -119 49s-88 -18 -118 -49c-31 -31 -49 -74 -49 -122c0 -50 18 -91 49 -122c30 -31 71 -49 118 -49s88 18 119 49c30 31 48 72 48 122z" />
    <glyph glyph-name="guilsinglleft" unicode="&#x2039;" horiz-adv-x="285" 
d="M174 66l-98 196l98 193h35l-91 -196l91 -193h-35z" />
    <glyph glyph-name="guilsinglright" unicode="&#x203a;" horiz-adv-x="285" 
d="M112 66h-35l90 195l-91 194h36l97 -196z" />
    <glyph glyph-name="daggerdbl" unicode="&#x2021;" horiz-adv-x="555" 
d="M299 184v-184h-42v184h-175v32h175v289h-175v32h175v185h42v-185h171v-32h-171v-289h173v-32h-173z" />
    <glyph glyph-name="periodcentered" unicode="&#xb7;" horiz-adv-x="274" 
d="M110 297v67h54v-67h-54z" />
    <glyph glyph-name="quotesinglbase" unicode="&#x201a;" horiz-adv-x="277" 
d="M121 -121h-35l46 187h59z" />
    <glyph glyph-name="quotedblbase" unicode="&#x201e;" horiz-adv-x="451" 
d="M296 -121h-36l46 187h59zM121 -121h-35l46 187h59z" />
    <glyph glyph-name="perthousand" unicode="&#x2030;" horiz-adv-x="1018" 
d="M978 144c0 -43 -13 -84 -37 -113c-25 -29 -61 -48 -107 -48c-44 0 -80 18 -104 47c-25 28 -39 66 -39 109c0 46 11 86 35 117c24 30 59 47 109 47c47 0 82 -17 106 -45c24 -29 37 -68 37 -114zM326 575c0 -43 -13 -84 -37 -113c-25 -29 -61 -48 -107 -48
c-44 0 -80 18 -104 47c-25 29 -38 67 -38 110c0 46 11 87 35 116s59 47 109 47c47 0 82 -17 106 -45c24 -29 36 -68 36 -114zM137 -22h-40l450 756h39zM631 144c0 -43 -13 -84 -37 -113c-25 -29 -61 -48 -107 -48c-44 0 -80 18 -104 47c-25 28 -38 66 -38 109
c0 46 11 86 35 117c24 30 59 47 109 47c47 0 82 -17 106 -45c24 -29 36 -68 36 -114zM938 146c0 70 -35 122 -103 122c-71 0 -104 -55 -104 -126c0 -70 37 -123 103 -123c71 0 104 55 104 127zM287 577c0 70 -35 122 -103 122c-71 0 -105 -55 -105 -126
c0 -70 37 -123 103 -123c71 0 105 55 105 127zM591 146c0 70 -35 122 -103 122c-71 0 -104 -55 -104 -126c0 -70 37 -123 103 -123c35 0 61 14 78 37s26 54 26 90z" />
    <glyph glyph-name="Acircumflex" unicode="&#xc2;" horiz-adv-x="659" 
d="M604 0l-90 215h-377l-85 -215h-46l295 723h42l310 -723h-49zM321 676l-170 -424h346zM415 777l-92 114l-96 -114h-31l102 144h50l98 -144h-31z" />
    <glyph glyph-name="Ecircumflex" unicode="&#xca;" horiz-adv-x="586" 
d="M108 0v723h415v-37h-373v-289h360v-37h-360v-323h389v-37h-431zM418 777l-92 114l-96 -114h-31l102 144h50l98 -144h-31z" />
    <glyph glyph-name="Aacute" unicode="&#xc1;" horiz-adv-x="659" 
d="M604 0l-90 215h-377l-85 -215h-46l295 723h42l310 -723h-49zM321 676l-170 -424h346zM301 778h-30l90 143h54z" />
    <glyph glyph-name="Edieresis" unicode="&#xcb;" horiz-adv-x="586" 
d="M108 0v723h415v-37h-373v-289h360v-37h-360v-323h389v-37h-431zM378 822v65h46v-65h-46zM224 822v65h46v-65h-46z" />
    <glyph glyph-name="Egrave" unicode="&#xc8;" horiz-adv-x="586" 
d="M108 0v723h415v-37h-373v-289h360v-37h-360v-323h389v-37h-431zM345 778l-113 143h53l90 -143h-30z" />
    <glyph glyph-name="Iacute" unicode="&#xcd;" horiz-adv-x="258" 
d="M108 0v723h42v-723h-42zM108 778h-30l90 143h54z" />
    <glyph glyph-name="Icircumflex" unicode="&#xce;" horiz-adv-x="258" 
d="M108 0v723h42v-723h-42zM222 777l-92 114l-96 -114h-31l102 144h50l98 -144h-31z" />
    <glyph glyph-name="Idieresis" unicode="&#xcf;" horiz-adv-x="258" 
d="M108 0v723h42v-723h-42zM182 822v65h46v-65h-46zM28 822v65h46v-65h-46z" />
    <glyph glyph-name="Igrave" unicode="&#xcc;" horiz-adv-x="258" 
d="M108 0v723h42v-723h-42zM149 778l-113 143h53l90 -143h-30z" />
    <glyph glyph-name="Oacute" unicode="&#xd3;" horiz-adv-x="733" 
d="M677 367c0 -99 -22 -192 -72 -262c-51 -71 -127 -116 -237 -116c-109 0 -186 44 -237 114c-52 70 -75 162 -75 261s24 191 75 259s129 111 238 111c113 0 188 -40 238 -107s70 -158 70 -260zM632 364c0 88 -17 172 -57 233c-41 60 -107 100 -206 100
c-96 0 -162 -40 -205 -102c-44 -63 -62 -145 -62 -231c0 -83 18 -167 62 -231c43 -64 109 -107 205 -107c95 0 160 43 203 107c42 64 60 148 60 231zM349 778h-30l90 143h54z" />
    <glyph glyph-name="Ocircumflex" unicode="&#xd4;" horiz-adv-x="733" 
d="M677 367c0 -99 -22 -192 -72 -262c-51 -71 -127 -116 -237 -116c-109 0 -186 44 -237 114c-52 70 -75 162 -75 261s24 191 75 259s129 111 238 111c113 0 188 -40 238 -107s70 -158 70 -260zM632 364c0 88 -17 172 -57 233c-41 60 -107 100 -206 100
c-96 0 -162 -40 -205 -102c-44 -63 -62 -145 -62 -231c0 -83 18 -167 62 -231c43 -64 109 -107 205 -107c95 0 160 43 203 107c42 64 60 148 60 231zM463 777l-92 114l-96 -114h-31l102 144h50l98 -144h-31z" />
    <glyph glyph-name="Ograve" unicode="&#xd2;" horiz-adv-x="733" 
d="M677 367c0 -99 -22 -192 -72 -262c-51 -71 -127 -116 -237 -116c-109 0 -186 44 -237 114c-52 70 -75 162 -75 261s24 191 75 259s129 111 238 111c113 0 188 -40 238 -107s70 -158 70 -260zM632 364c0 88 -17 172 -57 233c-41 60 -107 100 -206 100
c-96 0 -162 -40 -205 -102c-44 -63 -62 -145 -62 -231c0 -83 18 -167 62 -231c43 -64 109 -107 205 -107c95 0 160 43 203 107c42 64 60 148 60 231zM390 778l-113 143h53l90 -143h-30z" />
    <glyph glyph-name="Uacute" unicode="&#xda;" horiz-adv-x="722" 
d="M628 267c0 -176 -87 -276 -267 -276c-176 0 -267 92 -267 276v456h44v-442c0 -64 6 -123 37 -170c38 -56 102 -83 186 -83c96 0 168 35 201 110c19 42 22 91 22 143v442h44v-456zM342 778h-30l90 143h54z" />
    <glyph glyph-name="Ucircumflex" unicode="&#xdb;" horiz-adv-x="722" 
d="M628 267c0 -176 -87 -276 -267 -276c-176 0 -267 92 -267 276v456h44v-442c0 -64 6 -123 37 -170c38 -56 102 -83 186 -83c96 0 168 35 201 110c19 42 22 91 22 143v442h44v-456zM456 777l-92 114l-96 -114h-31l102 144h50l98 -144h-31z" />
    <glyph glyph-name="Ugrave" unicode="&#xd9;" horiz-adv-x="722" 
d="M628 267c0 -176 -87 -276 -267 -276c-176 0 -267 92 -267 276v456h44v-442c0 -64 6 -123 37 -170c38 -56 102 -83 186 -83c96 0 168 35 201 110c19 42 22 91 22 143v442h44v-456zM383 778l-113 143h53l90 -143h-30z" />
    <glyph glyph-name="dotlessi" unicode="&#x131;" horiz-adv-x="216" 
d="M88 0v506h40v-506h-40z" />
    <glyph glyph-name="circumflex" unicode="&#x2c6;" horiz-adv-x="250" 
d="M219 593l-92 114l-96 -114h-31l102 144h50l98 -144h-31z" />
    <glyph glyph-name="tilde" unicode="&#x2dc;" horiz-adv-x="250" 
d="M248 705c-11 -36 -33 -68 -75 -68c-32 0 -66 21 -95 21c-25 0 -36 -6 -47 -29h-29c9 39 37 64 79 64c31 0 60 -20 91 -20c24 0 36 9 47 32h29z" />
    <glyph glyph-name="macron" unicode="&#xaf;" horiz-adv-x="250" 
d="M14 651v36h222v-36h-222z" />
    <glyph glyph-name="breve" unicode="&#x2d8;" horiz-adv-x="250" 
d="M252 700c-7 -56 -53 -99 -128 -99c-35 0 -65 10 -88 27s-38 41 -39 72h29c4 -21 18 -37 37 -48c18 -12 40 -17 61 -17c44 0 84 18 100 65h28z" />
    <glyph glyph-name="dotaccent" unicode="&#x2d9;" horiz-adv-x="250" 
d="M102 657v65h46v-65h-46z" />
    <glyph glyph-name="ring" unicode="&#x2da;" horiz-adv-x="250" 
d="M40 658c0 48 37 85 85 85s86 -37 86 -85s-38 -85 -86 -85s-85 37 -85 85zM67 658c0 -35 23 -61 58 -61s58 26 58 61c0 36 -23 62 -58 62s-58 -26 -58 -62z" />
    <glyph glyph-name="cedilla" unicode="&#xb8;" horiz-adv-x="250" 
d="M218 -112c0 -27 -12 -43 -29 -54c-17 -10 -41 -13 -62 -13c-35 0 -63 8 -97 23l7 22c31 -15 53 -24 92 -24c40 0 52 23 52 43c0 32 -27 40 -56 40c-11 0 -20 -1 -29 -2l25 81h20l-16 -56c11 0 18 0 27 -1c34 -3 66 -15 66 -59z" />
    <glyph glyph-name="hungarumlaut" unicode="&#x2dd;" horiz-adv-x="250" 
d="M165 593h-32l92 143h55zM39 593h-31l92 143h54z" />
    <glyph glyph-name="ogonek" unicode="&#x2db;" horiz-adv-x="250" 
d="M177 -155c-23 -11 -47 -17 -72 -17c-20 0 -43 4 -59 15c-17 12 -30 28 -30 52c0 27 14 49 37 65c11 8 30 18 47 26c17 9 33 15 37 15h29c-74 -32 -109 -61 -109 -97s34 -51 65 -51c17 0 32 4 48 11z" />
    <glyph glyph-name="caron" unicode="&#x2c7;" horiz-adv-x="250" 
d="M151 593h-53l-98 143h31l94 -115l94 115h31z" />
    <glyph glyph-name="glyph00001" horiz-adv-x="567" 
 />
    <glyph glyph-name="uni000D" unicode="&#xd;" horiz-adv-x="0" 
 />
    <glyph glyph-name="uni00A0" unicode="&#xa0;" horiz-adv-x="274" 
 />
    <glyph glyph-name="Amacron" unicode="&#x100;" horiz-adv-x="659" 
d="M604 0l-90 215h-377l-85 -215h-46l295 723h42l310 -723h-49zM321 676l-170 -424h346zM211 824v36h222v-36h-222z" />
    <glyph glyph-name="Abreve" unicode="&#x102;" horiz-adv-x="659" 
d="M604 0l-90 215h-377l-85 -215h-46l295 723h42l310 -723h-49zM321 676l-170 -424h346zM449 888c-7 -55 -53 -98 -128 -98c-35 0 -65 10 -88 27c-23 16 -38 40 -39 71h29c4 -21 18 -37 37 -48c18 -12 40 -17 61 -17c44 0 84 18 100 65h28z" />
    <glyph glyph-name="Aogonek" unicode="&#x104;" horiz-adv-x="659" 
d="M666 -155c-23 -11 -47 -17 -72 -17c-20 0 -43 4 -59 15c-17 12 -30 28 -30 52c0 27 14 49 37 65c9 7 24 16 40 23c16 8 31 14 42 17h-20l-90 215h-377l-85 -215h-46l295 723h42c78 -182 136 -316 180 -418c43 -103 72 -169 92 -215c23 -53 35 -83 38 -90
c-72 -31 -107 -60 -107 -96s34 -51 65 -51c17 0 32 4 48 11zM321 676l-170 -424h346z" />
    <glyph glyph-name="Cacute" unicode="&#x106;" horiz-adv-x="640" 
d="M585 161c-12 -55 -43 -98 -83 -127c-41 -29 -93 -44 -148 -44c-109 0 -182 43 -229 111c-48 68 -69 159 -69 255c0 92 22 187 72 258s125 119 231 119c54 0 106 -15 149 -43c42 -29 72 -72 76 -130h-45c-8 48 -33 81 -67 104c-35 22 -75 31 -113 31
c-91 0 -155 -45 -197 -111c-43 -66 -61 -148 -61 -224c0 -82 16 -164 56 -227c40 -64 103 -106 199 -106c42 0 82 11 115 34c32 22 57 54 68 100h46zM333 778h-30l90 143h54z" />
    <glyph glyph-name="Ccircumflex" unicode="&#x108;" horiz-adv-x="640" 
d="M585 161c-12 -55 -43 -98 -83 -127c-41 -29 -93 -44 -148 -44c-109 0 -182 43 -229 111c-48 68 -69 159 -69 255c0 92 22 187 72 258s125 119 231 119c54 0 106 -15 149 -43c42 -29 72 -72 76 -130h-45c-8 48 -33 81 -67 104c-35 22 -75 31 -113 31
c-91 0 -155 -45 -197 -111c-43 -66 -61 -148 -61 -224c0 -82 16 -164 56 -227c40 -64 103 -106 199 -106c42 0 82 11 115 34c32 22 57 54 68 100h46zM447 777l-92 114l-96 -114h-31l102 144h50l98 -144h-31z" />
    <glyph glyph-name="Ccaron" unicode="&#x10c;" horiz-adv-x="640" 
d="M585 161c-12 -55 -43 -98 -83 -127c-41 -29 -93 -44 -148 -44c-109 0 -182 43 -229 111c-48 68 -69 159 -69 255c0 92 22 187 72 258s125 119 231 119c54 0 106 -15 149 -43c42 -29 72 -72 76 -130h-45c-8 48 -33 81 -67 104c-35 22 -75 31 -113 31
c-91 0 -155 -45 -197 -111c-43 -66 -61 -148 -61 -224c0 -82 16 -164 56 -227c40 -64 103 -106 199 -106c42 0 82 11 115 34c32 22 57 54 68 100h46zM380 778h-53l-98 143h31l94 -115l94 115h31z" />
    <glyph glyph-name="Cdotaccent" unicode="&#x10a;" horiz-adv-x="640" 
d="M585 161c-12 -55 -43 -98 -83 -127c-41 -29 -93 -44 -148 -44c-109 0 -182 43 -229 111c-48 68 -69 159 -69 255c0 92 22 187 72 258s125 119 231 119c54 0 106 -15 149 -43c42 -29 72 -72 76 -130h-45c-8 48 -33 81 -67 104c-35 22 -75 31 -113 31
c-91 0 -155 -45 -197 -111c-43 -66 -61 -148 -61 -224c0 -82 16 -164 56 -227c40 -64 103 -106 199 -106c42 0 82 11 115 34c32 22 57 54 68 100h46zM332 822v65h46v-65h-46z" />
    <glyph glyph-name="Dcaron" unicode="&#x10e;" horiz-adv-x="711" 
d="M655 365c0 -216 -103 -335 -277 -359c-39 -5 -78 -6 -117 -6h-153v723h180c56 0 98 -3 149 -16c141 -36 218 -157 218 -342zM612 365c0 122 -35 217 -115 273c-56 39 -132 48 -208 48h-139v-649h137c118 0 198 31 250 87s75 138 75 241zM389 778h-53l-98 143h31l94 -115
l94 115h31z" />
    <glyph glyph-name="Dcroat" unicode="&#x110;" horiz-adv-x="711" 
d="M655 366c0 -216 -103 -335 -277 -359c-39 -5 -78 -7 -117 -7h-153v387h-72v34h72v302h180c56 0 98 -3 149 -16c141 -36 218 -156 218 -341zM612 366c0 122 -34 216 -114 272c-56 39 -133 48 -209 48h-139v-265h216v-34h-216v-350h137c118 0 199 31 251 88
c52 56 74 138 74 241z" />
    <glyph glyph-name="Ecaron" unicode="&#x11a;" horiz-adv-x="586" 
d="M108 0v723h415v-37h-373v-289h360v-37h-360v-323h389v-37h-431zM351 778h-53l-98 143h31l94 -115l94 115h31z" />
    <glyph glyph-name="Emacron" unicode="&#x112;" horiz-adv-x="586" 
d="M108 0v723h415v-37h-373v-289h360v-37h-360v-323h389v-37h-431zM214 824v36h222v-36h-222z" />
    <glyph glyph-name="Ebreve" unicode="&#x114;" horiz-adv-x="586" 
d="M108 0v723h415v-37h-373v-289h360v-37h-360v-323h389v-37h-431zM452 888c-7 -55 -53 -98 -128 -98c-35 0 -65 10 -88 27c-23 16 -38 40 -39 71h29c4 -21 18 -37 37 -48c18 -12 40 -17 61 -17c44 0 84 18 100 65h28z" />
    <glyph glyph-name="Edotaccent" unicode="&#x116;" horiz-adv-x="586" 
d="M108 0v723h415v-37h-373v-289h360v-37h-360v-323h389v-37h-431zM303 822v65h46v-65h-46z" />
    <glyph glyph-name="Eogonek" unicode="&#x118;" horiz-adv-x="586" 
d="M552 -155c-23 -11 -47 -17 -72 -17c-20 0 -43 4 -59 15c-17 12 -30 28 -30 52c0 27 14 49 37 65c19 15 60 33 81 40h-401v723h415v-37h-373v-289h360v-37h-360v-323h389v-37c-72 -31 -107 -60 -107 -96s34 -51 65 -51c17 0 32 4 48 11z" />
    <glyph glyph-name="Gcircumflex" unicode="&#x11c;" horiz-adv-x="680" 
d="M603 35c-63 -20 -145 -40 -225 -40c-110 0 -189 42 -243 110s-79 160 -79 262c0 95 23 187 74 255c50 68 126 113 232 113c80 0 149 -26 191 -80c20 -27 35 -61 40 -104h-45c-15 98 -85 148 -188 148c-91 0 -155 -42 -197 -104c-43 -63 -61 -144 -61 -226
c0 -87 20 -171 65 -234c44 -63 112 -103 210 -103c63 0 125 10 184 30v258h-191v37h233v-322zM458 777l-92 114l-96 -114h-31l102 144h50l98 -144h-31z" />
    <glyph glyph-name="Gbreve" unicode="&#x11e;" horiz-adv-x="680" 
d="M603 35c-63 -20 -145 -40 -225 -40c-110 0 -189 42 -243 110s-79 160 -79 262c0 95 23 187 74 255c50 68 126 113 232 113c80 0 149 -26 191 -80c20 -27 35 -61 40 -104h-45c-15 98 -85 148 -188 148c-91 0 -155 -42 -197 -104c-43 -63 -61 -144 -61 -226
c0 -87 20 -171 65 -234c44 -63 112 -103 210 -103c63 0 125 10 184 30v258h-191v37h233v-322zM492 888c-7 -55 -53 -98 -128 -98c-35 0 -65 10 -88 27c-23 16 -38 40 -39 71h29c4 -21 18 -37 37 -48c18 -12 40 -17 61 -17c44 0 84 18 100 65h28z" />
    <glyph glyph-name="Gdotaccent" unicode="&#x120;" horiz-adv-x="680" 
d="M603 35c-63 -20 -145 -40 -225 -40c-110 0 -189 42 -243 110s-79 160 -79 262c0 95 23 187 74 255c50 68 126 113 232 113c80 0 149 -26 191 -80c20 -27 35 -61 40 -104h-45c-15 98 -85 148 -188 148c-91 0 -155 -42 -197 -104c-43 -63 -61 -144 -61 -226
c0 -87 20 -171 65 -234c44 -63 112 -103 210 -103c63 0 125 10 184 30v258h-191v37h233v-322zM343 822v65h46v-65h-46z" />
    <glyph glyph-name="uni0122" unicode="&#x122;" horiz-adv-x="680" 
d="M603 35c-63 -20 -145 -40 -225 -40c-110 0 -189 42 -243 110s-79 160 -79 262c0 95 23 187 74 255c50 68 126 113 232 113c80 0 149 -26 191 -80c20 -27 35 -61 40 -104h-45c-15 98 -85 148 -188 148c-91 0 -155 -42 -197 -104c-43 -63 -61 -144 -61 -226
c0 -87 20 -171 65 -234c44 -63 112 -103 210 -103c63 0 125 10 184 30v258h-191v37h233v-322zM378 -64l-45 -137h-32l27 137h50z" />
    <glyph glyph-name="Hcircumflex" unicode="&#x124;" horiz-adv-x="725" 
d="M575 0v356h-425v-356h-42v723h42v-331h425v331h42v-723h-42zM458 777l-92 114l-96 -114h-31l102 144h50l98 -144h-31z" />
    <glyph glyph-name="Hbar" unicode="&#x126;" horiz-adv-x="725" 
d="M575 470h-425v-78h425v78zM575 0v356h-425v-356h-42v723h42v-217h425v217h42v-723h-42z" />
    <glyph glyph-name="Itilde" unicode="&#x128;" horiz-adv-x="258" 
d="M108 0v723h42v-723h-42zM252 890c-11 -36 -33 -68 -75 -68c-32 0 -66 21 -95 21c-25 0 -36 -6 -47 -29h-29c9 39 37 64 79 64c31 0 60 -20 91 -20c24 0 36 9 47 32h29z" />
    <glyph glyph-name="Imacron" unicode="&#x12a;" horiz-adv-x="258" 
d="M108 0v723h42v-723h-42zM18 824v36h222v-36h-222z" />
    <glyph glyph-name="Idotaccent" unicode="&#x130;" horiz-adv-x="258" 
d="M108 0v723h42v-723h-42zM107 822v65h46v-65h-46z" />
    <glyph glyph-name="Iogonek" unicode="&#x12e;" horiz-adv-x="258" 
d="M163 -155c-23 -11 -47 -17 -72 -17c-20 0 -43 4 -59 15c-17 12 -30 28 -30 52c0 27 14 49 37 65c9 7 25 16 41 23c15 8 30 14 38 17h-10v723h42v-723c-72 -31 -107 -60 -107 -96s34 -51 65 -51c17 0 32 4 48 11z" />
    <glyph glyph-name="Jcircumflex" unicode="&#x134;" horiz-adv-x="470" 
d="M379 204c0 -48 -7 -95 -32 -134c-35 -51 -91 -76 -162 -76c-52 0 -95 15 -126 46c-31 30 -49 71 -49 126h43c0 -86 51 -136 134 -136c55 0 92 20 116 52s34 77 34 128v513h42v-519zM451 777l-92 114l-96 -114h-31l102 144h50l98 -144h-31z" />
    <glyph glyph-name="uni0136" unicode="&#x136;" horiz-adv-x="590" 
d="M530 0l-376 391l342 332h56l-347 -330l382 -393h-57zM108 0v723h42v-723h-42zM344 -64l-45 -137h-32l27 137h50z" />
    <glyph glyph-name="Lacute" unicode="&#x139;" horiz-adv-x="534" 
d="M108 0v723h42v-686h370v-37h-412zM138 778h-30l90 143h54z" />
    <glyph glyph-name="Lcaron" unicode="&#x13d;" horiz-adv-x="534" 
d="M108 0v723h42v-686h370v-37h-412zM327 723l-54 -150h-34l33 150h55z" />
    <glyph glyph-name="uni013B" unicode="&#x13b;" horiz-adv-x="534" 
d="M108 0v723h42v-686h370v-37h-412zM348 -64l-45 -137h-32l27 137h50z" />
    <glyph glyph-name="Ldot" unicode="&#x13f;" horiz-adv-x="534" 
d="M108 0v723h42v-686h370v-37h-412zM294 354v65h46v-65h-46z" />
    <glyph glyph-name="Nacute" unicode="&#x143;" horiz-adv-x="734" 
d="M571 0l-423 668v-668h-40v723h55l423 -669v669h40v-723h-55zM354 778h-30l90 143h54z" />
    <glyph glyph-name="Ncaron" unicode="&#x147;" horiz-adv-x="734" 
d="M571 0l-423 668v-668h-40v723h55l423 -669v669h40v-723h-55zM401 778h-53l-98 143h31l94 -115l94 115h31z" />
    <glyph glyph-name="uni0145" unicode="&#x145;" horiz-adv-x="734" 
d="M571 0l-423 668v-668h-40v723h55l423 -669v669h40v-723h-55zM401 -64l-45 -137h-32l27 137h50z" />
    <glyph glyph-name="Omacron" unicode="&#x14c;" horiz-adv-x="733" 
d="M677 367c0 -99 -22 -192 -72 -262c-51 -71 -127 -116 -237 -116c-109 0 -186 44 -237 114c-52 70 -75 162 -75 261s24 191 75 259s129 111 238 111c113 0 188 -40 238 -107s70 -158 70 -260zM632 364c0 88 -17 172 -57 233c-41 60 -107 100 -206 100
c-96 0 -162 -40 -205 -102c-44 -63 -62 -145 -62 -231c0 -83 18 -167 62 -231c43 -64 109 -107 205 -107c95 0 160 43 203 107c42 64 60 148 60 231zM259 824v36h222v-36h-222z" />
    <glyph glyph-name="Obreve" unicode="&#x14e;" horiz-adv-x="733" 
d="M677 367c0 -99 -22 -192 -72 -262c-51 -71 -127 -116 -237 -116c-109 0 -186 44 -237 114c-52 70 -75 162 -75 261s24 191 75 259s129 111 238 111c113 0 188 -40 238 -107s70 -158 70 -260zM632 364c0 88 -17 172 -57 233c-41 60 -107 100 -206 100
c-96 0 -162 -40 -205 -102c-44 -63 -62 -145 -62 -231c0 -83 18 -167 62 -231c43 -64 109 -107 205 -107c95 0 160 43 203 107c42 64 60 148 60 231zM497 888c-7 -55 -53 -98 -128 -98c-35 0 -65 10 -88 27c-23 16 -38 40 -39 71h29c4 -21 18 -37 37 -48
c18 -12 40 -17 61 -17c44 0 84 18 100 65h28z" />
    <glyph glyph-name="Ohungarumlaut" unicode="&#x150;" horiz-adv-x="733" 
d="M677 367c0 -99 -22 -192 -72 -262c-51 -71 -127 -116 -237 -116c-109 0 -186 44 -237 114c-52 70 -75 162 -75 261s24 191 75 259s129 111 238 111c113 0 188 -40 238 -107s70 -158 70 -260zM632 364c0 88 -17 172 -57 233c-41 60 -107 100 -206 100
c-96 0 -162 -40 -205 -102c-44 -63 -62 -145 -62 -231c0 -83 18 -167 62 -231c43 -64 109 -107 205 -107c95 0 160 43 203 107c42 64 60 148 60 231zM430 778h-32l92 143h55zM304 778h-31l92 143h54z" />
    <glyph glyph-name="Racute" unicode="&#x154;" horiz-adv-x="637" 
d="M524 0c-27 51 -26 108 -33 172c-7 72 -13 120 -33 149c-21 29 -58 41 -126 41h-182v-362h-42v723h232c64 0 118 -11 160 -46c32 -27 56 -66 56 -125c0 -92 -54 -149 -138 -170c78 -12 105 -74 112 -175c3 -35 6 -78 13 -117s15 -74 30 -90h-49zM512 548
c0 56 -22 91 -56 111c-35 20 -80 27 -127 27h-179v-288h149c50 0 102 6 144 27s69 59 69 123zM295 778h-30l90 143h54z" />
    <glyph glyph-name="Rcaron" unicode="&#x158;" horiz-adv-x="637" 
d="M524 0c-27 51 -26 108 -33 172c-7 72 -13 120 -33 149c-21 29 -58 41 -126 41h-182v-362h-42v723h232c64 0 118 -11 160 -46c32 -27 56 -66 56 -125c0 -92 -54 -149 -138 -170c78 -12 105 -74 112 -175c3 -35 6 -78 13 -117s15 -74 30 -90h-49zM512 548
c0 56 -22 91 -56 111c-35 20 -80 27 -127 27h-179v-288h149c50 0 102 6 144 27s69 59 69 123zM342 778h-53l-98 143h31l94 -115l94 115h31z" />
    <glyph glyph-name="uni0156" unicode="&#x156;" horiz-adv-x="637" 
d="M524 0c-27 51 -26 108 -33 172c-7 72 -13 120 -33 149c-21 29 -58 41 -126 41h-182v-362h-42v723h232c64 0 118 -11 160 -46c32 -27 56 -66 56 -125c0 -92 -54 -149 -138 -170c78 -12 105 -74 112 -175c3 -35 6 -78 13 -117s15 -74 30 -90h-49zM512 548
c0 56 -22 91 -56 111c-35 20 -80 27 -127 27h-179v-288h149c50 0 102 6 144 27s69 59 69 123zM344 -64l-45 -137h-32l27 137h50z" />
    <glyph glyph-name="Sacute" unicode="&#x15a;" horiz-adv-x="578" 
d="M523 190c0 -71 -30 -120 -74 -152c-45 -32 -106 -46 -168 -46c-130 0 -215 61 -226 191h44c3 -91 67 -154 184 -154c44 0 93 10 132 35c39 24 66 62 66 120c0 43 -17 73 -45 97s-68 41 -115 57l-63 21c-48 16 -96 34 -131 63c-36 28 -59 66 -59 122c0 66 27 111 70 142
c43 30 98 44 157 44c54 0 107 -10 147 -34c40 -25 67 -65 70 -124h-44c-4 47 -26 77 -57 96c-32 19 -72 26 -114 26c-44 0 -91 -10 -127 -34s-60 -61 -60 -113c0 -72 49 -114 163 -150l68 -22c58 -19 103 -39 134 -68s48 -66 48 -117zM275 778h-30l90 143h54z" />
    <glyph glyph-name="Scircumflex" unicode="&#x15c;" horiz-adv-x="578" 
d="M523 190c0 -71 -30 -120 -74 -152c-45 -32 -106 -46 -168 -46c-130 0 -215 61 -226 191h44c3 -91 67 -154 184 -154c44 0 93 10 132 35c39 24 66 62 66 120c0 43 -17 73 -45 97s-68 41 -115 57l-63 21c-48 16 -96 34 -131 63c-36 28 -59 66 -59 122c0 66 27 111 70 142
c43 30 98 44 157 44c54 0 107 -10 147 -34c40 -25 67 -65 70 -124h-44c-4 47 -26 77 -57 96c-32 19 -72 26 -114 26c-44 0 -91 -10 -127 -34s-60 -61 -60 -113c0 -72 49 -114 163 -150l68 -22c58 -19 103 -39 134 -68s48 -66 48 -117zM389 777l-92 114l-96 -114h-31l102 144
h50l98 -144h-31z" />
    <glyph glyph-name="Scedilla" unicode="&#x15e;" horiz-adv-x="578" 
d="M376 -112c0 -27 -12 -43 -29 -54c-17 -10 -41 -13 -62 -13c-35 0 -63 8 -97 23l7 22c31 -15 53 -24 92 -24c40 0 52 23 52 43c0 32 -27 40 -56 40c-11 0 -20 -1 -29 -2l21 69c-126 3 -209 64 -220 191h44c3 -91 67 -154 184 -154c44 0 93 10 132 35c39 24 66 62 66 120
c0 43 -17 73 -45 97s-68 41 -115 57l-63 21c-48 16 -96 34 -131 63c-36 28 -59 66 -59 122c0 66 27 111 70 142c43 30 98 44 157 44c54 0 107 -10 147 -34c40 -25 67 -65 70 -124h-44c-4 47 -26 77 -57 96c-32 19 -72 26 -114 26c-44 0 -91 -10 -127 -34s-60 -61 -60 -113
c0 -72 49 -114 163 -150l68 -22c58 -19 103 -39 134 -68s48 -66 48 -117c0 -68 -27 -116 -69 -148c-43 -32 -99 -48 -159 -49l-12 -45c11 0 18 0 27 -1c34 -3 66 -15 66 -59z" />
    <glyph glyph-name="uni0218" unicode="&#x218;" horiz-adv-x="578" 
d="M523 190c0 -71 -30 -120 -74 -152c-45 -32 -106 -46 -168 -46c-130 0 -215 61 -226 191h44c3 -91 67 -154 184 -154c44 0 93 10 132 35c39 24 66 62 66 120c0 43 -17 73 -45 97s-68 41 -115 57l-63 21c-48 16 -96 34 -131 63c-36 28 -59 66 -59 122c0 66 27 111 70 142
c43 30 98 44 157 44c54 0 107 -10 147 -34c40 -25 67 -65 70 -124h-44c-4 47 -26 77 -57 96c-32 19 -72 26 -114 26c-44 0 -91 -10 -127 -34s-60 -61 -60 -113c0 -72 49 -114 163 -150l68 -22c58 -19 103 -39 134 -68s48 -66 48 -117zM310 -64l-45 -137h-32l27 137h50z" />
    <glyph glyph-name="Tcaron" unicode="&#x164;" horiz-adv-x="516" 
d="M278 686v-686h-42v686h-232v37h508v-37h-234zM284 778h-53l-98 143h31l94 -115l94 115h31z" />
    <glyph glyph-name="uni0162" unicode="&#x162;" horiz-adv-x="516" 
d="M278 686v-686h-42v686h-232v37h508v-37h-234zM282 -64l-45 -137h-32l27 137h50z" />
    <glyph glyph-name="uni021A" unicode="&#x21a;" horiz-adv-x="516" 
d="M278 686v-686h-42v686h-232v37h508v-37h-234zM282 -64l-45 -137h-32l27 137h50z" />
    <glyph glyph-name="Tbar" unicode="&#x166;" horiz-adv-x="516" 
d="M490 361h-212v-361h-42v361h-212v36h212v289h-232v37h508v-37h-234v-289h212v-36z" />
    <glyph glyph-name="Utilde" unicode="&#x168;" horiz-adv-x="722" 
d="M628 267c0 -176 -87 -276 -267 -276c-176 0 -267 92 -267 276v456h44v-442c0 -64 6 -123 37 -170c38 -56 102 -83 186 -83c96 0 168 35 201 110c19 42 22 91 22 143v442h44v-456zM486 890c-11 -36 -33 -68 -75 -68c-32 0 -66 21 -95 21c-25 0 -36 -6 -47 -29h-29
c9 39 37 64 79 64c31 0 60 -20 91 -20c24 0 36 9 47 32h29z" />
    <glyph glyph-name="Umacron" unicode="&#x16a;" horiz-adv-x="722" 
d="M628 267c0 -176 -87 -276 -267 -276c-176 0 -267 92 -267 276v456h44v-442c0 -64 6 -123 37 -170c38 -56 102 -83 186 -83c96 0 168 35 201 110c19 42 22 91 22 143v442h44v-456zM252 824v36h222v-36h-222z" />
    <glyph glyph-name="Ubreve" unicode="&#x16c;" horiz-adv-x="722" 
d="M628 267c0 -176 -87 -276 -267 -276c-176 0 -267 92 -267 276v456h44v-442c0 -64 6 -123 37 -170c38 -56 102 -83 186 -83c96 0 168 35 201 110c19 42 22 91 22 143v442h44v-456zM490 888c-7 -55 -53 -98 -128 -98c-35 0 -65 10 -88 27c-23 16 -38 40 -39 71h29
c4 -21 18 -37 37 -48c18 -12 40 -17 61 -17c44 0 84 18 100 65h28z" />
    <glyph glyph-name="Uring" unicode="&#x16e;" horiz-adv-x="722" 
d="M628 267c0 -176 -87 -276 -267 -276c-176 0 -267 92 -267 276v456h44v-442c0 -64 6 -123 37 -170c38 -56 102 -83 186 -83c96 0 168 35 201 110c19 42 22 91 22 143v442h44v-456zM278 823c0 48 37 85 85 85s86 -37 86 -85s-38 -85 -86 -85s-85 37 -85 85zM305 823
c0 -35 23 -61 58 -61s58 26 58 61c0 36 -23 62 -58 62s-58 -26 -58 -62z" />
    <glyph glyph-name="Uhungarumlaut" unicode="&#x170;" horiz-adv-x="722" 
d="M628 267c0 -176 -87 -276 -267 -276c-176 0 -267 92 -267 276v456h44v-442c0 -64 6 -123 37 -170c38 -56 102 -83 186 -83c96 0 168 35 201 110c19 42 22 91 22 143v442h44v-456zM423 778h-32l92 143h55zM297 778h-31l92 143h54z" />
    <glyph glyph-name="Uogonek" unicode="&#x172;" horiz-adv-x="722" 
d="M434 -155c-23 -11 -47 -17 -72 -17c-20 0 -43 4 -59 15c-17 12 -30 28 -30 52c0 27 14 49 37 65c12 11 37 23 56 31h-5c-176 0 -267 92 -267 276v456h44v-442c0 -64 6 -123 37 -170c38 -56 102 -83 186 -83c96 0 168 35 201 110c19 42 22 91 22 143v442h44v-456
c0 -161 -73 -258 -223 -274c-62 -29 -91 -56 -91 -89c0 -36 34 -51 65 -51c17 0 32 4 48 11z" />
    <glyph glyph-name="Wcircumflex" unicode="&#x174;" horiz-adv-x="988" 
d="M777 0h-57l-229 669h-4l-220 -669h-60l-189 723h45l175 -683h4l222 683h51l233 -683h4l175 683h43zM581 777l-92 114l-96 -114h-31l102 144h50l98 -144h-31z" />
    <glyph glyph-name="Ycircumflex" unicode="&#x176;" horiz-adv-x="595" 
d="M313 319v-319h-42v320l-281 403h51l253 -366l251 366h48zM385 777l-92 114l-96 -114h-31l102 144h50l98 -144h-31z" />
    <glyph glyph-name="Zacute" unicode="&#x179;" horiz-adv-x="538" 
d="M18 0v42l442 642h-412v39h461v-39l-445 -645h456v-39h-502zM258 778h-30l90 143h54z" />
    <glyph glyph-name="Zdotaccent" unicode="&#x17b;" horiz-adv-x="538" 
d="M18 0v42l442 642h-412v39h461v-39l-445 -645h456v-39h-502zM257 822v65h46v-65h-46z" />
    <glyph glyph-name="amacron" unicode="&#x101;" horiz-adv-x="518" 
d="M404 0l-5 104c-29 -82 -99 -115 -175 -115c-42 0 -85 9 -117 32c-33 23 -56 59 -56 114c0 71 37 112 89 136c51 24 117 30 177 30c27 0 56 0 77 -1v38c0 91 -37 142 -136 142c-68 0 -119 -23 -128 -101h-39c1 48 22 80 53 103c31 22 71 31 114 31c48 0 86 -9 113 -26
c50 -31 63 -85 63 -153v-62c-1 -28 -1 -55 -1 -64c0 -25 0 -50 1 -74c1 -46 3 -90 6 -134h-36zM394 269c-13 0 -41 1 -56 1c-46 0 -107 -2 -157 -19c-51 -17 -90 -51 -90 -115c0 -40 17 -69 42 -88s60 -27 96 -27c78 0 120 36 141 80s24 96 24 131v37zM152 651v36h222v-36
h-222z" />
    <glyph glyph-name="abreve" unicode="&#x103;" horiz-adv-x="518" 
d="M404 0l-5 104c-29 -82 -99 -115 -175 -115c-42 0 -85 9 -117 32c-33 23 -56 59 -56 114c0 71 37 112 89 136c51 24 117 30 177 30c27 0 56 0 77 -1v38c0 91 -37 142 -136 142c-68 0 -119 -23 -128 -101h-39c1 48 22 80 53 103c31 22 71 31 114 31c48 0 86 -9 113 -26
c50 -31 63 -85 63 -153v-62c-1 -28 -1 -55 -1 -64c0 -25 0 -50 1 -74c1 -46 3 -90 6 -134h-36zM394 269c-13 0 -41 1 -56 1c-46 0 -107 -2 -157 -19c-51 -17 -90 -51 -90 -115c0 -40 17 -69 42 -88s60 -27 96 -27c78 0 120 36 141 80s24 96 24 131v37zM390 700
c-7 -56 -53 -99 -128 -99c-35 0 -65 10 -88 27s-38 41 -39 72h29c4 -21 18 -37 37 -48c18 -12 40 -17 61 -17c44 0 84 18 100 65h28z" />
    <glyph glyph-name="aogonek" unicode="&#x105;" horiz-adv-x="518" 
d="M454 -155c-23 -11 -47 -17 -72 -17c-20 0 -43 4 -59 15c-17 12 -30 28 -30 52c0 27 14 49 37 65c9 7 25 16 41 23c16 8 31 14 39 17h-6l-5 104c-29 -82 -99 -115 -175 -115c-42 0 -85 9 -117 32c-33 23 -56 59 -56 114c0 71 37 112 89 136c51 24 117 30 177 30
c27 0 56 0 77 -1v38c0 91 -37 142 -136 142c-68 0 -119 -23 -128 -101h-39c1 48 22 80 53 103c31 22 71 31 114 31c48 0 86 -9 113 -26c50 -31 63 -85 63 -153v-62c-1 -28 -1 -55 -1 -64c0 -25 0 -50 1 -74c1 -46 3 -90 6 -134c-72 -32 -106 -60 -106 -96s34 -51 65 -51
c17 0 32 4 48 11zM394 269c-13 0 -41 1 -56 1c-46 0 -107 -2 -157 -19c-51 -17 -90 -51 -90 -115c0 -40 17 -69 42 -88s60 -27 96 -27c78 0 120 36 141 80s24 96 24 131v37z" />
    <glyph glyph-name="cacute" unicode="&#x107;" horiz-adv-x="502" 
d="M468 157c-4 -48 -24 -89 -56 -119c-33 -31 -80 -49 -136 -49c-76 0 -133 28 -171 75c-39 46 -58 111 -58 183c0 74 18 140 57 190s97 80 177 80c107 0 178 -60 186 -165h-39c-8 84 -63 131 -147 131c-70 0 -117 -27 -148 -70c-31 -44 -44 -102 -44 -164
c0 -59 15 -115 46 -157c31 -43 78 -70 142 -70c51 0 88 19 113 46c24 27 37 60 40 89h38zM252 593h-30l90 143h54z" />
    <glyph glyph-name="ccircumflex" unicode="&#x109;" horiz-adv-x="502" 
d="M468 157c-4 -48 -24 -89 -56 -119c-33 -31 -80 -49 -136 -49c-76 0 -133 28 -171 75c-39 46 -58 111 -58 183c0 74 18 140 57 190s97 80 177 80c107 0 178 -60 186 -165h-39c-8 84 -63 131 -147 131c-70 0 -117 -27 -148 -70c-31 -44 -44 -102 -44 -164
c0 -59 15 -115 46 -157c31 -43 78 -70 142 -70c51 0 88 19 113 46c24 27 37 60 40 89h38zM367 593l-92 114l-96 -114h-31l102 144h50l98 -144h-31z" />
    <glyph glyph-name="ccaron" unicode="&#x10d;" horiz-adv-x="502" 
d="M468 157c-4 -48 -24 -89 -56 -119c-33 -31 -80 -49 -136 -49c-76 0 -133 28 -171 75c-39 46 -58 111 -58 183c0 74 18 140 57 190s97 80 177 80c107 0 178 -60 186 -165h-39c-8 84 -63 131 -147 131c-70 0 -117 -27 -148 -70c-31 -44 -44 -102 -44 -164
c0 -59 15 -115 46 -157c31 -43 78 -70 142 -70c51 0 88 19 113 46c24 27 37 60 40 89h38zM299 593h-53l-98 143h31l94 -115l94 115h31z" />
    <glyph glyph-name="cdotaccent" unicode="&#x10b;" horiz-adv-x="502" 
d="M468 157c-4 -48 -24 -89 -56 -119c-33 -31 -80 -49 -136 -49c-76 0 -133 28 -171 75c-39 46 -58 111 -58 183c0 74 18 140 57 190s97 80 177 80c107 0 178 -60 186 -165h-39c-8 84 -63 131 -147 131c-70 0 -117 -27 -148 -70c-31 -44 -44 -102 -44 -164
c0 -59 15 -115 46 -157c31 -43 78 -70 142 -70c51 0 88 19 113 46c24 27 37 60 40 89h38zM250 657v65h46v-65h-46z" />
    <glyph glyph-name="dcaron" unicode="&#x10f;" horiz-adv-x="560" 
d="M435 0c0 7 -1 29 -1 54c0 24 -1 51 -1 66c-15 -35 -34 -67 -62 -90s-63 -37 -110 -37c-75 0 -128 33 -163 82c-35 48 -51 114 -51 182c0 64 16 128 51 176c34 48 85 80 157 80c84 0 146 -37 177 -129v339h40v-576c0 -52 0 -95 3 -147h-40zM433 250c0 54 -12 111 -40 155
c-29 44 -73 75 -137 75c-63 0 -103 -30 -130 -73s-37 -100 -37 -152c0 -56 12 -113 41 -156c28 -43 72 -72 136 -72c63 0 104 30 131 73c26 43 36 99 36 150zM617 723l-54 -150h-34l33 150h55z" />
    <glyph glyph-name="dcroat" unicode="&#x111;" horiz-adv-x="560" 
d="M435 0c0 7 -1 29 -1 54c0 24 -1 51 -1 66c-15 -35 -34 -67 -62 -90s-63 -37 -110 -37c-75 0 -128 33 -163 82c-35 48 -51 114 -51 182c0 64 16 128 51 176c34 48 85 80 157 80c84 0 146 -37 177 -129v199h-246v33h246v107h40v-107h77v-33h-77v-436c0 -52 0 -95 3 -147
h-40zM433 250c0 54 -12 111 -40 155c-29 44 -73 75 -137 75c-63 0 -103 -30 -130 -73s-37 -100 -37 -152c0 -56 12 -113 41 -156c28 -43 72 -72 136 -72c63 0 104 30 131 73c26 43 36 99 36 150z" />
    <glyph glyph-name="ecaron" unicode="&#x11b;" horiz-adv-x="509" 
d="M88 250v-15c0 -56 15 -109 44 -148c29 -40 75 -66 135 -66c88 0 134 47 154 137h39c-23 -110 -83 -169 -197 -169c-76 0 -130 29 -165 76c-36 47 -51 111 -51 179c0 70 16 137 52 187s91 82 169 82s126 -34 155 -82s40 -109 40 -167v-14h-375zM422 294
c-1 48 -13 94 -38 129s-63 57 -118 57c-59 0 -100 -23 -128 -61c-29 -38 -45 -86 -49 -137h333v12zM292 593h-53l-98 143h31l94 -115l94 115h31z" />
    <glyph glyph-name="emacron" unicode="&#x113;" horiz-adv-x="509" 
d="M88 250v-15c0 -56 15 -109 44 -148c29 -40 75 -66 135 -66c88 0 134 47 154 137h39c-23 -110 -83 -169 -197 -169c-76 0 -130 29 -165 76c-36 47 -51 111 -51 179c0 70 16 137 52 187s91 82 169 82s126 -34 155 -82s40 -109 40 -167v-14h-375zM422 294
c-1 48 -13 94 -38 129s-63 57 -118 57c-59 0 -100 -23 -128 -61c-29 -38 -45 -86 -49 -137h333v12zM155 651v36h222v-36h-222z" />
    <glyph glyph-name="ebreve" unicode="&#x115;" horiz-adv-x="509" 
d="M88 250v-15c0 -56 15 -109 44 -148c29 -40 75 -66 135 -66c88 0 134 47 154 137h39c-23 -110 -83 -169 -197 -169c-76 0 -130 29 -165 76c-36 47 -51 111 -51 179c0 70 16 137 52 187s91 82 169 82s126 -34 155 -82s40 -109 40 -167v-14h-375zM422 294
c-1 48 -13 94 -38 129s-63 57 -118 57c-59 0 -100 -23 -128 -61c-29 -38 -45 -86 -49 -137h333v12zM393 700c-7 -56 -53 -99 -128 -99c-35 0 -65 10 -88 27s-38 41 -39 72h29c4 -21 18 -37 37 -48c18 -12 40 -17 61 -17c44 0 84 18 100 65h28z" />
    <glyph glyph-name="edotaccent" unicode="&#x117;" horiz-adv-x="509" 
d="M88 250v-15c0 -56 15 -109 44 -148c29 -40 75 -66 135 -66c88 0 134 47 154 137h39c-23 -110 -83 -169 -197 -169c-76 0 -130 29 -165 76c-36 47 -51 111 -51 179c0 70 16 137 52 187s91 82 169 82s126 -34 155 -82s40 -109 40 -167v-14h-375zM422 294
c-1 48 -13 94 -38 129s-63 57 -118 57c-59 0 -100 -23 -128 -61c-29 -38 -45 -86 -49 -137h333v12zM243 657v65h46v-65h-46z" />
    <glyph glyph-name="eogonek" unicode="&#x119;" horiz-adv-x="509" 
d="M328 -155c-23 -11 -47 -17 -72 -17c-20 0 -43 4 -59 15c-17 12 -30 28 -30 52c0 27 14 49 37 65c11 9 33 21 52 29c-75 1 -126 32 -160 79c-33 46 -49 108 -49 176c0 70 16 137 52 187s91 82 169 82s126 -34 155 -82s40 -109 40 -167v-14h-375v-15c0 -56 15 -109 44 -148
c29 -40 75 -66 135 -66c88 0 134 47 154 137h39c-20 -100 -72 -156 -166 -167c-59 -28 -86 -55 -86 -87c0 -36 34 -51 65 -51c17 0 32 4 48 11zM422 294c-1 48 -13 94 -38 129s-63 57 -118 57c-59 0 -100 -23 -128 -61c-29 -38 -45 -86 -49 -137h333v12z" />
    <glyph glyph-name="gcircumflex" unicode="&#x11d;" horiz-adv-x="563" 
d="M479 506c-1 -28 -3 -50 -3 -74c-1 -25 -1 -51 -1 -86v-289c0 -52 -7 -116 -36 -168s-81 -91 -173 -91c-43 0 -90 8 -126 29s-61 56 -61 114h40c0 -42 17 -69 45 -86c27 -17 64 -24 100 -24c72 0 114 28 139 70c25 43 32 100 32 156v66c-32 -86 -94 -122 -173 -122
c-71 0 -125 27 -161 74c-36 46 -54 107 -54 178c0 68 16 133 51 181s87 79 159 79c84 0 155 -48 180 -134v127h42zM437 260c0 54 -15 107 -43 150c-29 42 -72 70 -130 70c-63 0 -106 -29 -134 -72s-40 -100 -40 -156c0 -55 14 -110 43 -150c28 -41 73 -69 133 -69
c64 0 106 29 133 72s38 99 38 155zM363 593l-92 114l-96 -114h-31l102 144h50l98 -144h-31z" />
    <glyph glyph-name="gbreve" unicode="&#x11f;" horiz-adv-x="563" 
d="M479 506c-1 -28 -3 -50 -3 -74c-1 -25 -1 -51 -1 -86v-289c0 -52 -7 -116 -36 -168s-81 -91 -173 -91c-43 0 -90 8 -126 29s-61 56 -61 114h40c0 -42 17 -69 45 -86c27 -17 64 -24 100 -24c72 0 114 28 139 70c25 43 32 100 32 156v66c-32 -86 -94 -122 -173 -122
c-71 0 -125 27 -161 74c-36 46 -54 107 -54 178c0 68 16 133 51 181s87 79 159 79c84 0 155 -48 180 -134v127h42zM437 260c0 54 -15 107 -43 150c-29 42 -72 70 -130 70c-63 0 -106 -29 -134 -72s-40 -100 -40 -156c0 -55 14 -110 43 -150c28 -41 73 -69 133 -69
c64 0 106 29 133 72s38 99 38 155zM396 700c-7 -56 -53 -99 -128 -99c-35 0 -65 10 -88 27s-38 41 -39 72h29c4 -21 18 -37 37 -48c18 -12 40 -17 61 -17c44 0 84 18 100 65h28z" />
    <glyph glyph-name="gdotaccent" unicode="&#x121;" horiz-adv-x="563" 
d="M479 506c-1 -28 -3 -50 -3 -74c-1 -25 -1 -51 -1 -86v-289c0 -52 -7 -116 -36 -168s-81 -91 -173 -91c-43 0 -90 8 -126 29s-61 56 -61 114h40c0 -42 17 -69 45 -86c27 -17 64 -24 100 -24c72 0 114 28 139 70c25 43 32 100 32 156v66c-32 -86 -94 -122 -173 -122
c-71 0 -125 27 -161 74c-36 46 -54 107 -54 178c0 68 16 133 51 181s87 79 159 79c84 0 155 -48 180 -134v127h42zM437 260c0 54 -15 107 -43 150c-29 42 -72 70 -130 70c-63 0 -106 -29 -134 -72s-40 -100 -40 -156c0 -55 14 -110 43 -150c28 -41 73 -69 133 -69
c64 0 106 29 133 72s38 99 38 155zM246 657v65h46v-65h-46z" />
    <glyph glyph-name="uni0123" unicode="&#x123;" horiz-adv-x="563" 
d="M479 506c-1 -28 -3 -50 -3 -74c-1 -25 -1 -51 -1 -86v-289c0 -52 -7 -116 -36 -168s-81 -91 -173 -91c-43 0 -90 8 -126 29s-61 56 -61 114h40c0 -42 17 -69 45 -86c27 -17 64 -24 100 -24c72 0 114 28 139 70c25 43 32 100 32 156v66c-32 -86 -94 -122 -173 -122
c-71 0 -125 27 -161 74c-36 46 -54 107 -54 178c0 68 16 133 51 181s87 79 159 79c84 0 155 -48 180 -134v127h42zM437 260c0 54 -15 107 -43 150c-29 42 -72 70 -130 70c-63 0 -106 -29 -134 -72s-40 -100 -40 -156c0 -55 14 -110 43 -150c28 -41 73 -69 133 -69
c64 0 106 29 133 72s38 99 38 155zM226 593l46 143h32l-28 -143h-50z" />
    <glyph glyph-name="hcircumflex" unicode="&#x125;" horiz-adv-x="552" 
d="M428 0v291c0 50 -3 96 -22 129c-20 34 -53 55 -113 55c-46 0 -81 -15 -108 -40s-44 -60 -52 -102c-5 -23 -5 -46 -5 -70v-263h-40v723h40v-329c29 76 90 117 168 117c119 0 172 -61 172 -196v-315h-40zM201 777l-92 114l-96 -114h-31l102 144h50l98 -144h-31z" />
    <glyph glyph-name="hbar" unicode="&#x127;" horiz-adv-x="552" 
d="M428 0v291c0 50 -3 96 -22 129c-20 34 -53 55 -113 55c-46 0 -81 -15 -108 -40s-44 -60 -52 -102c-5 -23 -5 -46 -5 -70v-263h-40v583h-77v33h77v107h40v-107h246v-33h-246v-189c29 76 90 117 168 117c119 0 172 -61 172 -196v-315h-40z" />
    <glyph glyph-name="itilde" unicode="&#x129;" horiz-adv-x="216" 
d="M88 0v506h40v-506h-40zM231 705c-11 -36 -33 -68 -75 -68c-32 0 -66 21 -95 21c-25 0 -36 -6 -47 -29h-29c9 39 37 64 79 64c31 0 60 -20 91 -20c24 0 36 9 47 32h29z" />
    <glyph glyph-name="imacron" unicode="&#x12b;" horiz-adv-x="216" 
d="M88 0v506h40v-506h-40zM-3 651v36h222v-36h-222z" />
    <glyph glyph-name="iogonek" unicode="&#x12f;" horiz-adv-x="216" 
d="M142 -155c-23 -11 -47 -17 -72 -17c-20 0 -43 4 -59 15c-17 12 -30 28 -30 52c0 27 14 49 37 65c9 7 25 16 41 23c15 8 30 14 38 17h-9v506h40v-506c-70 -31 -106 -60 -106 -96s34 -51 65 -51c17 0 32 4 48 11zM85 657v66h46v-66h-46z" />
    <glyph glyph-name="glyph00232" horiz-adv-x="216" 
d="M128 -77c0 -83 -30 -104 -101 -104c-12 0 -32 1 -44 4v34c13 -3 26 -4 41 -4c29 0 46 7 55 21c8 15 9 35 9 60v572h40v-583z" />
    <glyph glyph-name="jcircumflex" unicode="&#x135;" horiz-adv-x="216" 
d="M128 -77c0 -83 -30 -104 -101 -104c-12 0 -32 1 -44 4v34c13 -3 26 -4 41 -4c29 0 46 7 55 21c8 15 9 35 9 60v572h40v-583zM203 593l-92 114l-96 -114h-31l102 144h50l98 -144h-31z" />
    <glyph glyph-name="uni0137" unicode="&#x137;" horiz-adv-x="478" 
d="M413 0l-280 287l258 219h55l-262 -218l281 -288h-52zM88 0v723h40v-723h-40zM282 -64l-45 -137h-32l27 137h50z" />
    <glyph glyph-name="lacute" unicode="&#x13a;" horiz-adv-x="216" 
d="M88 0v723h40v-723h-40zM88 758h-30l90 143h54z" />
    <glyph glyph-name="lcaron" unicode="&#x13e;" horiz-adv-x="216" 
d="M88 0v723h40v-723h-40zM274 723l-54 -150h-34l33 150h55z" />
    <glyph glyph-name="uni013C" unicode="&#x13c;" horiz-adv-x="216" 
d="M88 0v723h40v-723h-40zM135 -64l-45 -137h-32l27 137h50z" />
    <glyph glyph-name="ldot" unicode="&#x140;" horiz-adv-x="216" 
d="M88 0v723h40v-723h-40zM191 341v65h46v-65h-46z" />
    <glyph glyph-name="nacute" unicode="&#x144;" horiz-adv-x="553" 
d="M429 0v291c0 50 -3 95 -22 130c-20 34 -53 54 -113 54c-46 0 -81 -15 -108 -40s-44 -60 -52 -102c-5 -23 -6 -46 -6 -70v-263h-40v361c0 48 1 97 -2 145h39c0 -9 1 -33 1 -57s1 -48 1 -57c31 76 92 119 170 119c118 0 172 -61 172 -196v-315h-40zM268 593h-30l90 143h54z
" />
    <glyph glyph-name="ncaron" unicode="&#x148;" horiz-adv-x="553" 
d="M429 0v291c0 50 -3 95 -22 130c-20 34 -53 54 -113 54c-46 0 -81 -15 -108 -40s-44 -60 -52 -102c-5 -23 -6 -46 -6 -70v-263h-40v361c0 48 1 97 -2 145h39c0 -9 1 -33 1 -57s1 -48 1 -57c31 76 92 119 170 119c118 0 172 -61 172 -196v-315h-40zM305 593h-53l-98 143h31
l94 -115l94 115h31z" />
    <glyph glyph-name="uni0146" unicode="&#x146;" horiz-adv-x="553" 
d="M429 0v291c0 50 -3 95 -22 130c-20 34 -53 54 -113 54c-46 0 -81 -15 -108 -40s-44 -60 -52 -102c-5 -23 -6 -46 -6 -70v-263h-40v361c0 48 1 97 -2 145h39c0 -9 1 -33 1 -57s1 -48 1 -57c31 76 92 119 170 119c118 0 172 -61 172 -196v-315h-40zM303 -64l-45 -137h-32
l27 137h50z" />
    <glyph glyph-name="napostrophe" unicode="&#x149;" horiz-adv-x="553" 
d="M429 0v291c0 50 -3 95 -22 130c-20 34 -53 54 -113 54c-46 0 -81 -15 -108 -40s-44 -60 -52 -102c-5 -23 -6 -46 -6 -70v-263h-40v361c0 48 1 97 -2 145h39c0 -9 1 -33 1 -57s1 -48 1 -57c31 76 92 119 170 119c118 0 172 -61 172 -196v-315h-40zM54 723l-54 -150h-34
l33 150h55z" />
    <glyph glyph-name="omacron" unicode="&#x14d;" 
d="M501 257c0 -68 -19 -135 -57 -185c-39 -51 -94 -83 -169 -83c-79 0 -134 31 -172 81c-39 50 -56 116 -56 187s19 134 58 181c38 47 94 76 170 76c78 0 133 -28 171 -74c38 -47 55 -111 55 -183zM459 256c0 59 -14 114 -44 156c-31 42 -76 68 -140 68s-110 -26 -141 -68
s-45 -97 -45 -156s14 -117 45 -161c30 -44 77 -73 141 -73c63 0 109 30 140 74c30 44 44 102 44 160zM165 651v36h222v-36h-222z" />
    <glyph glyph-name="obreve" unicode="&#x14f;" 
d="M501 257c0 -68 -19 -135 -57 -185c-39 -51 -94 -83 -169 -83c-79 0 -134 31 -172 81c-39 50 -56 116 -56 187s19 134 58 181c38 47 94 76 170 76c78 0 133 -28 171 -74c38 -47 55 -111 55 -183zM459 256c0 59 -14 114 -44 156c-31 42 -76 68 -140 68s-110 -26 -141 -68
s-45 -97 -45 -156s14 -117 45 -161c30 -44 77 -73 141 -73c63 0 109 30 140 74c30 44 44 102 44 160zM403 700c-7 -56 -53 -99 -128 -99c-35 0 -65 10 -88 27s-38 41 -39 72h29c4 -21 18 -37 37 -48c18 -12 40 -17 61 -17c44 0 84 18 100 65h28z" />
    <glyph glyph-name="ohungarumlaut" unicode="&#x151;" 
d="M501 257c0 -68 -19 -135 -57 -185c-39 -51 -94 -83 -169 -83c-79 0 -134 31 -172 81c-39 50 -56 116 -56 187s19 134 58 181c38 47 94 76 170 76c78 0 133 -28 171 -74c38 -47 55 -111 55 -183zM459 256c0 59 -14 114 -44 156c-31 42 -76 68 -140 68s-110 -26 -141 -68
s-45 -97 -45 -156s14 -117 45 -161c30 -44 77 -73 141 -73c63 0 109 30 140 74c30 44 44 102 44 160zM336 593h-32l92 143h55zM210 593h-31l92 143h54z" />
    <glyph glyph-name="racute" unicode="&#x155;" horiz-adv-x="322" 
d="M312 466c-13 3 -26 4 -41 4c-42 0 -72 -13 -95 -33s-36 -48 -43 -79c-5 -23 -6 -47 -6 -71v-287h-40v357c0 56 -1 98 -2 149h39l2 -99c11 20 26 45 50 66c24 20 59 36 107 36c11 0 18 1 29 -2v-41zM143 593h-30l90 143h54z" />
    <glyph glyph-name="rcaron" unicode="&#x159;" horiz-adv-x="322" 
d="M312 466c-13 3 -26 4 -41 4c-42 0 -72 -13 -95 -33s-36 -48 -43 -79c-5 -23 -6 -47 -6 -71v-287h-40v357c0 56 -1 98 -2 149h39l2 -99c11 20 26 45 50 66c24 20 59 36 107 36c11 0 18 1 29 -2v-41zM190 593h-53l-98 143h31l94 -115l94 115h31z" />
    <glyph glyph-name="uni0157" unicode="&#x157;" horiz-adv-x="322" 
d="M312 466c-13 3 -26 4 -41 4c-42 0 -72 -13 -95 -33s-36 -48 -43 -79c-5 -23 -6 -47 -6 -71v-287h-40v357c0 56 -1 98 -2 149h39l2 -99c11 20 26 45 50 66c24 20 59 36 107 36c11 0 18 1 29 -2v-41zM134 -64l-45 -137h-32l27 137h50z" />
    <glyph glyph-name="sacute" unicode="&#x15b;" horiz-adv-x="448" 
d="M399 140c0 -52 -22 -89 -54 -113c-33 -24 -78 -36 -125 -36s-89 12 -120 37s-51 63 -52 117h40c4 -80 49 -122 133 -122c32 0 66 7 93 26c27 18 46 45 46 87c0 29 -13 49 -35 65c-23 15 -53 25 -89 36l-27 8c-38 11 -74 23 -102 44c-28 20 -47 48 -47 92
c0 47 21 80 52 103s72 33 115 33c95 0 159 -43 162 -144h-40c-3 75 -45 110 -121 110c-29 0 -61 -7 -85 -23c-25 -16 -42 -40 -42 -76c0 -31 13 -51 34 -66c21 -16 49 -26 81 -35l21 -6c40 -11 80 -23 111 -43s51 -48 51 -94zM207 593h-30l90 143h54z" />
    <glyph glyph-name="scircumflex" unicode="&#x15d;" horiz-adv-x="448" 
d="M399 140c0 -52 -22 -89 -54 -113c-33 -24 -78 -36 -125 -36s-89 12 -120 37s-51 63 -52 117h40c4 -80 49 -122 133 -122c32 0 66 7 93 26c27 18 46 45 46 87c0 29 -13 49 -35 65c-23 15 -53 25 -89 36l-27 8c-38 11 -74 23 -102 44c-28 20 -47 48 -47 92
c0 47 21 80 52 103s72 33 115 33c95 0 159 -43 162 -144h-40c-3 75 -45 110 -121 110c-29 0 -61 -7 -85 -23c-25 -16 -42 -40 -42 -76c0 -31 13 -51 34 -66c21 -16 49 -26 81 -35l21 -6c40 -11 80 -23 111 -43s51 -48 51 -94zM322 593l-92 114l-96 -114h-31l102 144h50
l98 -144h-31z" />
    <glyph glyph-name="scedilla" unicode="&#x15f;" horiz-adv-x="448" 
d="M399 140c0 -48 -18 -84 -48 -108c-31 -25 -70 -37 -114 -40l-12 -44c11 0 18 0 27 -1c34 -3 66 -15 66 -59c0 -27 -12 -43 -29 -54c-17 -10 -41 -13 -62 -13c-35 0 -63 8 -97 23l7 22c31 -15 53 -24 92 -24c40 0 52 23 52 43c0 32 -27 40 -56 40c-11 0 -20 -1 -29 -2
l21 68c-47 0 -87 13 -118 38c-31 24 -50 62 -51 116h40c4 -80 49 -122 133 -122c32 0 66 7 93 26c27 18 46 45 46 87c0 29 -13 49 -35 65c-23 15 -53 25 -89 36l-27 8c-38 11 -74 23 -102 44c-28 20 -47 48 -47 92c0 47 21 80 52 103s72 33 115 33c95 0 159 -43 162 -144
h-40c-3 75 -45 110 -121 110c-29 0 -61 -7 -85 -23c-25 -16 -42 -40 -42 -76c0 -31 13 -51 34 -66c21 -16 49 -26 81 -35l21 -6c40 -11 80 -23 111 -43s51 -48 51 -94z" />
    <glyph glyph-name="uni0219" unicode="&#x219;" horiz-adv-x="448" 
d="M399 140c0 -52 -22 -89 -54 -113c-33 -24 -78 -36 -125 -36s-89 12 -120 37s-51 63 -52 117h40c4 -80 49 -122 133 -122c32 0 66 7 93 26c27 18 46 45 46 87c0 29 -13 49 -35 65c-23 15 -53 25 -89 36l-27 8c-38 11 -74 23 -102 44c-28 20 -47 48 -47 92
c0 47 21 80 52 103s72 33 115 33c95 0 159 -43 162 -144h-40c-3 75 -45 110 -121 110c-29 0 -61 -7 -85 -23c-25 -16 -42 -40 -42 -76c0 -31 13 -51 34 -66c21 -16 49 -26 81 -35l21 -6c40 -11 80 -23 111 -43s51 -48 51 -94zM252 -64l-45 -137h-32l27 137h50z" />
    <glyph glyph-name="tcaron" unicode="&#x165;" horiz-adv-x="298" 
d="M272 2c-25 -4 -42 -5 -63 -5c-68 0 -93 37 -93 101v375h-102v33h102v108l40 19v-127h111v-33h-111v-354c0 -28 2 -49 13 -64c10 -16 26 -23 57 -23c16 0 29 2 46 5v-35zM336 723l-54 -150h-34l33 150h55z" />
    <glyph glyph-name="uni0163" unicode="&#x163;" horiz-adv-x="298" 
d="M272 2c-25 -4 -42 -5 -63 -5c-68 0 -93 37 -93 101v375h-102v33h102v108l40 19v-127h111v-33h-111v-354c0 -28 2 -49 13 -64c10 -16 26 -23 57 -23c16 0 29 2 46 5v-35zM175 -64l-45 -137h-32l27 137h50z" />
    <glyph glyph-name="uni021B" unicode="&#x21b;" horiz-adv-x="298" 
d="M272 2c-25 -4 -42 -5 -63 -5c-68 0 -93 37 -93 101v375h-102v33h102v108l40 19v-127h111v-33h-111v-354c0 -28 2 -49 13 -64c10 -16 26 -23 57 -23c16 0 29 2 46 5v-35zM175 -64l-45 -137h-32l27 137h50z" />
    <glyph glyph-name="tbar" unicode="&#x167;" horiz-adv-x="298" 
d="M272 2c-25 -4 -42 -5 -63 -5c-68 0 -93 37 -93 101v235h-102v33h102v107h-102v33h102v108l40 19v-127h111v-33h-111v-107h111v-33h-111v-214c0 -28 2 -49 13 -64c10 -16 26 -23 57 -23c16 0 30 2 46 5v-35z" />
    <glyph glyph-name="utilde" unicode="&#x169;" horiz-adv-x="552" 
d="M427 0c0 9 -1 33 -1 57s-1 48 -1 57c-31 -76 -92 -120 -170 -120c-111 0 -171 62 -171 196v316h40v-291c0 -47 5 -93 24 -128s52 -57 110 -57c91 0 143 59 160 142c5 23 6 46 6 70v264h40v-361c0 -43 0 -94 3 -145h-40zM399 705c-11 -36 -33 -68 -75 -68
c-32 0 -66 21 -95 21c-25 0 -36 -6 -47 -29h-29c9 39 37 64 79 64c31 0 60 -20 91 -20c24 0 36 9 47 32h29z" />
    <glyph glyph-name="umacron" unicode="&#x16b;" horiz-adv-x="552" 
d="M427 0c0 9 -1 33 -1 57s-1 48 -1 57c-31 -76 -92 -120 -170 -120c-111 0 -171 62 -171 196v316h40v-291c0 -47 5 -93 24 -128s52 -57 110 -57c91 0 143 59 160 142c5 23 6 46 6 70v264h40v-361c0 -43 0 -94 3 -145h-40zM165 651v36h222v-36h-222z" />
    <glyph glyph-name="ubreve" unicode="&#x16d;" horiz-adv-x="552" 
d="M427 0c0 9 -1 33 -1 57s-1 48 -1 57c-31 -76 -92 -120 -170 -120c-111 0 -171 62 -171 196v316h40v-291c0 -47 5 -93 24 -128s52 -57 110 -57c91 0 143 59 160 142c5 23 6 46 6 70v264h40v-361c0 -43 0 -94 3 -145h-40zM403 700c-7 -56 -53 -99 -128 -99
c-35 0 -65 10 -88 27s-38 41 -39 72h29c4 -21 18 -37 37 -48c18 -12 40 -17 61 -17c44 0 84 18 100 65h28z" />
    <glyph glyph-name="uring" unicode="&#x16f;" horiz-adv-x="552" 
d="M427 0c0 9 -1 33 -1 57s-1 48 -1 57c-31 -76 -92 -120 -170 -120c-111 0 -171 62 -171 196v316h40v-291c0 -47 5 -93 24 -128s52 -57 110 -57c91 0 143 59 160 142c5 23 6 46 6 70v264h40v-361c0 -43 0 -94 3 -145h-40zM191 658c0 48 37 85 85 85s86 -37 86 -85
s-38 -85 -86 -85s-85 37 -85 85zM218 658c0 -35 23 -61 58 -61s58 26 58 61c0 36 -23 62 -58 62s-58 -26 -58 -62z" />
    <glyph glyph-name="uhungarumlaut" unicode="&#x171;" horiz-adv-x="552" 
d="M427 0c0 9 -1 33 -1 57s-1 48 -1 57c-31 -76 -92 -120 -170 -120c-111 0 -171 62 -171 196v316h40v-291c0 -47 5 -93 24 -128s52 -57 110 -57c91 0 143 59 160 142c5 23 6 46 6 70v264h40v-361c0 -43 0 -94 3 -145h-40zM336 593h-32l92 143h55zM210 593h-31l92 143h54z
" />
    <glyph glyph-name="uogonek" unicode="&#x173;" horiz-adv-x="552" 
d="M480 -155c-23 -11 -47 -17 -72 -17c-20 0 -43 4 -59 15c-17 12 -30 28 -30 52c0 27 14 49 37 65c9 7 25 16 41 23c16 8 31 14 39 17h-9c0 9 -1 33 -1 57s-1 48 -1 57c-31 -76 -92 -120 -170 -120c-111 0 -171 62 -171 196v316h40v-291c0 -47 5 -93 24 -128
s52 -57 110 -57c91 0 143 59 160 142c5 23 6 46 6 70v264h40v-361c0 -43 0 -94 3 -145c-74 -32 -107 -60 -107 -96s34 -51 65 -51c17 0 32 4 48 11z" />
    <glyph glyph-name="wcircumflex" unicode="&#x175;" horiz-adv-x="784" 
d="M580 0h-29l-158 455l-163 -455h-30l-181 506h45l152 -448l158 448h41l153 -445l156 445h41zM488 593l-92 114l-96 -114h-31l102 144h50l98 -144h-31z" />
    <glyph glyph-name="ycircumflex" unicode="&#x177;" horiz-adv-x="481" 
d="M189 -190h-42l80 195l-209 501h47l181 -445l176 445h41zM340 593l-92 114l-96 -114h-31l102 144h50l98 -144h-31z" />
    <glyph glyph-name="zacute" unicode="&#x17a;" horiz-adv-x="424" 
d="M38 0v39l304 431h-296v36h334v-44l-297 -426h303v-36h-348zM197 593h-30l90 143h54z" />
    <glyph glyph-name="zdotaccent" unicode="&#x17c;" horiz-adv-x="424" 
d="M38 0v39l304 431h-296v36h334v-44l-297 -426h303v-36h-348zM195 657v65h46v-65h-46z" />
    <glyph glyph-name="IJ" unicode="&#x132;" horiz-adv-x="728" 
d="M108 0v723h42v-723h-42zM637 204c0 -48 -7 -95 -32 -134c-35 -51 -91 -76 -162 -76c-52 0 -95 15 -126 46c-31 30 -49 71 -49 126h43c0 -86 51 -136 134 -136c55 0 92 20 116 52s34 77 34 128v513h42v-519z" />
    <glyph glyph-name="ij" unicode="&#x133;" horiz-adv-x="432" 
d="M85 657v66h46v-66h-46zM88 0v506h40v-506h-40zM301 657v66h46v-66h-46zM344 -77c0 -83 -30 -104 -101 -104c-12 0 -32 1 -44 4v34c13 -3 26 -4 41 -4c29 0 46 7 55 21c8 15 9 35 9 60v572h40v-583z" />
    <glyph glyph-name="uniFB01" unicode="&#xfb01;" horiz-adv-x="513" 
d="M278 694c-11 3 -29 3 -40 3c-35 0 -55 -8 -66 -24c-12 -16 -15 -40 -15 -74v-93h111v-33h-111v-473h-40v473h-103v33h103v110c0 34 6 62 22 83c16 20 43 32 83 32c19 0 38 -1 56 -3v-34zM383 657v66h46v-66h-46zM386 0v506h40v-506h-40z" />
    <glyph glyph-name="uniFB02" unicode="&#xfb02;" horiz-adv-x="512" 
d="M278 694c-11 3 -29 3 -40 3c-35 0 -55 -8 -66 -24c-12 -16 -15 -40 -15 -74v-93h111v-33h-111v-473h-40v473h-103v33h103v110c0 34 6 62 22 83c16 20 43 32 83 32c19 0 38 -1 56 -3v-34zM386 0v723h40v-723h-40z" />
    <glyph glyph-name="glyph00290" horiz-adv-x="250" 
d="M146 778l-113 143h53l90 -143h-30z" />
    <glyph glyph-name="glyph00292" horiz-adv-x="250" 
d="M104 778h-30l90 143h54z" />
    <glyph glyph-name="glyph00294" horiz-adv-x="250" 
d="M219 777l-92 114l-96 -114h-31l102 144h50l98 -144h-31z" />
    <glyph glyph-name="glyph00296" horiz-adv-x="250" 
d="M151 778h-53l-98 143h31l94 -115l94 115h31z" />
    <glyph glyph-name="glyph00297" horiz-adv-x="214" 
d="M168 723l-54 -150h-34l33 150h55z" />
    <glyph glyph-name="glyph00299" horiz-adv-x="250" 
d="M248 890c-11 -36 -33 -68 -75 -68c-32 0 -66 21 -95 21c-25 0 -36 -6 -47 -29h-29c9 39 37 64 79 64c31 0 60 -20 91 -20c24 0 36 9 47 32h29z" />
    <glyph glyph-name="glyph00301" horiz-adv-x="250" 
d="M179 822v65h46v-65h-46zM25 822v65h46v-65h-46z" />
    <glyph glyph-name="glyph00303" horiz-adv-x="250" 
d="M14 824v36h222v-36h-222z" />
    <glyph glyph-name="uni02C9" unicode="&#x2c9;" horiz-adv-x="250" 
d="M14 824v36h222v-36h-222z" />
    <glyph glyph-name="glyph00306" horiz-adv-x="250" 
d="M252 888c-7 -55 -53 -98 -128 -98c-35 0 -65 10 -88 27c-23 16 -38 40 -39 71h29c4 -21 18 -37 37 -48c18 -12 40 -17 61 -17c44 0 84 18 100 65h28z" />
    <glyph glyph-name="glyph00308" horiz-adv-x="250" 
d="M40 823c0 48 37 85 85 85s86 -37 86 -85s-38 -85 -86 -85s-85 37 -85 85zM67 823c0 -35 23 -61 58 -61s58 26 58 61c0 36 -23 62 -58 62s-58 -26 -58 -62z" />
    <glyph glyph-name="glyph00310" horiz-adv-x="250" 
d="M165 778h-32l92 143h55zM39 778h-31l92 143h54z" />
    <glyph glyph-name="glyph00312" horiz-adv-x="250" 
d="M102 822v65h46v-65h-46z" />
    <glyph glyph-name="glyph00315" horiz-adv-x="214" 
d="M129 -64l-45 -137h-32l27 137h50z" />
    <glyph glyph-name="glyph00316" horiz-adv-x="562" 
d="M238 593l46 143h32l-28 -143h-50z" />
    <glyph glyph-name="uni00AD" unicode="&#xad;" horiz-adv-x="304" 
d="M28 250v36h248v-36h-248z" />
    <glyph glyph-name="uni2219" unicode="&#x2219;" horiz-adv-x="274" 
d="M110 297v67h54v-67h-54z" />
    <glyph glyph-name="Euro" unicode="&#x20ac;" 
d="M156 295c5 -70 18 -136 50 -186c32 -51 82 -84 161 -84c68 0 112 21 144 50v-47c-36 -24 -75 -39 -145 -39c-84 0 -144 29 -184 82c-40 52 -60 128 -67 224h-85l8 33h75c-1 15 -1 31 -1 48c0 13 0 26 1 41h-81l8 33h76c8 70 26 140 65 195c39 54 96 89 180 89
c46 0 79 -7 106 -18c26 -11 43 -24 54 -33l-10 -40c-24 25 -70 55 -149 55c-70 0 -117 -30 -149 -77s-48 -108 -55 -171h302l-8 -33h-297c-1 -15 -1 -28 -1 -41c0 -16 0 -32 1 -48h273l-9 -33h-263z" />
    <glyph glyph-name="uni00B9" unicode="&#xb9;" horiz-adv-x="352" 
d="M172 469v383c-31 -27 -58 -42 -97 -61v32c40 19 66 37 98 66h33v-420h-34z" />
    <glyph glyph-name="uni00B2" unicode="&#xb2;" horiz-adv-x="352" 
d="M45 469v32l112 110c43 42 71 71 88 98c17 26 24 48 24 73c0 50 -35 82 -91 82c-58 0 -96 -36 -96 -92h-35c1 75 53 121 131 121c72 0 126 -38 126 -109c0 -64 -39 -113 -117 -187l-99 -98h220v-30h-263z" />
    <glyph glyph-name="uni00B3" unicode="&#xb3;" horiz-adv-x="352" 
d="M312 584c0 -76 -57 -119 -140 -119c-80 0 -132 44 -136 116h34c5 -59 48 -87 103 -87c66 0 105 34 105 92s-40 86 -100 86c-5 0 -20 -1 -24 -2v32c5 -1 20 -1 25 -1c52 0 91 29 91 81c0 58 -41 82 -97 82c-60 0 -94 -33 -98 -84h-34c3 71 58 113 133 113
c76 0 130 -36 130 -111c0 -54 -31 -84 -77 -95c51 -11 85 -43 85 -103z" />
    <glyph glyph-name="uni2215" unicode="&#x2215;" horiz-adv-x="185" 
d="M-110 -24h-40l450 773h38z" />
    <glyph glyph-name="uni0394" unicode="&#x394;" horiz-adv-x="621" 
d="M4 0l294 723h41l299 -723h-634zM319 674l-254 -637h511z" />
    <glyph glyph-name="uni03A9" unicode="&#x3a9;" horiz-adv-x="735" 
d="M631 376c0 95 -23 176 -67 233c-45 56 -111 89 -197 89c-83 0 -148 -32 -192 -90c-45 -58 -70 -137 -70 -232c0 -150 65 -256 174 -339v-37h-226v37h179c-105 71 -173 179 -173 341c0 106 30 194 84 257s130 99 224 99c96 0 172 -34 227 -94c54 -61 83 -149 83 -262
c0 -162 -68 -270 -173 -341h179v-37h-226v37c109 83 174 189 174 339z" />
    <glyph glyph-name="uni03BC" unicode="&#x3bc;" horiz-adv-x="549" 
d="M433 0v101c-21 -62 -78 -107 -156 -107c-64 0 -115 25 -146 85v-269h-40v695h40v-290c0 -55 10 -101 34 -133c23 -33 59 -52 110 -52c54 0 93 20 118 55s38 84 38 143v277h41v-354c0 -40 1 -97 2 -151h-41z" />
    <glyph glyph-name="uni2113" unicode="&#x2113;" horiz-adv-x="466" 
d="M395 597c0 -94 -55 -203 -200 -357v-115c0 -72 35 -100 83 -100c39 0 72 17 101 52l25 -23c-36 -44 -79 -65 -130 -65c-75 0 -118 44 -118 138v73l-62 -63l-23 25l85 87v309c0 119 51 175 126 175c71 0 113 -52 113 -136zM195 290c117 129 163 225 163 308
c0 66 -29 102 -76 102s-87 -40 -87 -136v-274z" />
    <glyph glyph-name="estimated" unicode="&#x212e;" horiz-adv-x="600" 
d="M157 259v-181c40 -40 87 -59 145 -59c84 0 142 36 193 120l35 -21c-31 -48 -61 -81 -97 -103c-37 -23 -79 -32 -131 -32c-79 0 -142 30 -188 81c-46 50 -70 117 -70 195s24 146 70 196s109 80 188 80c78 0 141 -29 187 -77c46 -49 72 -117 72 -199h-404zM448 295v145
c-42 40 -91 60 -147 60s-104 -20 -144 -60v-145h291z" />
    <glyph glyph-name="glyph00387" horiz-adv-x="352" 
d="M172 -164v383c-31 -27 -58 -42 -97 -61v32c40 19 66 37 98 66h33v-420h-34z" />
    <glyph glyph-name="glyph00388" horiz-adv-x="352" 
d="M45 -164v32l112 110c43 42 71 71 88 98c17 26 24 48 24 73c0 50 -35 82 -91 82c-58 0 -96 -36 -96 -92h-35c1 75 53 121 131 121c72 0 126 -38 126 -109c0 -64 -39 -113 -117 -187l-99 -98h220v-30h-263z" />
    <glyph glyph-name="glyph00389" horiz-adv-x="352" 
d="M312 -49c0 -76 -57 -119 -140 -119c-80 0 -132 44 -136 116h34c5 -59 48 -87 103 -87c66 0 105 34 105 92s-40 86 -100 86c-5 0 -20 -1 -24 -2v32c5 -1 20 -1 25 -1c52 0 91 29 91 81c0 58 -41 82 -97 82c-60 0 -94 -33 -98 -84h-34c3 71 58 113 133 113
c76 0 130 -36 130 -111c0 -54 -31 -84 -77 -95c51 -11 85 -43 85 -103z" />
  </font>
</defs>
</svg>
