<?xml version="1.0" encoding="UTF-8" standalone="no"?>
<!DOCTYPE svg PUBLIC "-//W3C//DTD SVG 1.1//EN"
 "http://www.w3.org/Graphics/SVG/1.1/DTD/svg11.dtd">
<!-- Generated by graphviz version 2.40.1 (20161225.0304)
 -->
<!-- Title: dependencies Pages: 1 -->
<svg width="504pt" height="284pt"
 viewBox="0.00 0.00 504.00 284.00" xmlns="http://www.w3.org/2000/svg" xmlns:xlink="http://www.w3.org/1999/xlink">
<g id="graph0" class="graph" transform="scale(1 1) rotate(0) translate(4 280)">
<title>dependencies</title>
<polygon fill="#ffffff" stroke="transparent" points="-4,4 -4,-280 500,-280 500,4 -4,4"/>
<text text-anchor="start" x="227.0091" y="-42.4" font-family="sans-serif" font-weight="bold" font-size="14.00" fill="#000000">Legend</text>
<polygon fill="#ffffb3" stroke="transparent" points="14,-10 14,-30 34,-30 34,-10 14,-10"/>
<text text-anchor="start" x="37.629" y="-15.4" font-family="sans-serif" font-size="14.00" fill="#000000"> &#160;Declarations</text>
<polygon fill="#8dd3c7" stroke="transparent" points="127,-10 127,-30 147,-30 147,-10 127,-10"/>
<text text-anchor="start" x="150.7251" y="-15.4" font-family="sans-serif" font-size="14.00" fill="#000000"> &#160;Module</text>
<polygon fill="#80b1d3" stroke="transparent" points="213,-10 213,-30 233,-30 233,-10 213,-10"/>
<text text-anchor="start" x="236.7812" y="-15.4" font-family="sans-serif" font-size="14.00" fill="#000000"> &#160;Bootstrap</text>
<polygon fill="#fdb462" stroke="transparent" points="310,-10 310,-30 330,-30 330,-10 310,-10"/>
<text text-anchor="start" x="333.6732" y="-15.4" font-family="sans-serif" font-size="14.00" fill="#000000"> &#160;Providers</text>
<polygon fill="#fb8072" stroke="transparent" points="406,-10 406,-30 426,-30 426,-10 406,-10"/>
<text text-anchor="start" x="429.7258" y="-15.4" font-family="sans-serif" font-size="14.00" fill="#000000"> &#160;Exports</text>
<g id="clust1" class="cluster">
<title>cluster_ClientSearchModule</title>
<polygon fill="none" stroke="#000000" stroke-dasharray="1,5" points="72,-70 72,-268 424,-268 424,-70 72,-70"/>
</g>
<g id="clust2" class="cluster">
<title>cluster_ClientSearchModule_declarations</title>
<polygon fill="none" stroke="#000000" points="84,-78 84,-130 413,-130 413,-78 84,-78"/>
</g>
<g id="clust6" class="cluster">
<title>cluster_ClientSearchModule_exports</title>
<polygon fill="none" stroke="#000000" points="80,-208 80,-260 416,-260 416,-208 80,-208"/>
</g>
<!-- ClientSearchComponent -->
<g id="node1" class="node">
<title>ClientSearchComponent</title>
<polygon fill="#ffffb3" stroke="#000000" points="404.6428,-122 251.3572,-122 251.3572,-86 404.6428,-86 404.6428,-122"/>
<text text-anchor="middle" x="328" y="-99.8" font-family="Times,serif" font-size="14.00" fill="#000000">ClientSearchComponent</text>
</g>
<!-- ClientSearchModule -->
<g id="node3" class="node">
<title>ClientSearchModule</title>
<polygon fill="#8dd3c7" stroke="#000000" points="228.8599,-187 225.8599,-191 204.8599,-191 201.8599,-187 97.1401,-187 97.1401,-151 228.8599,-151 228.8599,-187"/>
<text text-anchor="middle" x="163" y="-164.8" font-family="Times,serif" font-size="14.00" fill="#000000">ClientSearchModule</text>
</g>
<!-- ClientSearchComponent&#45;&gt;ClientSearchModule -->
<g id="edge1" class="edge">
<title>ClientSearchComponent&#45;&gt;ClientSearchModule</title>
<path fill="none" stroke="#000000" d="M353.6071,-122.0225C353.6071,-139.3734 353.6071,-163 353.6071,-163 353.6071,-163 238.863,-163 238.863,-163"/>
<polygon fill="#000000" stroke="#000000" points="238.8631,-159.5001 228.863,-163 238.863,-166.5001 238.8631,-159.5001"/>
</g>
<!-- DropdownComponent -->
<g id="node2" class="node">
<title>DropdownComponent</title>
<polygon fill="#ffffb3" stroke="#000000" points="233.7064,-122 92.2936,-122 92.2936,-86 233.7064,-86 233.7064,-122"/>
<text text-anchor="middle" x="163" y="-99.8" font-family="Times,serif" font-size="14.00" fill="#000000">DropdownComponent</text>
</g>
<!-- DropdownComponent&#45;&gt;ClientSearchModule -->
<g id="edge2" class="edge">
<title>DropdownComponent&#45;&gt;ClientSearchModule</title>
<path fill="none" stroke="#000000" d="M163,-122.1061C163,-122.1061 163,-140.991 163,-140.991"/>
<polygon fill="#000000" stroke="#000000" points="159.5001,-140.9909 163,-150.991 166.5001,-140.991 159.5001,-140.9909"/>
</g>
<!-- ClientSearchComponent  -->
<g id="node4" class="node">
<title>ClientSearchComponent </title>
<polygon fill="#fb8072" stroke="#000000" points="407.6425,-252 250.3575,-252 250.3575,-216 407.6425,-216 407.6425,-252"/>
<text text-anchor="middle" x="329" y="-229.8" font-family="Times,serif" font-size="14.00" fill="#000000">ClientSearchComponent </text>
</g>
<!-- ClientSearchModule&#45;&gt;ClientSearchComponent  -->
<g id="edge3" class="edge">
<title>ClientSearchModule&#45;&gt;ClientSearchComponent </title>
<path fill="none" stroke="#000000" stroke-dasharray="5,2" d="M229.0226,-175C265.0514,-175 302.3929,-175 302.3929,-175 302.3929,-175 302.3929,-205.9775 302.3929,-205.9775"/>
<polygon fill="#000000" stroke="#000000" points="298.893,-205.9774 302.3929,-215.9775 305.893,-205.9775 298.893,-205.9774"/>
</g>
<!-- DropdownComponent  -->
<g id="node5" class="node">
<title>DropdownComponent </title>
<polygon fill="#fb8072" stroke="#000000" points="232.2065,-252 87.7935,-252 87.7935,-216 232.2065,-216 232.2065,-252"/>
<text text-anchor="middle" x="160" y="-229.8" font-family="Times,serif" font-size="14.00" fill="#000000">DropdownComponent </text>
</g>
<!-- ClientSearchModule&#45;&gt;DropdownComponent  -->
<g id="edge4" class="edge">
<title>ClientSearchModule&#45;&gt;DropdownComponent </title>
<path fill="none" stroke="#000000" stroke-dasharray="5,2" d="M163,-187.1061C163,-187.1061 163,-205.991 163,-205.991"/>
<polygon fill="#000000" stroke="#000000" points="159.5001,-205.9909 163,-215.991 166.5001,-205.991 159.5001,-205.9909"/>
</g>
</g>
</svg>
