<?xml version="1.0" encoding="UTF-8" standalone="no"?>
<!DOCTYPE svg PUBLIC "-//W3C//DTD SVG 1.1//EN"
 "http://www.w3.org/Graphics/SVG/1.1/DTD/svg11.dtd">
<!-- Generated by graphviz version 2.40.1 (20161225.0304)
 -->
<!-- Title: dependencies Pages: 1 -->
<svg width="504pt" height="284pt"
 viewBox="0.00 0.00 504.00 284.00" xmlns="http://www.w3.org/2000/svg" xmlns:xlink="http://www.w3.org/1999/xlink">
<g id="graph0" class="graph" transform="scale(1 1) rotate(0) translate(4 280)">
<title>dependencies</title>
<polygon fill="#ffffff" stroke="transparent" points="-4,4 -4,-280 500,-280 500,4 -4,4"/>
<text text-anchor="start" x="227.0091" y="-42.4" font-family="sans-serif" font-weight="bold" font-size="14.00" fill="#000000">Legend</text>
<polygon fill="#ffffb3" stroke="transparent" points="14,-10 14,-30 34,-30 34,-10 14,-10"/>
<text text-anchor="start" x="37.629" y="-15.4" font-family="sans-serif" font-size="14.00" fill="#000000"> &#160;Declarations</text>
<polygon fill="#8dd3c7" stroke="transparent" points="127,-10 127,-30 147,-30 147,-10 127,-10"/>
<text text-anchor="start" x="150.7251" y="-15.4" font-family="sans-serif" font-size="14.00" fill="#000000"> &#160;Module</text>
<polygon fill="#80b1d3" stroke="transparent" points="213,-10 213,-30 233,-30 233,-10 213,-10"/>
<text text-anchor="start" x="236.7812" y="-15.4" font-family="sans-serif" font-size="14.00" fill="#000000"> &#160;Bootstrap</text>
<polygon fill="#fdb462" stroke="transparent" points="310,-10 310,-30 330,-30 330,-10 310,-10"/>
<text text-anchor="start" x="333.6732" y="-15.4" font-family="sans-serif" font-size="14.00" fill="#000000"> &#160;Providers</text>
<polygon fill="#fb8072" stroke="transparent" points="406,-10 406,-30 426,-30 426,-10 406,-10"/>
<text text-anchor="start" x="429.7258" y="-15.4" font-family="sans-serif" font-size="14.00" fill="#000000"> &#160;Exports</text>
<g id="clust1" class="cluster">
<title>cluster_ClientFinancesModule</title>
<polygon fill="none" stroke="#000000" stroke-dasharray="1,5" points="16,-70 16,-268 480,-268 480,-70 16,-70"/>
</g>
<g id="clust2" class="cluster">
<title>cluster_ClientFinancesModule_declarations</title>
<polygon fill="none" stroke="#000000" points="290,-78 290,-130 472,-130 472,-78 290,-78"/>
</g>
<g id="clust4" class="cluster">
<title>cluster_ClientFinancesModule_imports</title>
<polygon fill="none" stroke="#000000" points="24,-78 24,-130 282,-130 282,-78 24,-78"/>
</g>
<g id="clust5" class="cluster">
<title>cluster_ClientFinancesModule_exports</title>
<polygon fill="none" stroke="#000000" points="124,-208 124,-260 308,-260 308,-208 124,-208"/>
</g>
<!-- ClientFinancesComponent -->
<g id="node1" class="node">
<title>ClientFinancesComponent</title>
<polygon fill="#ffffb3" stroke="#000000" points="463.8173,-122 298.1827,-122 298.1827,-86 463.8173,-86 463.8173,-122"/>
<text text-anchor="middle" x="381" y="-99.8" font-family="Times,serif" font-size="14.00" fill="#000000">ClientFinancesComponent</text>
</g>
<!-- ClientFinancesModule -->
<g id="node2" class="node">
<title>ClientFinancesModule</title>
<polygon fill="#8dd3c7" stroke="#000000" points="287.5352,-187 284.5352,-191 263.5352,-191 260.5352,-187 144.4648,-187 144.4648,-151 287.5352,-151 287.5352,-187"/>
<text text-anchor="middle" x="216" y="-164.8" font-family="Times,serif" font-size="14.00" fill="#000000">ClientFinancesModule</text>
</g>
<!-- ClientFinancesComponent&#45;&gt;ClientFinancesModule -->
<g id="edge1" class="edge">
<title>ClientFinancesComponent&#45;&gt;ClientFinancesModule</title>
<path fill="none" stroke="#000000" d="M298.2299,-104C287.8432,-104 280.7714,-104 280.7714,-104 280.7714,-104 280.7714,-140.8939 280.7714,-140.8939"/>
<polygon fill="#000000" stroke="#000000" points="277.2715,-140.8938 280.7714,-150.8939 284.2715,-140.8939 277.2715,-140.8938"/>
</g>
<!-- ClientFinancesComponent  -->
<g id="node5" class="node">
<title>ClientFinancesComponent </title>
<polygon fill="#fb8072" stroke="#000000" points="300.3171,-252 131.6829,-252 131.6829,-216 300.3171,-216 300.3171,-252"/>
<text text-anchor="middle" x="216" y="-229.8" font-family="Times,serif" font-size="14.00" fill="#000000">ClientFinancesComponent </text>
</g>
<!-- ClientFinancesModule&#45;&gt;ClientFinancesComponent  -->
<g id="edge4" class="edge">
<title>ClientFinancesModule&#45;&gt;ClientFinancesComponent </title>
<path fill="none" stroke="#000000" stroke-dasharray="5,2" d="M216,-187.1061C216,-187.1061 216,-205.991 216,-205.991"/>
<polygon fill="#000000" stroke="#000000" points="212.5001,-205.9909 216,-215.991 219.5001,-205.991 212.5001,-205.9909"/>
</g>
<!-- ClientFileModule -->
<g id="node3" class="node">
<title>ClientFileModule</title>
<polygon fill="#8dd3c7" stroke="#000000" points="273.5521,-122 270.5521,-126 249.5521,-126 246.5521,-122 158.4479,-122 158.4479,-86 273.5521,-86 273.5521,-122"/>
<text text-anchor="middle" x="216" y="-99.8" font-family="Times,serif" font-size="14.00" fill="#000000">ClientFileModule</text>
</g>
<!-- ClientFileModule&#45;&gt;ClientFinancesModule -->
<g id="edge2" class="edge">
<title>ClientFileModule&#45;&gt;ClientFinancesModule</title>
<path fill="none" stroke="#000000" d="M216,-122.1061C216,-122.1061 216,-140.991 216,-140.991"/>
<polygon fill="#000000" stroke="#000000" points="212.5001,-140.9909 216,-150.991 219.5001,-140.991 212.5001,-140.9909"/>
</g>
<!-- ProductsModule -->
<g id="node4" class="node">
<title>ProductsModule</title>
<polygon fill="#8dd3c7" stroke="#000000" points="140.0438,-122 137.0438,-126 116.0438,-126 113.0438,-122 31.9562,-122 31.9562,-86 140.0438,-86 140.0438,-122"/>
<text text-anchor="middle" x="86" y="-99.8" font-family="Times,serif" font-size="14.00" fill="#000000">ProductsModule</text>
</g>
<!-- ProductsModule&#45;&gt;ClientFinancesModule -->
<g id="edge3" class="edge">
<title>ProductsModule&#45;&gt;ClientFinancesModule</title>
<path fill="none" stroke="#000000" d="M135.9314,-122.1061C135.9314,-141.3391 135.9314,-169 135.9314,-169 135.9314,-169 136.7582,-169 136.7582,-169"/>
<polygon fill="#000000" stroke="#000000" points="134.1987,-172.5001 144.1986,-169 134.1986,-165.5001 134.1987,-172.5001"/>
</g>
</g>
</svg>
