<?xml version="1.0" encoding="UTF-8" standalone="no"?>
<!DOCTYPE svg PUBLIC "-//W3C//DTD SVG 1.1//EN"
 "http://www.w3.org/Graphics/SVG/1.1/DTD/svg11.dtd">
<!-- Generated by graphviz version 2.40.1 (20161225.0304)
 -->
<!-- Title: dependencies Pages: 1 -->
<svg width="504pt" height="284pt"
 viewBox="0.00 0.00 504.00 284.00" xmlns="http://www.w3.org/2000/svg" xmlns:xlink="http://www.w3.org/1999/xlink">
<g id="graph0" class="graph" transform="scale(1 1) rotate(0) translate(4 280)">
<title>dependencies</title>
<polygon fill="#ffffff" stroke="transparent" points="-4,4 -4,-280 500,-280 500,4 -4,4"/>
<text text-anchor="start" x="227.0091" y="-42.4" font-family="sans-serif" font-weight="bold" font-size="14.00" fill="#000000">Legend</text>
<polygon fill="#ffffb3" stroke="transparent" points="14,-10 14,-30 34,-30 34,-10 14,-10"/>
<text text-anchor="start" x="37.629" y="-15.4" font-family="sans-serif" font-size="14.00" fill="#000000"> &#160;Declarations</text>
<polygon fill="#8dd3c7" stroke="transparent" points="127,-10 127,-30 147,-30 147,-10 127,-10"/>
<text text-anchor="start" x="150.7251" y="-15.4" font-family="sans-serif" font-size="14.00" fill="#000000"> &#160;Module</text>
<polygon fill="#80b1d3" stroke="transparent" points="213,-10 213,-30 233,-30 233,-10 213,-10"/>
<text text-anchor="start" x="236.7812" y="-15.4" font-family="sans-serif" font-size="14.00" fill="#000000"> &#160;Bootstrap</text>
<polygon fill="#fdb462" stroke="transparent" points="310,-10 310,-30 330,-30 330,-10 310,-10"/>
<text text-anchor="start" x="333.6732" y="-15.4" font-family="sans-serif" font-size="14.00" fill="#000000"> &#160;Providers</text>
<polygon fill="#fb8072" stroke="transparent" points="406,-10 406,-30 426,-30 426,-10 406,-10"/>
<text text-anchor="start" x="429.7258" y="-15.4" font-family="sans-serif" font-size="14.00" fill="#000000"> &#160;Exports</text>
<g id="clust1" class="cluster">
<title>cluster_ProductsModule</title>
<polygon fill="none" stroke="#000000" stroke-dasharray="1,5" points="78,-70 78,-268 418,-268 418,-70 78,-70"/>
</g>
<g id="clust2" class="cluster">
<title>cluster_ProductsModule_declarations</title>
<polygon fill="none" stroke="#000000" points="86,-78 86,-130 410,-130 410,-78 86,-78"/>
</g>
<g id="clust6" class="cluster">
<title>cluster_ProductsModule_exports</title>
<polygon fill="none" stroke="#000000" points="166,-208 166,-260 316,-260 316,-208 166,-208"/>
</g>
<!-- ProductDetailComponent -->
<g id="node1" class="node">
<title>ProductDetailComponent</title>
<polygon fill="#ffffb3" stroke="#000000" points="401.5884,-122 242.4116,-122 242.4116,-86 401.5884,-86 401.5884,-122"/>
<text text-anchor="middle" x="322" y="-99.8" font-family="Times,serif" font-size="14.00" fill="#000000">ProductDetailComponent</text>
</g>
<!-- ProductsModule -->
<g id="node3" class="node">
<title>ProductsModule</title>
<polygon fill="#8dd3c7" stroke="#000000" points="295.0438,-187 292.0438,-191 271.0438,-191 268.0438,-187 186.9562,-187 186.9562,-151 295.0438,-151 295.0438,-187"/>
<text text-anchor="middle" x="241" y="-164.8" font-family="Times,serif" font-size="14.00" fill="#000000">ProductsModule</text>
</g>
<!-- ProductDetailComponent&#45;&gt;ProductsModule -->
<g id="edge1" class="edge">
<title>ProductDetailComponent&#45;&gt;ProductsModule</title>
<path fill="none" stroke="#000000" d="M268.8636,-122.1061C268.8636,-122.1061 268.8636,-140.991 268.8636,-140.991"/>
<polygon fill="#000000" stroke="#000000" points="265.3637,-140.9909 268.8636,-150.991 272.3637,-140.991 265.3637,-140.9909"/>
</g>
<!-- ProductsComponent -->
<g id="node2" class="node">
<title>ProductsComponent</title>
<polygon fill="#ffffb3" stroke="#000000" points="224.3258,-122 93.6742,-122 93.6742,-86 224.3258,-86 224.3258,-122"/>
<text text-anchor="middle" x="159" y="-99.8" font-family="Times,serif" font-size="14.00" fill="#000000">ProductsComponent</text>
</g>
<!-- ProductsComponent&#45;&gt;ProductsModule -->
<g id="edge2" class="edge">
<title>ProductsComponent&#45;&gt;ProductsModule</title>
<path fill="none" stroke="#000000" d="M205.4457,-122.1061C205.4457,-122.1061 205.4457,-140.991 205.4457,-140.991"/>
<polygon fill="#000000" stroke="#000000" points="201.9457,-140.9909 205.4457,-150.991 208.9457,-140.991 201.9457,-140.9909"/>
</g>
<!-- ProductsComponent  -->
<g id="node4" class="node">
<title>ProductsComponent </title>
<polygon fill="#fb8072" stroke="#000000" points="307.8255,-252 174.1745,-252 174.1745,-216 307.8255,-216 307.8255,-252"/>
<text text-anchor="middle" x="241" y="-229.8" font-family="Times,serif" font-size="14.00" fill="#000000">ProductsComponent </text>
</g>
<!-- ProductsModule&#45;&gt;ProductsComponent  -->
<g id="edge3" class="edge">
<title>ProductsModule&#45;&gt;ProductsComponent </title>
<path fill="none" stroke="#000000" stroke-dasharray="5,2" d="M241,-187.1061C241,-187.1061 241,-205.991 241,-205.991"/>
<polygon fill="#000000" stroke="#000000" points="237.5001,-205.9909 241,-215.991 244.5001,-205.991 237.5001,-205.9909"/>
</g>
</g>
</svg>
