<?xml version="1.0" encoding="UTF-8" standalone="no"?>
<!DOCTYPE svg PUBLIC "-//W3C//DTD SVG 1.1//EN"
 "http://www.w3.org/Graphics/SVG/1.1/DTD/svg11.dtd">
<!-- Generated by graphviz version 2.40.1 (20161225.0304)
 -->
<!-- Title: dependencies Pages: 1 -->
<svg width="1186pt" height="284pt"
 viewBox="0.00 0.00 1186.00 284.00" xmlns="http://www.w3.org/2000/svg" xmlns:xlink="http://www.w3.org/1999/xlink">
<g id="graph0" class="graph" transform="scale(1 1) rotate(0) translate(4 280)">
<title>dependencies</title>
<polygon fill="#ffffff" stroke="transparent" points="-4,4 -4,-280 1182,-280 1182,4 -4,4"/>
<text text-anchor="start" x="568.0091" y="-42.4" font-family="sans-serif" font-weight="bold" font-size="14.00" fill="#000000">Legend</text>
<polygon fill="#ffffb3" stroke="transparent" points="355,-10 355,-30 375,-30 375,-10 355,-10"/>
<text text-anchor="start" x="378.629" y="-15.4" font-family="sans-serif" font-size="14.00" fill="#000000"> &#160;Declarations</text>
<polygon fill="#8dd3c7" stroke="transparent" points="468,-10 468,-30 488,-30 488,-10 468,-10"/>
<text text-anchor="start" x="491.7251" y="-15.4" font-family="sans-serif" font-size="14.00" fill="#000000"> &#160;Module</text>
<polygon fill="#80b1d3" stroke="transparent" points="554,-10 554,-30 574,-30 574,-10 554,-10"/>
<text text-anchor="start" x="577.7812" y="-15.4" font-family="sans-serif" font-size="14.00" fill="#000000"> &#160;Bootstrap</text>
<polygon fill="#fdb462" stroke="transparent" points="651,-10 651,-30 671,-30 671,-10 651,-10"/>
<text text-anchor="start" x="674.6732" y="-15.4" font-family="sans-serif" font-size="14.00" fill="#000000"> &#160;Providers</text>
<polygon fill="#fb8072" stroke="transparent" points="747,-10 747,-30 767,-30 767,-10 747,-10"/>
<text text-anchor="start" x="770.7258" y="-15.4" font-family="sans-serif" font-size="14.00" fill="#000000"> &#160;Exports</text>
<g id="clust1" class="cluster">
<title>cluster_AppModule</title>
<polygon fill="none" stroke="#000000" stroke-dasharray="1,5" points="8,-70 8,-268 1170,-268 1170,-70 8,-70"/>
</g>
<g id="clust2" class="cluster">
<title>cluster_AppModule_declarations</title>
<polygon fill="none" stroke="#000000" points="1040,-78 1040,-130 1162,-130 1162,-78 1040,-78"/>
</g>
<g id="clust4" class="cluster">
<title>cluster_AppModule_imports</title>
<polygon fill="none" stroke="#000000" points="208,-78 208,-130 1032,-130 1032,-78 208,-78"/>
</g>
<g id="clust6" class="cluster">
<title>cluster_AppModule_bootstrap</title>
<polygon fill="none" stroke="#000000" points="542,-208 542,-260 666,-260 666,-208 542,-208"/>
</g>
<g id="clust7" class="cluster">
<title>cluster_AppModule_providers</title>
<polygon fill="none" stroke="#000000" points="16,-78 16,-130 200,-130 200,-78 16,-78"/>
</g>
<!-- AppComponent -->
<g id="node1" class="node">
<title>AppComponent</title>
<polygon fill="#ffffb3" stroke="#000000" points="1153.9399,-122 1048.0601,-122 1048.0601,-86 1153.9399,-86 1153.9399,-122"/>
<text text-anchor="middle" x="1101" y="-99.8" font-family="Times,serif" font-size="14.00" fill="#000000">AppComponent</text>
</g>
<!-- AppModule -->
<g id="node2" class="node">
<title>AppModule</title>
<polygon fill="#8dd3c7" stroke="#000000" points="645.6571,-187 642.6571,-191 621.6571,-191 618.6571,-187 562.3429,-187 562.3429,-151 645.6571,-151 645.6571,-187"/>
<text text-anchor="middle" x="604" y="-164.8" font-family="Times,serif" font-size="14.00" fill="#000000">AppModule</text>
</g>
<!-- AppComponent&#45;&gt;AppModule -->
<g id="edge1" class="edge">
<title>AppComponent&#45;&gt;AppModule</title>
<path fill="none" stroke="#000000" d="M1101,-122.2921C1101,-144.2057 1101,-178 1101,-178 1101,-178 655.9456,-178 655.9456,-178"/>
<polygon fill="#000000" stroke="#000000" points="655.9456,-174.5001 645.9456,-178 655.9456,-181.5001 655.9456,-174.5001"/>
</g>
<!-- AppComponent  -->
<g id="node9" class="node">
<title>AppComponent </title>
<polygon fill="#80b1d3" stroke="#000000" points="658.439,-252 549.561,-252 549.561,-216 658.439,-216 658.439,-252"/>
<text text-anchor="middle" x="604" y="-229.8" font-family="Times,serif" font-size="14.00" fill="#000000">AppComponent </text>
</g>
<!-- AppModule&#45;&gt;AppComponent  -->
<g id="edge8" class="edge">
<title>AppModule&#45;&gt;AppComponent </title>
<path fill="none" stroke="#000000" stroke-dasharray="1,5" d="M604,-187.1061C604,-187.1061 604,-205.991 604,-205.991"/>
<polygon fill="#000000" stroke="#000000" points="600.5001,-205.9909 604,-215.991 607.5001,-205.991 600.5001,-205.9909"/>
</g>
<!-- ClientFinancesModule -->
<g id="node3" class="node">
<title>ClientFinancesModule</title>
<polygon fill="#8dd3c7" stroke="#000000" points="1023.5352,-122 1020.5352,-126 999.5352,-126 996.5352,-122 880.4648,-122 880.4648,-86 1023.5352,-86 1023.5352,-122"/>
<text text-anchor="middle" x="952" y="-99.8" font-family="Times,serif" font-size="14.00" fill="#000000">ClientFinancesModule</text>
</g>
<!-- ClientFinancesModule&#45;&gt;AppModule -->
<g id="edge2" class="edge">
<title>ClientFinancesModule&#45;&gt;AppModule</title>
<path fill="none" stroke="#000000" d="M952,-122.1061C952,-141.3391 952,-169 952,-169 952,-169 655.9769,-169 655.9769,-169"/>
<polygon fill="#000000" stroke="#000000" points="655.977,-165.5001 645.9769,-169 655.9769,-172.5001 655.977,-165.5001"/>
</g>
<!-- ClientSearchModule -->
<g id="node4" class="node">
<title>ClientSearchModule</title>
<polygon fill="#8dd3c7" stroke="#000000" points="861.8599,-122 858.8599,-126 837.8599,-126 834.8599,-122 730.1401,-122 730.1401,-86 861.8599,-86 861.8599,-122"/>
<text text-anchor="middle" x="796" y="-99.8" font-family="Times,serif" font-size="14.00" fill="#000000">ClientSearchModule</text>
</g>
<!-- ClientSearchModule&#45;&gt;AppModule -->
<g id="edge3" class="edge">
<title>ClientSearchModule&#45;&gt;AppModule</title>
<path fill="none" stroke="#000000" d="M796,-122.027C796,-138.3976 796,-160 796,-160 796,-160 655.6611,-160 655.6611,-160"/>
<polygon fill="#000000" stroke="#000000" points="655.6612,-156.5001 645.6611,-160 655.6611,-163.5001 655.6612,-156.5001"/>
</g>
<!-- HomeModule -->
<g id="node5" class="node">
<title>HomeModule</title>
<polygon fill="#8dd3c7" stroke="#000000" points="711.7619,-122 708.7619,-126 687.7619,-126 684.7619,-122 618.2381,-122 618.2381,-86 711.7619,-86 711.7619,-122"/>
<text text-anchor="middle" x="665" y="-99.8" font-family="Times,serif" font-size="14.00" fill="#000000">HomeModule</text>
</g>
<!-- HomeModule&#45;&gt;AppModule -->
<g id="edge4" class="edge">
<title>HomeModule&#45;&gt;AppModule</title>
<path fill="none" stroke="#000000" d="M631.9737,-122.1061C631.9737,-122.1061 631.9737,-140.991 631.9737,-140.991"/>
<polygon fill="#000000" stroke="#000000" points="628.4738,-140.9909 631.9737,-150.991 635.4738,-140.991 628.4738,-140.9909"/>
</g>
<!-- InterviewModule -->
<g id="node6" class="node">
<title>InterviewModule</title>
<polygon fill="#8dd3c7" stroke="#000000" points="600.6882,-122 597.6882,-126 576.6882,-126 573.6882,-122 487.3118,-122 487.3118,-86 600.6882,-86 600.6882,-122"/>
<text text-anchor="middle" x="544" y="-99.8" font-family="Times,serif" font-size="14.00" fill="#000000">InterviewModule</text>
</g>
<!-- InterviewModule&#45;&gt;AppModule -->
<g id="edge5" class="edge">
<title>InterviewModule&#45;&gt;AppModule</title>
<path fill="none" stroke="#000000" d="M581.3829,-122.1061C581.3829,-122.1061 581.3829,-140.991 581.3829,-140.991"/>
<polygon fill="#000000" stroke="#000000" points="577.883,-140.9909 581.3829,-150.991 584.883,-140.991 577.883,-140.9909"/>
</g>
<!-- LoaderModule -->
<g id="node7" class="node">
<title>LoaderModule</title>
<polygon fill="#8dd3c7" stroke="#000000" points="469.6924,-122 466.6924,-126 445.6924,-126 442.6924,-122 370.3076,-122 370.3076,-86 469.6924,-86 469.6924,-122"/>
<text text-anchor="middle" x="420" y="-99.8" font-family="Times,serif" font-size="14.00" fill="#000000">LoaderModule</text>
</g>
<!-- LoaderModule&#45;&gt;AppModule -->
<g id="edge6" class="edge">
<title>LoaderModule&#45;&gt;AppModule</title>
<path fill="none" stroke="#000000" d="M420,-122.027C420,-138.3976 420,-160 420,-160 420,-160 552.2476,-160 552.2476,-160"/>
<polygon fill="#000000" stroke="#000000" points="552.2476,-163.5001 562.2476,-160 552.2475,-156.5001 552.2476,-163.5001"/>
</g>
<!-- NextCheckupModule -->
<g id="node8" class="node">
<title>NextCheckupModule</title>
<polygon fill="#8dd3c7" stroke="#000000" points="352.0282,-122 349.0282,-126 328.0282,-126 325.0282,-122 215.9718,-122 215.9718,-86 352.0282,-86 352.0282,-122"/>
<text text-anchor="middle" x="284" y="-99.8" font-family="Times,serif" font-size="14.00" fill="#000000">NextCheckupModule</text>
</g>
<!-- NextCheckupModule&#45;&gt;AppModule -->
<g id="edge7" class="edge">
<title>NextCheckupModule&#45;&gt;AppModule</title>
<path fill="none" stroke="#000000" d="M284,-122.1061C284,-141.3391 284,-169 284,-169 284,-169 552.1656,-169 552.1656,-169"/>
<polygon fill="#000000" stroke="#000000" points="552.1656,-172.5001 562.1656,-169 552.1656,-165.5001 552.1656,-172.5001"/>
</g>
<!-- GeneralInterceptor -->
<g id="node10" class="node">
<title>GeneralInterceptor</title>
<ellipse fill="#fdb462" stroke="#000000" cx="108" cy="-104" rx="83.9045" ry="18"/>
<text text-anchor="middle" x="108" y="-99.8" font-family="Times,serif" font-size="14.00" fill="#000000">GeneralInterceptor</text>
</g>
<!-- GeneralInterceptor&#45;&gt;AppModule -->
<g id="edge9" class="edge">
<title>GeneralInterceptor&#45;&gt;AppModule</title>
<path fill="none" stroke="#000000" d="M108,-122.2921C108,-144.2057 108,-178 108,-178 108,-178 552.1388,-178 552.1388,-178"/>
<polygon fill="#000000" stroke="#000000" points="552.1388,-181.5001 562.1388,-178 552.1388,-174.5001 552.1388,-181.5001"/>
</g>
</g>
</svg>
