<?xml version="1.0" encoding="UTF-8" standalone="no"?>
<!DOCTYPE svg PUBLIC "-//W3C//DTD SVG 1.1//EN"
 "http://www.w3.org/Graphics/SVG/1.1/DTD/svg11.dtd">
<!-- Generated by graphviz version 2.40.1 (20161225.0304)
 -->
<!-- Title: dependencies Pages: 1 -->
<svg width="524pt" height="284pt"
 viewBox="0.00 0.00 524.00 284.00" xmlns="http://www.w3.org/2000/svg" xmlns:xlink="http://www.w3.org/1999/xlink">
<g id="graph0" class="graph" transform="scale(1 1) rotate(0) translate(4 280)">
<title>dependencies</title>
<polygon fill="#ffffff" stroke="transparent" points="-4,4 -4,-280 520,-280 520,4 -4,4"/>
<text text-anchor="start" x="237.0091" y="-42.4" font-family="sans-serif" font-weight="bold" font-size="14.00" fill="#000000">Legend</text>
<polygon fill="#ffffb3" stroke="transparent" points="24,-10 24,-30 44,-30 44,-10 24,-10"/>
<text text-anchor="start" x="47.629" y="-15.4" font-family="sans-serif" font-size="14.00" fill="#000000"> &#160;Declarations</text>
<polygon fill="#8dd3c7" stroke="transparent" points="137,-10 137,-30 157,-30 157,-10 137,-10"/>
<text text-anchor="start" x="160.7251" y="-15.4" font-family="sans-serif" font-size="14.00" fill="#000000"> &#160;Module</text>
<polygon fill="#80b1d3" stroke="transparent" points="223,-10 223,-30 243,-30 243,-10 223,-10"/>
<text text-anchor="start" x="246.7812" y="-15.4" font-family="sans-serif" font-size="14.00" fill="#000000"> &#160;Bootstrap</text>
<polygon fill="#fdb462" stroke="transparent" points="320,-10 320,-30 340,-30 340,-10 320,-10"/>
<text text-anchor="start" x="343.6732" y="-15.4" font-family="sans-serif" font-size="14.00" fill="#000000"> &#160;Providers</text>
<polygon fill="#fb8072" stroke="transparent" points="416,-10 416,-30 436,-30 436,-10 416,-10"/>
<text text-anchor="start" x="439.7258" y="-15.4" font-family="sans-serif" font-size="14.00" fill="#000000"> &#160;Exports</text>
<g id="clust1" class="cluster">
<title>cluster_InterviewModule</title>
<polygon fill="none" stroke="#000000" stroke-dasharray="1,5" points="8,-70 8,-268 508,-268 508,-70 8,-70"/>
</g>
<g id="clust2" class="cluster">
<title>cluster_InterviewModule_declarations</title>
<polygon fill="none" stroke="#000000" points="16,-78 16,-130 500,-130 500,-78 16,-78"/>
</g>
<g id="clust7" class="cluster">
<title>cluster_InterviewModule_exports</title>
<polygon fill="none" stroke="#000000" points="179,-208 179,-260 333,-260 333,-208 179,-208"/>
</g>
<!-- AddNotesComponent -->
<g id="node1" class="node">
<title>AddNotesComponent</title>
<polygon fill="#ffffb3" stroke="#000000" points="492.0954,-122 353.9046,-122 353.9046,-86 492.0954,-86 492.0954,-122"/>
<text text-anchor="middle" x="423" y="-99.8" font-family="Times,serif" font-size="14.00" fill="#000000">AddNotesComponent</text>
</g>
<!-- InterviewModule -->
<g id="node4" class="node">
<title>InterviewModule</title>
<polygon fill="#8dd3c7" stroke="#000000" points="312.6882,-187 309.6882,-191 288.6882,-191 285.6882,-187 199.3118,-187 199.3118,-151 312.6882,-151 312.6882,-187"/>
<text text-anchor="middle" x="256" y="-164.8" font-family="Times,serif" font-size="14.00" fill="#000000">InterviewModule</text>
</g>
<!-- AddNotesComponent&#45;&gt;InterviewModule -->
<g id="edge1" class="edge">
<title>AddNotesComponent&#45;&gt;InterviewModule</title>
<path fill="none" stroke="#000000" d="M423,-122.1061C423,-141.3391 423,-169 423,-169 423,-169 323.0048,-169 323.0048,-169"/>
<polygon fill="#000000" stroke="#000000" points="323.0049,-165.5001 313.0048,-169 323.0048,-172.5001 323.0049,-165.5001"/>
</g>
<!-- AddObjectiveComponent -->
<g id="node2" class="node">
<title>AddObjectiveComponent</title>
<polygon fill="#ffffb3" stroke="#000000" points="335.8613,-122 176.1387,-122 176.1387,-86 335.8613,-86 335.8613,-122"/>
<text text-anchor="middle" x="256" y="-99.8" font-family="Times,serif" font-size="14.00" fill="#000000">AddObjectiveComponent</text>
</g>
<!-- AddObjectiveComponent&#45;&gt;InterviewModule -->
<g id="edge2" class="edge">
<title>AddObjectiveComponent&#45;&gt;InterviewModule</title>
<path fill="none" stroke="#000000" d="M256,-122.1061C256,-122.1061 256,-140.991 256,-140.991"/>
<polygon fill="#000000" stroke="#000000" points="252.5001,-140.9909 256,-150.991 259.5001,-140.991 252.5001,-140.9909"/>
</g>
<!-- InterviewComponent -->
<g id="node3" class="node">
<title>InterviewComponent</title>
<polygon fill="#ffffb3" stroke="#000000" points="158.4706,-122 23.5294,-122 23.5294,-86 158.4706,-86 158.4706,-122"/>
<text text-anchor="middle" x="91" y="-99.8" font-family="Times,serif" font-size="14.00" fill="#000000">InterviewComponent</text>
</g>
<!-- InterviewComponent&#45;&gt;InterviewModule -->
<g id="edge3" class="edge">
<title>InterviewComponent&#45;&gt;InterviewModule</title>
<path fill="none" stroke="#000000" d="M91,-122.1061C91,-141.3391 91,-169 91,-169 91,-169 189.2164,-169 189.2164,-169"/>
<polygon fill="#000000" stroke="#000000" points="189.2164,-172.5001 199.2164,-169 189.2163,-165.5001 189.2164,-172.5001"/>
</g>
<!-- InterviewComponent  -->
<g id="node5" class="node">
<title>InterviewComponent </title>
<polygon fill="#fb8072" stroke="#000000" points="325.4714,-252 186.5286,-252 186.5286,-216 325.4714,-216 325.4714,-252"/>
<text text-anchor="middle" x="256" y="-229.8" font-family="Times,serif" font-size="14.00" fill="#000000">InterviewComponent </text>
</g>
<!-- InterviewModule&#45;&gt;InterviewComponent  -->
<g id="edge4" class="edge">
<title>InterviewModule&#45;&gt;InterviewComponent </title>
<path fill="none" stroke="#000000" stroke-dasharray="5,2" d="M256,-187.1061C256,-187.1061 256,-205.991 256,-205.991"/>
<polygon fill="#000000" stroke="#000000" points="252.5001,-205.9909 256,-215.991 259.5001,-205.991 252.5001,-205.9909"/>
</g>
</g>
</svg>
