<?xml version="1.0" encoding="UTF-8" standalone="no"?>
<!DOCTYPE svg PUBLIC "-//W3C//DTD SVG 1.1//EN"
 "http://www.w3.org/Graphics/SVG/1.1/DTD/svg11.dtd">
<!-- Generated by graphviz version 2.40.1 (20161225.0304)
 -->
<!-- Title: dependencies Pages: 1 -->
<svg width="1141pt" height="284pt"
 viewBox="0.00 0.00 1141.00 284.00" xmlns="http://www.w3.org/2000/svg" xmlns:xlink="http://www.w3.org/1999/xlink">
<g id="graph0" class="graph" transform="scale(1 1) rotate(0) translate(4 280)">
<title>dependencies</title>
<polygon fill="#ffffff" stroke="transparent" points="-4,4 -4,-280 1137,-280 1137,4 -4,4"/>
<text text-anchor="start" x="545.5091" y="-42.4" font-family="sans-serif" font-weight="bold" font-size="14.00" fill="#000000">Legend</text>
<polygon fill="#ffffb3" stroke="transparent" points="332.5,-10 332.5,-30 352.5,-30 352.5,-10 332.5,-10"/>
<text text-anchor="start" x="356.129" y="-15.4" font-family="sans-serif" font-size="14.00" fill="#000000"> &#160;Declarations</text>
<polygon fill="#8dd3c7" stroke="transparent" points="445.5,-10 445.5,-30 465.5,-30 465.5,-10 445.5,-10"/>
<text text-anchor="start" x="469.2251" y="-15.4" font-family="sans-serif" font-size="14.00" fill="#000000"> &#160;Module</text>
<polygon fill="#80b1d3" stroke="transparent" points="531.5,-10 531.5,-30 551.5,-30 551.5,-10 531.5,-10"/>
<text text-anchor="start" x="555.2812" y="-15.4" font-family="sans-serif" font-size="14.00" fill="#000000"> &#160;Bootstrap</text>
<polygon fill="#fdb462" stroke="transparent" points="628.5,-10 628.5,-30 648.5,-30 648.5,-10 628.5,-10"/>
<text text-anchor="start" x="652.1732" y="-15.4" font-family="sans-serif" font-size="14.00" fill="#000000"> &#160;Providers</text>
<polygon fill="#fb8072" stroke="transparent" points="724.5,-10 724.5,-30 744.5,-30 744.5,-10 724.5,-10"/>
<text text-anchor="start" x="748.2258" y="-15.4" font-family="sans-serif" font-size="14.00" fill="#000000"> &#160;Exports</text>
<g id="clust1" class="cluster">
<title>cluster_SharedComponentsModule</title>
<polygon fill="none" stroke="#000000" stroke-dasharray="1,5" points="8,-70 8,-268 1125,-268 1125,-70 8,-70"/>
</g>
<g id="clust2" class="cluster">
<title>cluster_SharedComponentsModule_declarations</title>
<polygon fill="none" stroke="#000000" points="33,-78 33,-130 1106,-130 1106,-78 33,-78"/>
</g>
<g id="clust12" class="cluster">
<title>cluster_SharedComponentsModule_exports</title>
<polygon fill="none" stroke="#000000" points="16,-208 16,-260 1117,-260 1117,-208 16,-208"/>
</g>
<!-- ClientHeaderComponent -->
<g id="node1" class="node">
<title>ClientHeaderComponent</title>
<polygon fill="#ffffb3" stroke="#000000" points="1097.9664,-122 942.0336,-122 942.0336,-86 1097.9664,-86 1097.9664,-122"/>
<text text-anchor="middle" x="1020" y="-99.8" font-family="Times,serif" font-size="14.00" fill="#000000">ClientHeaderComponent</text>
</g>
<!-- SharedComponentsModule -->
<g id="node9" class="node">
<title>SharedComponentsModule</title>
<polygon fill="#8dd3c7" stroke="#000000" points="633.6993,-187 630.6993,-191 609.6993,-191 606.6993,-187 464.3007,-187 464.3007,-151 633.6993,-151 633.6993,-187"/>
<text text-anchor="middle" x="549" y="-164.8" font-family="Times,serif" font-size="14.00" fill="#000000">SharedComponentsModule</text>
</g>
<!-- ClientHeaderComponent&#45;&gt;SharedComponentsModule -->
<g id="edge1" class="edge">
<title>ClientHeaderComponent&#45;&gt;SharedComponentsModule</title>
<path fill="none" stroke="#000000" d="M945.6418,-122.2222C945.6418,-140.8285 945.6418,-167 945.6418,-167 945.6418,-167 643.6031,-167 643.6031,-167"/>
<polygon fill="#000000" stroke="#000000" points="643.6031,-163.5001 633.6031,-167 643.6031,-170.5001 643.6031,-163.5001"/>
</g>
<!-- DateValidator -->
<g id="node2" class="node">
<title>DateValidator</title>
<polygon fill="#ffffb3" stroke="#000000" points="923.7951,-122 828.2049,-122 828.2049,-86 923.7951,-86 923.7951,-122"/>
<text text-anchor="middle" x="876" y="-99.8" font-family="Times,serif" font-size="14.00" fill="#000000">DateValidator</text>
</g>
<!-- DateValidator&#45;&gt;SharedComponentsModule -->
<g id="edge2" class="edge">
<title>DateValidator&#45;&gt;SharedComponentsModule</title>
<path fill="none" stroke="#000000" d="M893.2991,-122.0336C893.2991,-139.0597 893.2991,-162 893.2991,-162 893.2991,-162 643.666,-162 643.666,-162"/>
<polygon fill="#000000" stroke="#000000" points="643.666,-158.5001 633.666,-162 643.666,-165.5001 643.666,-158.5001"/>
</g>
<!-- EmailValidator -->
<g id="node3" class="node">
<title>EmailValidator</title>
<polygon fill="#ffffb3" stroke="#000000" points="810.3077,-122 707.6923,-122 707.6923,-86 810.3077,-86 810.3077,-122"/>
<text text-anchor="middle" x="759" y="-99.8" font-family="Times,serif" font-size="14.00" fill="#000000">EmailValidator</text>
</g>
<!-- EmailValidator&#45;&gt;SharedComponentsModule -->
<g id="edge3" class="edge">
<title>EmailValidator&#45;&gt;SharedComponentsModule</title>
<path fill="none" stroke="#000000" d="M776.4679,-122.2396C776.4679,-137.5706 776.4679,-157 776.4679,-157 776.4679,-157 643.7006,-157 643.7006,-157"/>
<polygon fill="#000000" stroke="#000000" points="643.7007,-153.5001 633.7006,-157 643.7006,-160.5001 643.7007,-153.5001"/>
</g>
<!-- MaxValue -->
<g id="node4" class="node">
<title>MaxValue</title>
<polygon fill="#ffffb3" stroke="#000000" points="689.5856,-122 614.4144,-122 614.4144,-86 689.5856,-86 689.5856,-122"/>
<text text-anchor="middle" x="652" y="-99.8" font-family="Times,serif" font-size="14.00" fill="#000000">MaxValue</text>
</g>
<!-- MaxValue&#45;&gt;SharedComponentsModule -->
<g id="edge4" class="edge">
<title>MaxValue&#45;&gt;SharedComponentsModule</title>
<path fill="none" stroke="#000000" d="M624.0284,-122.1061C624.0284,-122.1061 624.0284,-140.991 624.0284,-140.991"/>
<polygon fill="#000000" stroke="#000000" points="620.5285,-140.9909 624.0284,-150.991 627.5285,-140.991 620.5285,-140.9909"/>
</g>
<!-- NoSpecialChars -->
<g id="node5" class="node">
<title>NoSpecialChars</title>
<polygon fill="#ffffb3" stroke="#000000" points="596.4706,-122 489.5294,-122 489.5294,-86 596.4706,-86 596.4706,-122"/>
<text text-anchor="middle" x="543" y="-99.8" font-family="Times,serif" font-size="14.00" fill="#000000">NoSpecialChars</text>
</g>
<!-- NoSpecialChars&#45;&gt;SharedComponentsModule -->
<g id="edge5" class="edge">
<title>NoSpecialChars&#45;&gt;SharedComponentsModule</title>
<path fill="none" stroke="#000000" d="M543,-122.1061C543,-122.1061 543,-140.991 543,-140.991"/>
<polygon fill="#000000" stroke="#000000" points="539.5001,-140.9909 543,-150.991 546.5001,-140.991 539.5001,-140.9909"/>
</g>
<!-- NotNumbersDirective -->
<g id="node6" class="node">
<title>NotNumbersDirective</title>
<polygon fill="#ffffb3" stroke="#000000" points="471.3976,-122 330.6024,-122 330.6024,-86 471.3976,-86 471.3976,-122"/>
<text text-anchor="middle" x="401" y="-99.8" font-family="Times,serif" font-size="14.00" fill="#000000">NotNumbersDirective</text>
</g>
<!-- NotNumbersDirective&#45;&gt;SharedComponentsModule -->
<g id="edge6" class="edge">
<title>NotNumbersDirective&#45;&gt;SharedComponentsModule</title>
<path fill="none" stroke="#000000" d="M471.2534,-104C476.8257,-104 480.3566,-104 480.3566,-104 480.3566,-104 480.3566,-140.8939 480.3566,-140.8939"/>
<polygon fill="#000000" stroke="#000000" points="476.8567,-140.8938 480.3566,-150.8939 483.8567,-140.8939 476.8567,-140.8938"/>
</g>
<!-- PrintoutComponent -->
<g id="node7" class="node">
<title>PrintoutComponent</title>
<polygon fill="#ffffb3" stroke="#000000" points="313.4482,-122 186.5518,-122 186.5518,-86 313.4482,-86 313.4482,-122"/>
<text text-anchor="middle" x="250" y="-99.8" font-family="Times,serif" font-size="14.00" fill="#000000">PrintoutComponent</text>
</g>
<!-- PrintoutComponent&#45;&gt;SharedComponentsModule -->
<g id="edge7" class="edge">
<title>PrintoutComponent&#45;&gt;SharedComponentsModule</title>
<path fill="none" stroke="#000000" d="M308.5987,-122.0091C308.5987,-138.0494 308.5987,-159 308.5987,-159 308.5987,-159 454.2435,-159 454.2435,-159"/>
<polygon fill="#000000" stroke="#000000" points="454.2435,-162.5001 464.2435,-159 454.2435,-155.5001 454.2435,-162.5001"/>
</g>
<!-- RealEmailValidator -->
<g id="node8" class="node">
<title>RealEmailValidator</title>
<polygon fill="#ffffb3" stroke="#000000" points="168.9636,-122 41.0364,-122 41.0364,-86 168.9636,-86 168.9636,-122"/>
<text text-anchor="middle" x="105" y="-99.8" font-family="Times,serif" font-size="14.00" fill="#000000">RealEmailValidator</text>
</g>
<!-- RealEmailValidator&#45;&gt;SharedComponentsModule -->
<g id="edge8" class="edge">
<title>RealEmailValidator&#45;&gt;SharedComponentsModule</title>
<path fill="none" stroke="#000000" d="M162.3568,-122.2667C162.3568,-140.5552 162.3568,-166 162.3568,-166 162.3568,-166 454.1495,-166 454.1495,-166"/>
<polygon fill="#000000" stroke="#000000" points="454.1495,-169.5001 464.1495,-166 454.1495,-162.5001 454.1495,-169.5001"/>
</g>
<!-- ClientHeaderComponent  -->
<g id="node10" class="node">
<title>ClientHeaderComponent </title>
<polygon fill="#fb8072" stroke="#000000" points="1108.9671,-252 949.0329,-252 949.0329,-216 1108.9671,-216 1108.9671,-252"/>
<text text-anchor="middle" x="1029" y="-229.8" font-family="Times,serif" font-size="14.00" fill="#000000">ClientHeaderComponent </text>
</g>
<!-- SharedComponentsModule&#45;&gt;ClientHeaderComponent  -->
<g id="edge9" class="edge">
<title>SharedComponentsModule&#45;&gt;ClientHeaderComponent </title>
<path fill="none" stroke="#000000" stroke-dasharray="5,2" d="M633.8534,-172C770.3724,-172 1023.625,-172 1023.625,-172 1023.625,-172 1023.625,-205.7333 1023.625,-205.7333"/>
<polygon fill="#000000" stroke="#000000" points="1020.1251,-205.7333 1023.625,-215.7333 1027.1251,-205.7333 1020.1251,-205.7333"/>
</g>
<!-- DateValidator  -->
<g id="node11" class="node">
<title>DateValidator </title>
<polygon fill="#fb8072" stroke="#000000" points="931.2948,-252 832.7052,-252 832.7052,-216 931.2948,-216 931.2948,-252"/>
<text text-anchor="middle" x="882" y="-229.8" font-family="Times,serif" font-size="14.00" fill="#000000">DateValidator </text>
</g>
<!-- SharedComponentsModule&#45;&gt;DateValidator  -->
<g id="edge10" class="edge">
<title>SharedComponentsModule&#45;&gt;DateValidator </title>
<path fill="none" stroke="#000000" stroke-dasharray="5,2" d="M633.9596,-177C726.9375,-177 862.9509,-177 862.9509,-177 862.9509,-177 862.9509,-205.9648 862.9509,-205.9648"/>
<polygon fill="#000000" stroke="#000000" points="859.451,-205.9648 862.9509,-215.9648 866.451,-205.9649 859.451,-205.9648"/>
</g>
<!-- EmailValidator  -->
<g id="node12" class="node">
<title>EmailValidator </title>
<polygon fill="#fb8072" stroke="#000000" points="814.8074,-252 709.1926,-252 709.1926,-216 814.8074,-216 814.8074,-252"/>
<text text-anchor="middle" x="762" y="-229.8" font-family="Times,serif" font-size="14.00" fill="#000000">EmailValidator </text>
</g>
<!-- SharedComponentsModule&#45;&gt;EmailValidator  -->
<g id="edge11" class="edge">
<title>SharedComponentsModule&#45;&gt;EmailValidator </title>
<path fill="none" stroke="#000000" stroke-dasharray="5,2" d="M633.7138,-182C685.8576,-182 742.7821,-182 742.7821,-182 742.7821,-182 742.7821,-205.8129 742.7821,-205.8129"/>
<polygon fill="#000000" stroke="#000000" points="739.2822,-205.8129 742.7821,-215.8129 746.2822,-205.813 739.2822,-205.8129"/>
</g>
<!-- MaxValue  -->
<g id="node13" class="node">
<title>MaxValue </title>
<polygon fill="#fb8072" stroke="#000000" points="691.0867,-252 612.9133,-252 612.9133,-216 691.0867,-216 691.0867,-252"/>
<text text-anchor="middle" x="652" y="-229.8" font-family="Times,serif" font-size="14.00" fill="#000000">MaxValue </text>
</g>
<!-- SharedComponentsModule&#45;&gt;MaxValue  -->
<g id="edge12" class="edge">
<title>SharedComponentsModule&#45;&gt;MaxValue </title>
<path fill="none" stroke="#000000" stroke-dasharray="5,2" d="M623.1534,-187.1061C623.1534,-187.1061 623.1534,-205.991 623.1534,-205.991"/>
<polygon fill="#000000" stroke="#000000" points="619.6535,-205.9909 623.1534,-215.991 626.6535,-205.991 619.6535,-205.9909"/>
</g>
<!-- NoSpecialChars  -->
<g id="node14" class="node">
<title>NoSpecialChars </title>
<polygon fill="#fb8072" stroke="#000000" points="594.4716,-252 483.5284,-252 483.5284,-216 594.4716,-216 594.4716,-252"/>
<text text-anchor="middle" x="539" y="-229.8" font-family="Times,serif" font-size="14.00" fill="#000000">NoSpecialChars </text>
</g>
<!-- SharedComponentsModule&#45;&gt;NoSpecialChars  -->
<g id="edge13" class="edge">
<title>SharedComponentsModule&#45;&gt;NoSpecialChars </title>
<path fill="none" stroke="#000000" stroke-dasharray="5,2" d="M539,-187.1061C539,-187.1061 539,-205.991 539,-205.991"/>
<polygon fill="#000000" stroke="#000000" points="535.5001,-205.9909 539,-215.991 542.5001,-205.991 535.5001,-205.9909"/>
</g>
<!-- NotNumbersDirective  -->
<g id="node15" class="node">
<title>NotNumbersDirective </title>
<polygon fill="#fb8072" stroke="#000000" points="465.897,-252 322.103,-252 322.103,-216 465.897,-216 465.897,-252"/>
<text text-anchor="middle" x="394" y="-229.8" font-family="Times,serif" font-size="14.00" fill="#000000">NotNumbersDirective </text>
</g>
<!-- SharedComponentsModule&#45;&gt;NotNumbersDirective  -->
<g id="edge14" class="edge">
<title>SharedComponentsModule&#45;&gt;NotNumbersDirective </title>
<path fill="none" stroke="#000000" stroke-dasharray="5,2" d="M474.8566,-187.1061C474.8566,-206.3391 474.8566,-234 474.8566,-234 474.8566,-234 473.9913,-234 473.9913,-234"/>
<polygon fill="#000000" stroke="#000000" points="476.2036,-230.5001 466.2035,-234 476.2035,-237.5001 476.2036,-230.5001"/>
</g>
<!-- PrintoutComponent  -->
<g id="node16" class="node">
<title>PrintoutComponent </title>
<polygon fill="#fb8072" stroke="#000000" points="303.9474,-252 174.0526,-252 174.0526,-216 303.9474,-216 303.9474,-252"/>
<text text-anchor="middle" x="239" y="-229.8" font-family="Times,serif" font-size="14.00" fill="#000000">PrintoutComponent </text>
</g>
<!-- SharedComponentsModule&#45;&gt;PrintoutComponent  -->
<g id="edge15" class="edge">
<title>SharedComponentsModule&#45;&gt;PrintoutComponent </title>
<path fill="none" stroke="#000000" stroke-dasharray="5,2" d="M464.0198,-180C374.1968,-180 245.375,-180 245.375,-180 245.375,-180 245.375,-205.7181 245.375,-205.7181"/>
<polygon fill="#000000" stroke="#000000" points="241.8751,-205.718 245.375,-215.7181 248.8751,-205.7181 241.8751,-205.718"/>
</g>
<!-- RealEmailValidator  -->
<g id="node17" class="node">
<title>RealEmailValidator </title>
<polygon fill="#fb8072" stroke="#000000" points="155.9644,-252 24.0356,-252 24.0356,-216 155.9644,-216 155.9644,-252"/>
<text text-anchor="middle" x="90" y="-229.8" font-family="Times,serif" font-size="14.00" fill="#000000">RealEmailValidator </text>
</g>
<!-- SharedComponentsModule&#45;&gt;RealEmailValidator  -->
<g id="edge16" class="edge">
<title>SharedComponentsModule&#45;&gt;RealEmailValidator </title>
<path fill="none" stroke="#000000" stroke-dasharray="5,2" d="M464.2409,-173C333.7058,-173 98.375,-173 98.375,-173 98.375,-173 98.375,-205.698 98.375,-205.698"/>
<polygon fill="#000000" stroke="#000000" points="94.8751,-205.698 98.375,-215.698 101.8751,-205.698 94.8751,-205.698"/>
</g>
</g>
</svg>
