<?xml version="1.0" encoding="UTF-8"?>
<svg width="50px" height="39px" viewBox="0 0 50 39" version="1.1" xmlns="http://www.w3.org/2000/svg" xmlns:xlink="http://www.w3.org/1999/xlink">
    <!-- Generator: Sketch 48.2 (47327) - http://www.bohemiancoding.com/sketch -->
    <title>Shape</title>
    <desc>Created with Sketch.</desc>
    <defs></defs>
    <g id="PFPP-/-Dashboard-/-Salud-financiera" stroke="none" stroke-width="1" fill="none" fill-rule="evenodd" transform="translate(-154.000000, -814.000000)">
        <g id="Group-10" transform="translate(154.000000, 567.000000)" fill="#AAAAAA" fill-rule="nonzero">
            <path d="M12,260 C11.44,260 11,260.44 11,261 C11,261.56 11.44,262 12,262 C12.56,262 13,261.56 13,261 C13,260.44 12.56,260 12,260 Z M12,264 C10.34,264 9,262.66 9,261 C9,259.34 10.34,258 12,258 C13.66,258 15,259.34 15,261 C15,262.66 13.66,264 12,264 Z M20,253 L29,253 L29,255 L20,255 L20,253 Z M47.816879,268.262854 C47.633758,268.134313 47.4872611,268.005771 47.3041401,267.858867 L46.5533439,267.179433 L47.3041401,266.5 C47.4323248,266.371459 47.5421975,266.206191 47.633758,266.004197 C47.7253185,265.802204 47.7619427,265.545121 47.7619427,265.269675 C47.7619427,264.994229 47.7253185,264.737146 47.6520701,264.369885 C47.5421975,263.855719 47.3407643,263.433368 47.0111465,263.066107 C46.6265924,262.66212 46.2237261,262.478489 45.7476115,262.478489 L45.4729299,262.496852 L44.5756369,262.698846 L44.3925159,261.799056 C42.6345541,253.370409 36.1154459,249 25.8606688,249 C21.2826433,249 17.3089172,249.973242 14.0676752,251.662644 L13.6281847,251.901364 L11.3025478,249.275446 C11.0095541,249.091815 10.7165605,249 10.441879,249 C9.6361465,249 9.41640127,249.826338 9.36146497,250.193599 L7.27388535,259.613851 C6.74283439,260.642183 6.30334395,261.799056 5.99203822,263.011018 L5.8089172,263.690451 L4.32563694,263.690451 C3.04378981,263.690451 2,264.718783 2,265.967471 L2,270.741868 C2,271.990556 3.04378981,273.018888 4.32563694,273.018888 L6.21178344,273.018888 L6.46815287,273.551417 C7.38375796,275.571354 9.7093949,277.426023 12.4012739,278.564533 L12.9506369,278.803253 L12.9506369,284 L20.2571656,284 L20.2571656,280.272298 L21.2093949,280.327387 C21.9968153,280.382476 23.5899682,280.400839 25.2380573,280.400839 C27.5820064,280.400839 29.852707,280.364113 30.218949,280.327387 L31.2078025,280.253935 L31.2078025,284 L38.4960191,284 L38.4960191,278.876705 L38.9538217,278.619622 C42.3598726,276.618048 44.410828,272.412907 44.7953822,269.144281 L45.0151274,267.344701 L46.3335987,268.575026 C46.5716561,268.795383 46.8097134,269.01574 47.0843949,269.181007 C47.3773885,269.401364 47.6520701,269.548269 47.9450637,269.658447 L48,268.391396 L47.816879,268.262854 Z M49.1923642,266.87037 L50,266.87037 L49.8164464,267.833333 L49.5961821,271.796296 L48.6784141,271.740741 C47.8524229,271.685185 47.0447871,271.425926 46.2922173,270.944444 C45.5947137,274.240741 43.4287812,277.944444 40.253304,280.037037 L40.253304,286 L29.2767988,286 L29.2767988,282.333333 C28.267254,282.351852 26.6703377,282.37037 25.1284875,282.37037 C24.3024963,282.37037 22.9809104,282.351852 21.9530103,282.333333 L21.9530103,286 L10.9765051,286 L10.9765051,280.111111 C8.79221733,279.055556 6.25917768,277.388889 4.91923642,274.925926 L4.16666667,274.925926 C1.8722467,274.925926 0,273.055556 0,270.777778 L0,265.962963 C0,263.685185 1.8722467,261.814815 4.16666667,261.814815 L4.25844347,261.814815 C4.57048458,260.759259 4.95594714,258.592593 5.43318649,257.666667 L7.39720999,249.740741 C7.67254038,248.074074 8.81057269,247.018519 10.2973568,247.018519 C10.9030837,247.018519 11.4904552,247.185185 12.0778267,247.518519 L13.5279001,249.666667 C16.9603524,247.962963 21.071953,247 25.7525698,247 C39.2437592,247 44.4016153,254.259259 45.9434655,260.592593 C46.8245228,260.685185 47.6138032,261.074074 48.2745962,261.777778 C48.8619677,262.407407 49.2290749,263.148148 49.3759178,263.962963 C49.4860499,264.425926 49.541116,264.833333 49.541116,265.259259 C49.541116,265.796296 49.4493392,266.296296 49.2474302,266.759259 L49.1923642,266.87037 Z" id="Shape"></path>
        </g>
    </g>
</svg>