<?xml version="1.0" encoding="UTF-8"?>
<svg width="55px" height="53px" viewBox="0 0 55 53" version="1.1" xmlns="http://www.w3.org/2000/svg" xmlns:xlink="http://www.w3.org/1999/xlink">
    <!-- Generator: Sketch 48.2 (47327) - http://www.bohemiancoding.com/sketch -->
    <title>Shape</title>
    <desc>Created with Sketch.</desc>
    <defs></defs>
    <g id="PFPP-/-Dashboard-/-Salud-financiera" stroke="none" stroke-width="1" fill="none" fill-rule="evenodd" transform="translate(-551.000000, -567.000000)">
        <g id="Group-10" transform="translate(154.000000, 567.000000)" fill="#AAAAAA" fill-rule="nonzero">
            <path d="M405.507997,22.037422 L405.507997,50.9615385 L417.502946,50.9615385 L417.502946,32.3674636 L417.502946,30.3014553 L419.502104,30.3014553 L429.497896,30.3014553 L431.497054,30.3014553 L431.497054,32.3674636 L431.497054,50.9615385 L443.492003,50.9615385 L443.492003,22.037422 L443.851852,22.037422 L424.5,2.03846154 L405.148148,22.037422 L405.507997,22.037422 Z M419.407407,50.9615385 L429.592593,50.9615385 L429.592593,32.6153846 L419.407407,32.6153846 L419.407407,50.9615385 Z M452,26.8669231 L450.32963,28.5384615 L445.888889,24.0946154 L445.888889,50.9615385 L445.888889,53 L443.851852,53 L405.148148,53 L403.111111,53 L403.111111,50.9615385 L403.111111,24.0946154 L398.67037,28.5384615 L397,26.8669231 L423.848148,0 L424.5,0.652307692 L425.151852,0 L452,26.8669231 Z M439.777778,4.23982389 L437.740741,4.23982389 L437.740741,7.62992191 L435.703704,5.34050507 L435.703704,2.03846154 L441.814815,2.03846154 L441.814815,12.2307692 L439.777778,9.94135238 L439.777778,4.23982389 Z" id="Shape"></path>
        </g>
    </g>
</svg>