<?xml version="1.0" encoding="UTF-8"?>
<svg width="53px" height="35px" viewBox="0 0 53 35" version="1.1" xmlns="http://www.w3.org/2000/svg" xmlns:xlink="http://www.w3.org/1999/xlink">
    <!-- Generator: Sketch 48.2 (47327) - http://www.bohemiancoding.com/sketch -->
    <title>Group 2</title>
    <desc>Created with Sketch.</desc>
    <defs></defs>
    <g id="PFPP-/-Dashboard-/-Salud-financiera" stroke="none" stroke-width="1" fill="none" fill-rule="evenodd" transform="translate(-155.000000, -578.000000)">
        <g id="Group-10" transform="translate(154.000000, 567.000000)" fill="#AAAAAA">
            <g id="Group-2" transform="translate(1.000000, 11.000000)">
                <path d="M50.9615385,2.05882353 L2.03846154,2.05882353 L2.03846154,32.9411765 L50.9615385,32.9411765 L50.9615385,2.05882353 Z M0,35 L0,0 L53,0 L53,2.91666667 L53,4.375 L53,35 L0,35 Z" id="Shape-Copy" fill-rule="nonzero"></path>
                <path d="M34,23.1244395 C34,24.0399896 33.825591,24.8294063 33.4767677,25.492713 C33.1279444,26.1560198 32.6707099,26.7118812 32.1050505,27.1603139 C31.5393911,27.6087466 30.8888926,27.9544084 30.1535354,28.1973094 C29.4181781,28.4402105 28.6545494,28.599028 27.8626263,28.6737668 L27.8626263,31 L26.4767677,31 L26.4767677,28.7017937 C25.590568,28.683109 24.7562329,28.5756736 23.9737374,28.3794843 C23.1912419,28.183295 22.5030333,27.8656599 21.9090909,27.4265695 C21.3151485,26.9874791 20.8484865,26.4176044 20.5090909,25.7169283 C20.1696953,25.0162521 20,24.1427556 20,23.0964126 L22.6020202,23.0964126 C22.6020202,23.750377 22.7010091,24.2968962 22.8989899,24.7359865 C23.0969707,25.1750769 23.3656549,25.5300809 23.7050505,25.801009 C24.0444461,26.0719371 24.4498293,26.2727946 24.9212121,26.4035874 C25.3925949,26.5343803 25.9111083,26.6184602 26.4767677,26.6558296 L26.4767677,19.4809417 C25.7414105,19.2567253 25.010778,19.0091568 24.2848485,18.7382287 C23.5589189,18.4673006 22.9037066,18.1216389 22.3191919,17.7012332 C21.7346772,17.2808275 21.2633015,16.7529927 20.9050505,16.117713 C20.5467996,15.4824333 20.3676768,14.6883456 20.3676768,13.735426 C20.3676768,12.8385605 20.5420858,12.0631572 20.8909091,11.4091928 C21.2397324,10.7552284 21.7016806,10.2087092 22.2767677,9.76961883 C22.8518547,9.33052845 23.5023533,8.99420894 24.2282828,8.76065022 C24.9542124,8.52709151 25.7036998,8.38228728 26.4767677,8.32623318 L26.4767677,6 L27.8626263,6 L27.8626263,8.35426009 C28.6356941,8.41031418 29.356899,8.536434 30.0262626,8.73262332 C30.6956262,8.92881264 31.2848459,9.2184211 31.7939394,9.6014574 C32.3030328,9.98449369 32.7178435,10.4796307 33.0383838,11.0868834 C33.3589242,11.6941361 33.5474745,12.4461839 33.6040404,13.3430493 L31.0020202,13.3430493 C30.9831649,12.8385625 30.8888897,12.4181631 30.7191919,12.0818386 C30.5494941,11.745514 30.3232337,11.4652478 30.040404,11.2410314 C29.7575743,11.016815 29.4276113,10.8393131 29.0505051,10.7085202 C28.6733988,10.5777273 28.2774432,10.4843052 27.8626263,10.4282511 L27.8626263,17.4069507 C28.6168388,17.631167 29.3568987,17.8693934 30.0828283,18.1216368 C30.8087578,18.3738802 31.4639701,18.7101997 32.0484848,19.1306054 C32.6329996,19.5510111 33.1043753,20.0788459 33.4626263,20.7141256 C33.8208772,21.3494053 34,22.1528352 34,23.1244395 Z M26.4767677,10.4002242 C26.0242402,10.4375936 25.5905745,10.5216735 25.1757576,10.6524664 C24.7609407,10.7832592 24.3885538,10.9794456 24.0585859,11.2410314 C23.7286179,11.5026172 23.4693612,11.8249233 23.2808081,12.2079596 C23.0922549,12.5909959 22.9979798,13.044093 22.9979798,13.5672646 C22.9979798,14.0904361 23.1016825,14.5388621 23.3090909,14.9125561 C23.5164994,15.28625 23.7851835,15.6085562 24.1151515,15.8794843 C24.4451195,16.1504124 24.8175063,16.3746254 25.2323232,16.55213 C25.6471401,16.7296347 26.0619508,16.8744389 26.4767677,16.9865471 L26.4767677,10.4002242 Z M31.369697,23.2365471 C31.369697,22.6946909 31.2659943,22.2415937 31.0585859,21.8772422 C30.8511774,21.5128906 30.5824932,21.2045977 30.2525253,20.9523543 C29.9225573,20.7001108 29.5454567,20.4899112 29.1212121,20.3217489 C28.6969676,20.1535866 28.2774432,20.0041113 27.8626263,19.8733184 L27.8626263,26.6278027 C28.3151538,26.5530639 28.7535332,26.4362863 29.1777778,26.2774664 C29.6020223,26.1186464 29.9791229,25.9037756 30.3090909,25.6328475 C30.6390589,25.3619194 30.8983156,25.030271 31.0868687,24.6378924 C31.2754218,24.2455137 31.369697,23.7784033 31.369697,23.2365471 Z" id="$"></path>
            </g>
        </g>
    </g>
</svg>