<?xml version="1.0" encoding="UTF-8"?>
<svg width="27px" height="22px" viewBox="0 0 27 22" version="1.1" xmlns="http://www.w3.org/2000/svg" xmlns:xlink="http://www.w3.org/1999/xlink">
    <!-- Generator: Sketch 47.1 (45422) - http://www.bohemiancoding.com/sketch -->
    <title>Shape</title>
    <desc>Created with Sketch.</desc>
    <defs></defs>
    <g id="Page-1" stroke="none" stroke-width="1" fill="none" fill-rule="evenodd">
        <g id="PFPP-/-SF-v1-Copy-53" transform="translate(-111.000000, -180.000000)" fill-rule="nonzero" fill="#AAA20A">
            <g id="Group-5" transform="translate(89.000000, 151.000000)">
                <g id="Group">
                    <g id="Group-11">
                        <path d="M40.9381089,29.98 C38.7781089,29.98 36.7081089,30.88 35.2781089,32.39 C33.8481089,30.88 31.7881089,29.98 29.6281089,29.98 C28.5981089,29.98 27.5881089,30.17 26.6381089,30.56 C24.7481089,31.34 23.2881089,32.78 22.5381089,34.62 C21.7981089,36.43 21.8181089,38.41 22.6181089,40.2 C24.0981089,43.52 33.3481089,49.9 34.6481089,50.78 C34.7081089,50.83 34.7781089,50.87 34.8581089,50.91 C34.9881089,50.97 35.1381089,51 35.2781089,51 C35.4181089,51 35.5581089,50.97 35.6981089,50.91 C35.7681089,50.88 35.8481089,50.83 35.9181089,50.78 C37.2181089,49.9 46.4581089,43.53 47.9381089,40.2 C48.7381089,38.41 48.7681089,36.43 48.0281089,34.62 C47.2681089,32.78 45.8081089,31.34 43.9181089,30.56 C42.9681089,30.17 41.9681089,29.98 40.9381089,29.98 Z M40.9381089,30.97 C41.7981089,30.97 42.6781089,31.13 43.5281089,31.48 C46.8881089,32.85 48.4481089,36.58 47.0081089,39.8 C45.5881089,43 35.4581089,49.89 35.2781089,50.01 C35.1081089,49.89 24.9681089,43 23.5481089,39.8 C22.1181089,36.58 23.6681089,32.85 27.0281089,31.48 C27.8781089,31.13 28.7581089,30.97 29.6281089,30.97 C31.8981089,30.97 34.0681089,32.09 35.2781089,34.02 C36.4981089,32.09 38.6681089,30.97 40.9381089,30.97 Z" id="Shape"></path>
                    </g>
                </g>
            </g>
        </g>
    </g>
</svg>