<?xml version="1.0" encoding="UTF-8"?>
<svg width="18px" height="19px" viewBox="0 0 18 19" version="1.1" xmlns="http://www.w3.org/2000/svg" xmlns:xlink="http://www.w3.org/1999/xlink">
    <!-- Generator: Sketch 48.2 (47327) - http://www.bohemiancoding.com/sketch -->
    <title>garbage</title>
    <desc>Created with Sketch.</desc>
    <defs></defs>
    <g id="PFPP-/-Dashboard-/-Notas-y-acuerdos" stroke="none" stroke-width="1" fill="none" fill-rule="evenodd" transform="translate(-841.000000, -279.000000)">
        <g id="Group-3-Copy" transform="translate(87.000000, 169.000000)" fill="#344653" fill-rule="nonzero">
            <g id="item-nota" transform="translate(71.000000, 101.000000)">
                <g id="garbage" transform="translate(683.000000, 9.000000)">
                    <path d="M17.4193548,2.73100616 L13.2221198,2.73100616 L13.2221198,2.08726899 C13.2221198,0.936344969 12.2267281,0 11.0032258,0 L7.01336406,0 C5.78986175,0 4.79447005,0.936344969 4.79447005,2.08726899 L4.79447005,2.73100616 L0.597235023,2.73100616 C0.286175115,2.73100616 0.0373271889,2.9650924 0.0373271889,3.25770021 C0.0373271889,3.55030801 0.286175115,3.78439425 0.597235023,3.78439425 L1.60921659,3.78439425 L1.60921659,16.1597536 C1.60921659,17.7125257 2.95299539,18.9765914 4.60368664,18.9765914 L13.4129032,18.9765914 C15.0635945,18.9765914 16.4073733,17.7125257 16.4073733,16.1597536 L16.4073733,3.78439425 L17.4193548,3.78439425 C17.7304147,3.78439425 17.9792627,3.55030801 17.9792627,3.25770021 C17.9792627,2.9650924 17.7304147,2.73100616 17.4193548,2.73100616 Z M5.91428571,2.08726899 C5.91428571,1.51765914 6.4078341,1.05338809 7.01336406,1.05338809 L11.0032258,1.05338809 C11.6087558,1.05338809 12.1023041,1.51765914 12.1023041,2.08726899 L12.1023041,2.73100616 L5.91428571,2.73100616 L5.91428571,2.08726899 Z M15.2875576,16.1597536 C15.2875576,17.1312115 14.4456221,17.9232033 13.4129032,17.9232033 L4.60368664,17.9232033 C3.57096774,17.9232033 2.72903226,17.1312115 2.72903226,16.1597536 L2.72903226,3.78439425 L15.2917051,3.78439425 L15.2917051,16.1597536 L15.2875576,16.1597536 Z" id="Shape"></path>
                    <path d="M9.00829493,16.0349076 C9.31935484,16.0349076 9.56820276,15.8008214 9.56820276,15.5082136 L9.56820276,6.19938398 C9.56820276,5.90677618 9.31935484,5.67268994 9.00829493,5.67268994 C8.69723502,5.67268994 8.4483871,5.90677618 8.4483871,6.19938398 L8.4483871,15.5043121 C8.4483871,15.7969199 8.69723502,16.0349076 9.00829493,16.0349076 Z" id="Shape"></path>
                    <path d="M5.35437788,15.4535934 C5.66543779,15.4535934 5.91428571,15.2195072 5.91428571,14.9268994 L5.91428571,6.77679671 C5.91428571,6.48418891 5.66543779,6.25010267 5.35437788,6.25010267 C5.04331797,6.25010267 4.79447005,6.48418891 4.79447005,6.77679671 L4.79447005,14.9268994 C4.79447005,15.2195072 5.04746544,15.4535934 5.35437788,15.4535934 Z" id="Shape"></path>
                    <path d="M12.662212,15.4535934 C12.9732719,15.4535934 13.2221198,15.2195072 13.2221198,14.9268994 L13.2221198,6.77679671 C13.2221198,6.48418891 12.9732719,6.25010267 12.662212,6.25010267 C12.3511521,6.25010267 12.1023041,6.48418891 12.1023041,6.77679671 L12.1023041,14.9268994 C12.1023041,15.2195072 12.3511521,15.4535934 12.662212,15.4535934 Z" id="Shape"></path>
                </g>
            </g>
        </g>
    </g>
</svg>