<?xml version="1.0" encoding="UTF-8"?>
<svg width="52px" height="55px" viewBox="0 0 52 55" version="1.1" xmlns="http://www.w3.org/2000/svg" xmlns:xlink="http://www.w3.org/1999/xlink">
    <!-- Generator: Sketch 48.2 (47327) - http://www.bohemiancoding.com/sketch -->
    <title>Shape</title>
    <desc>Created with Sketch.</desc>
    <defs></defs>
    <g id="PFPP-/-Dashboard-/-Salud-financiera" stroke="none" stroke-width="1" fill="none" fill-rule="evenodd" transform="translate(-549.000000, -804.000000)">
        <g id="Group-10" transform="translate(154.000000, 567.000000)" fill="#AAAAAA" fill-rule="nonzero">
            <g id="Group-Copy" transform="translate(395.000000, 237.000000)">
                <path d="M40.8861442,28.1666667 L36.5823396,28.1666667 L36.5823396,32.5 L40.8861442,32.5 L40.8861442,28.1666667 Z M43.0380466,34.6666667 L34.4304373,34.6666667 L34.4304373,26 L43.0380466,26 L43.0380466,34.6666667 Z M27.9747303,39 L23.6709256,39 L23.6709256,43.3333333 L27.9747303,43.3333333 L27.9747303,39 Z M30.1266326,45.5 L21.5190233,45.5 L21.5190233,36.8333333 L30.1266326,36.8333333 L30.1266326,45.5 Z M27.9747303,28.1666667 L23.6709256,28.1666667 L23.6709256,32.5 L27.9747303,32.5 L27.9747303,28.1666667 Z M30.1266326,34.6666667 L21.5190233,34.6666667 L21.5190233,26 L30.1266326,26 L30.1266326,34.6666667 Z M15.0633163,39 L10.7595116,39 L10.7595116,43.3333333 L15.0633163,43.3333333 L15.0633163,39 Z M17.2152186,45.5 L8.60760931,45.5 L8.60760931,36.8333333 L17.2152186,36.8333333 L17.2152186,45.5 Z M15.0633163,28.1666667 L10.7595116,28.1666667 L10.7595116,32.5 L15.0633163,32.5 L15.0633163,28.1666667 Z M17.2152186,34.6666667 L8.60760931,34.6666667 L8.60760931,26 L17.2152186,26 L17.2152186,34.6666667 Z M49.4937535,19.5 L2.15190233,19.5 L2.15190233,52 L49.4937535,52 L49.4937535,19.5 Z M49.4937535,8.66666667 L43.0380466,8.66666667 L43.0380466,13 L40.8861442,13 L40.8861442,8.66666667 L10.7595116,8.66666667 L10.7595116,13 L8.60760931,13 L8.60760931,8.66666667 L2.15190233,8.66666667 L2.15190233,17.3333333 L49.4937535,17.3333333 L49.4937535,8.66666667 Z M0,54.1666667 L0,19.5 L0,17.3333333 L0,6.5 L8.60760931,6.5 L8.60760931,0 L10.7595116,0 L10.7595116,6.5 L40.8861442,6.5 L40.8861442,0 L43.0380466,0 L43.0380466,6.5 L51.6456559,6.5 L51.6456559,17.3333333 L51.6456559,19.5 L51.6456559,54.1666667 L0,54.1666667 Z" id="Shape"></path>
            </g>
        </g>
    </g>
</svg>